<svg width="55" height="40" viewBox="0 0 55 40" fill="none" xmlns="http://www.w3.org/2000/svg">
<mask id="mask0" mask-type="alpha" maskUnits="userSpaceOnUse" x="0" y="0" width="55" height="40">
<rect width="55" height="40" fill="white"/>
</mask>
<g mask="url(#mask0)">
<path d="M31.7008 75.033C32.3305 49.6346 35.5243 37.5083 35.5243 37.5083C35.8788 52.8461 42.191 74.9463 42.191 74.9463C43.4353 75.1499 44.4044 75.131 44.4044 75.131C42.3079 47.403 44.0537 33.9122 44.0537 33.9122C39.0009 31.741 27.832 33.9122 27.832 33.9122C27.832 33.9122 25.2038 42.7026 29.5288 74.9463C29.5288 74.9463 30.5809 75.2931 31.7008 75.033Z" fill="#413C32"/>
<path d="M45.7587 29.6196C45.7587 29.6196 48.2625 29.2803 48.5566 27.8329C48.8507 26.3854 49.9254 14.3194 47.0747 10.3465C45.9284 8.98946 36.8296 7.75309 31.494 9.24201C30.0536 9.87905 29.2617 10.8742 29.2617 10.8742L45.7587 29.6196Z" fill="#FFC531"/>
<path d="M29.2619 10.8667C30.6382 9.16287 41.7091 9.20811 44.5673 11.3001C46.9354 13.0341 46.9542 28.4171 45.7627 29.6158C44.5673 30.8145 29.6691 32.1074 28.4173 29.744C27.5387 27.9535 27.5651 12.9662 29.2619 10.8667Z" fill="#F09F1D"/>
<path d="M48.2286 24.3001C47.9006 22.2306 45.212 14.0095 43.7867 13.135C42.3274 12.2416 39.0921 12.2152 36.7128 11.9929C34.3712 11.7705 29.9632 12.4866 28.847 12.9917C27.3425 13.6665 25.5062 20.7983 24.111 24.1794C23.6623 24.8881 20.4458 27.8848 17.8516 29.3963L18.93 30.8589C18.93 30.8589 25.2196 28.6764 26.9051 27.1648C27.2746 26.8331 28.3191 23.9005 28.7452 22.8337C28.4209 27.6737 27.8289 33.9121 27.8289 33.9121C36.3319 35.9438 44.0506 33.9121 44.0506 33.9121C43.7867 26.9123 43.7 21.4277 43.7 21.4277C43.7 21.4277 44.4692 24.1794 44.6728 25.2575C44.9745 26.8783 45.3214 36.2642 45.3214 36.2642L47.0069 36.4037C47.6856 33.7613 48.4021 25.412 48.2286 24.3001Z" fill="#CA7C74"/>
<path d="M43.7854 13.1389C42.3261 12.2455 39.0908 12.2192 36.7115 11.9968C34.3698 11.7744 29.9619 12.4906 28.8457 12.9957C27.8993 13.4216 26.8208 16.407 25.8027 19.4037L29.0003 21.017L28.7514 22.8377C28.4272 27.6776 27.8352 33.916 27.8352 33.916C36.3382 35.9477 44.0569 33.916 44.0569 33.916C43.7929 26.9162 43.7062 21.4317 43.7062 21.4317L46.8623 19.5092C45.8857 16.6709 44.6187 13.6478 43.7854 13.1389Z" fill="#FFC531"/>
<path d="M44.978 37.6258C44.978 37.6258 44.7442 38.5078 44.5255 39.8346C44.4765 40.0759 45.9961 40.3699 46.6899 39.9138C47.018 39.6311 47.1273 38.553 47.1424 38.21C47.1613 37.7049 47.0105 36.4045 47.0105 36.4045C47.0105 36.4045 46.4486 35.6129 45.6228 36.0614C45.6228 36.0614 44.1711 37.0113 44.1183 37.4222C44.058 37.8896 43.6469 38.4626 43.8091 38.5493C44.0693 38.6887 44.7141 38.3193 44.978 37.6258Z" fill="#CA7C74"/>
<path d="M16.6706 30.1043C16.6706 30.1043 15.9466 30.7753 14.7211 31.1597C14.5175 31.2954 15.3018 32.5997 16.1125 32.7768C16.5461 32.8145 17.5303 32.3433 17.7867 32.1134C18.16 31.7779 18.933 30.8582 18.933 30.8582C18.933 30.8582 19.1404 29.7538 18.243 29.4748C18.243 29.4748 16.5499 29.0979 16.2181 29.3467C15.841 29.6294 15.1434 29.7349 15.1962 29.9083C15.2754 30.191 15.9956 30.3983 16.6706 30.1043Z" fill="#CA7C74"/>
<path d="M32.4806 6.71223C32.4806 6.71223 32.1525 6.01488 32.1563 5.261C32.1714 2.95787 38.0613 2.17383 38.0613 2.17383C38.0613 2.17383 39.3245 3.69668 39.8184 4.55988C39.6525 6.51245 39.0266 7.59804 37.8991 8.0843L32.4806 6.71223Z" fill="#413C32"/>
<path d="M37.3537 12.0497L37.2217 8.46875H34.454L34.4238 11.9894L35.6154 15.2839L37.3537 12.0497Z" fill="#AE6966"/>
<path d="M37.3535 12.0508L39.1597 13.781L37.1273 13.8714L35.6152 15.285" fill="#F09F1D"/>
<path d="M34.4225 11.9902L32.6465 13.3698L34.0831 13.5282L35.6141 15.2847" fill="#F09F1D"/>
<path d="M32.3755 5.94338C32.3755 5.94338 32.7714 10.6476 35.1884 10.6476C37.6733 10.6476 38.0014 7.65847 38.0014 7.65847C38.0014 7.65847 38.4878 7.54539 38.7329 6.72366C38.9252 6.07154 38.4878 5.63429 38.1409 6.26378C38.1409 6.26378 37.9712 6.29771 37.8129 6.14693C37.8129 6.14693 37.9561 5.52874 37.7978 4.96333C37.6356 4.40168 33.9064 6.04139 32.5263 4.54492C32.5225 4.54869 32.2925 5.01987 32.3755 5.94338Z" fill="#CA7C74"/>
<path d="M34.9931 7.70378C34.8988 7.70001 34.7631 7.70378 34.6349 7.68116C34.6047 7.67362 34.5708 7.66609 34.5557 7.65101C34.5519 7.64724 34.5519 7.6397 34.5557 7.63593L34.5595 7.63216L34.5745 7.57939C34.5859 7.53793 34.6009 7.49646 34.6123 7.455C34.7291 7.10821 34.8196 6.78404 34.8196 6.5918C34.6764 6.71996 34.484 7.00267 34.3596 7.37584C34.3445 7.42484 34.3294 7.47007 34.3219 7.51908C34.3144 7.54546 34.3144 7.56431 34.3068 7.59824C34.2993 7.6397 34.3031 7.68116 34.3031 7.72263C34.288 7.76786 34.3521 7.78294 34.3747 7.80932C34.4086 7.82817 34.4388 7.85456 34.4765 7.8621C34.5368 7.88094 34.5821 7.87717 34.6311 7.8734C34.8083 7.85079 34.9252 7.77163 34.9931 7.70378Z" fill="#A85E59"/>
<path d="M36.278 6.9953C36.4024 6.9953 36.5042 6.89353 36.5042 6.76913C36.5042 6.64474 36.4024 6.54297 36.278 6.54297C36.1536 6.54297 36.0518 6.64474 36.0518 6.76913C36.0518 6.89353 36.1536 6.9953 36.278 6.9953Z" fill="#413C32"/>
<path d="M33.5182 7.02069C33.6427 7.02069 33.7445 6.91892 33.7445 6.79453C33.7445 6.67013 33.6427 6.56836 33.5182 6.56836C33.3938 6.56836 33.292 6.67013 33.292 6.79453C33.292 6.91892 33.3938 7.02069 33.5182 7.02069Z" fill="#413C32"/>
<path d="M36.7055 6.26412C36.7055 6.26412 36.3699 6.03418 35.9287 6.22266" stroke="#413C32" stroke-width="0.5" stroke-miterlimit="10" stroke-linecap="round" stroke-linejoin="round"/>
<path d="M33.043 6.26412C33.043 6.26412 33.3786 6.03418 33.8197 6.22266" stroke="#413C32" stroke-width="0.5" stroke-miterlimit="10" stroke-linecap="round" stroke-linejoin="round"/>
<path d="M32.2072 4.32595C32.2072 4.69535 38.0933 4.67273 38.0933 4.67273C38.0933 4.67273 38.5156 4.71043 39.824 4.55965C39.824 4.55965 39.7449 2.08313 39.6355 1.7288C39.4583 1.15208 36.3889 0.0250191 36.0043 0.00240249C35.6197 -0.0202141 33.1725 0.816601 32.49 1.2237C32.1921 1.4951 32.2072 4.32595 32.2072 4.32595Z" fill="#FFC531"/>
<path d="M38.0934 4.67202C38.0934 4.67202 35.4689 3.68066 32.2073 4.32523C32.2073 4.32523 30.2276 5.3279 30.1711 5.48622C30.1145 5.64453 30.4727 5.735 30.5632 5.72746C31.076 5.64453 31.6944 5.21105 33.0293 5.13189C34.4471 5.04896 35.5293 5.76138 36.0421 5.77646C36.5549 5.78777 38.0934 4.67202 38.0934 4.67202Z" fill="#F09F1D"/>
<path d="M35.8157 2.17037C35.6611 2.0196 33.2328 1.97059 33.0782 2.16284C32.8482 2.44931 32.9575 3.36529 33.0292 3.46329C33.1008 3.5613 35.5103 3.66307 35.7705 3.5236C35.8987 3.45198 36.0005 2.38146 35.8157 2.17037Z" fill="#F09F1D"/>
<path d="M35.9776 0.258973C36.1421 0.258973 36.2755 0.157715 36.2755 0.0328067C36.2755 -0.0921014 36.1421 -0.193359 35.9776 -0.193359C35.8131 -0.193359 35.6797 -0.0921014 35.6797 0.0328067C35.6797 0.157715 35.8131 0.258973 35.9776 0.258973Z" fill="#413C32"/>
<path d="M30.1845 12.5996C30.3165 12.2189 28.5593 12.675 28.2576 13.2065C28.1068 13.4741 26.7682 15.7886 28.0917 20.5644C28.2388 21.2203 28.9929 21.0168 28.9929 21.0168C28.9929 21.0168 28.3557 17.9183 30.1845 12.5996Z" fill="#F09F1D"/>
<path d="M32.7861 8.01304C32.7861 8.01304 35.7462 8.09219 37.3525 7.91126C37.4769 7.76802 37.6579 7.01037 37.722 6.90859C37.7861 6.80305 38.0388 6.85582 38.0878 6.90859C38.1368 6.96136 38.1519 8.49175 37.8653 9.62635C37.5787 10.7572 34.4226 10.7685 33.6836 10.5348C33.2424 10.3915 32.7861 8.01304 32.7861 8.01304Z" fill="#413C32"/>
<path d="M41.3879 17.5522C41.2483 17.4165 39.0764 17.3712 38.9369 17.5446C38.7295 17.8009 38.8275 18.6189 38.8916 18.7094C38.9557 18.7961 41.1126 18.8865 41.3426 18.7621C41.4633 18.7018 41.5538 17.7444 41.3879 17.5522Z" fill="#F09F1D"/>
<path d="M43.4852 12.9766C43.5342 12.577 41.8713 12.2152 41.5923 12.4526C41.3585 12.6487 41.1059 17.907 43.7039 21.6614C44.0923 21.6614 44.0923 21.1977 44.0923 21.1977C44.0923 21.1977 43.0063 17.0174 43.4852 12.9766Z" fill="#F09F1D"/>
<path d="M34.0312 8.36719C34.1104 8.50289 34.3631 8.69513 34.71 8.70267C35.0569 8.71021 35.3246 8.51796 35.3887 8.36719C35.2266 8.3898 34.9852 8.44258 34.7138 8.43881C34.4423 8.43504 34.1972 8.37096 34.0312 8.36719Z" fill="#C4706E"/>
<path d="M7.0625 24.1956L13.9441 25.677L21.0708 24.5085L13.7631 23.3438L7.0625 24.1956Z" fill="#E7A200"/>
<path d="M7.0625 24.1953V32.4655L14.0648 34.271L21.0708 32.6502V24.5082L13.9441 25.6767L7.0625 24.1953Z" fill="#FFCE5C"/>
<path d="M13.9441 25.6767L14.0648 34.271L7.0625 32.4655V24.1953L13.9441 25.6767Z" fill="#EFB844"/>
<rect y="-1" width="70" height="42" fill="url(#paint0_linear)"/>
</g>
<defs>
<linearGradient id="paint0_linear" x1="49.3307" y1="19.72" x2="0.826768" y2="19.72" gradientUnits="userSpaceOnUse">
<stop stop-color="white"/>
<stop offset="1" stop-color="white" stop-opacity="0"/>
</linearGradient>
</defs>
</svg>
