<svg width="25" height="24" viewBox="0 0 25 24" fill="none" xmlns="http://www.w3.org/2000/svg">
<g clip-path="url(#clip0)">
<path d="M24.5442 11.5144C24.4725 8.37465 23.1816 5.4488 20.91 3.27588C18.6414 1.10625 15.6624 -0.0559207 12.5222 0.00212389C9.38093 -0.0566532 6.40295 1.10625 4.1346 3.27588C1.86277 5.4488 0.572101 8.37465 0.500183 11.5142L0.5 11.5241V11.534C0.516512 14.7336 1.88919 17.7757 4.27238 19.9078V22.8087C4.27238 23.3718 4.66628 23.8621 5.20878 23.9749C5.28914 23.9916 5.37005 24 5.45059 24C5.66891 24 5.88356 23.939 6.07253 23.8213L8.40857 22.3647C9.72603 22.8252 11.1007 23.0585 12.4983 23.0585H12.516C12.5934 23.0599 12.6699 23.0607 12.7471 23.0607C15.8049 23.0605 18.6958 21.9023 20.91 19.7847C23.1816 17.6118 24.4725 14.686 24.5442 11.5464L24.5446 11.5303L24.5442 11.5144ZM19.9341 18.7685C17.9336 20.6819 15.3063 21.7057 12.5361 21.6511L12.5284 21.6509H12.5207C11.2209 21.6539 9.9416 21.4281 8.72028 20.9811C8.4183 20.8707 8.08935 20.9044 7.81764 21.0738L5.68267 22.4048V19.7364C5.68267 19.4387 5.55296 19.1554 5.32675 18.9593C3.1727 17.0903 1.9279 14.3851 1.91047 11.5365C1.97615 8.77565 3.11216 6.20338 5.11045 4.29212C7.11075 2.37884 9.73887 1.35546 12.5083 1.40966L12.5222 1.40984L12.5361 1.40966C15.3057 1.35601 17.9336 2.37884 19.9341 4.29212C21.9306 6.20173 23.0666 8.77199 23.1339 11.5303C23.0666 14.2888 21.9306 16.8589 19.9341 18.7685Z" fill="#413C32"/>
<path d="M17.5381 8.25H7.20505C6.81574 8.25 6.5 8.56494 6.5 8.95368C6.5 9.34241 6.81574 9.65754 7.20505 9.65754H17.5381C17.9276 9.65754 18.2433 9.34241 18.2433 8.95368C18.2433 8.56494 17.9276 8.25 17.5381 8.25Z" fill="#FDC400"/>
<path d="M17.5381 11.3633H7.20505C6.81574 11.3633 6.5 11.6784 6.5 12.067C6.5 12.4557 6.81574 12.7708 7.20505 12.7708H17.5381C17.9276 12.7708 18.2433 12.4557 18.2433 12.067C18.2433 11.6784 17.9276 11.3633 17.5381 11.3633Z" fill="#FDC400"/>
<path d="M17.538 14.4766H12.4575C12.0682 14.4766 11.7524 14.7917 11.7524 15.1804C11.7524 15.569 12.0682 15.8841 12.4575 15.8841H17.538C17.9275 15.8841 18.2432 15.569 18.2432 15.1804C18.2432 14.7917 17.9275 14.4766 17.538 14.4766Z" fill="#FDC400"/>
</g>
<defs>
<clipPath id="clip0">
<rect width="24" height="24" fill="white" transform="translate(0.5)"/>
</clipPath>
</defs>
</svg>
