<svg width="25" height="24" viewBox="0 0 25 24" fill="none" xmlns="http://www.w3.org/2000/svg">
<g clip-path="url(#clip0)">
<path d="M12.5 0C5.86775 0 0.5 5.36705 0.5 12C0.5 18.6322 5.86705 24 12.5 24C19.1322 24 24.5 18.633 24.5 12C24.5 5.36775 19.133 0 12.5 0ZM12.5 22.4C6.76545 22.4 2.09998 17.7346 2.09998 12C2.09998 6.26541 6.76545 1.59998 12.5 1.59998C18.2345 1.59998 22.9 6.26545 22.9 12C22.9 17.7345 18.2345 22.4 12.5 22.4Z" fill="#413C32"/>
<path d="M12.1952 14.6211C11.627 14.6211 11.167 15.0946 11.167 15.6628C11.167 16.2175 11.6134 16.7046 12.1952 16.7046C12.7769 16.7046 13.2369 16.2175 13.2369 15.6628C13.2369 15.0946 12.7634 14.6211 12.1952 14.6211Z" fill="#FDC400"/>
<path d="M12.3714 6.73438C10.5449 6.73438 9.70605 7.81676 9.70605 8.54731C9.70605 9.07498 10.1526 9.3185 10.5178 9.3185C11.2484 9.3185 10.9508 8.27675 12.3308 8.27675C13.0073 8.27675 13.5485 8.57436 13.5485 9.19676C13.5485 9.92731 12.7908 10.3468 12.3444 10.7255C11.952 11.0638 11.4378 11.6185 11.4378 12.7821C11.4378 13.4855 11.6273 13.6885 12.1819 13.6885C12.8449 13.6885 12.9802 13.3909 12.9802 13.1338C12.9802 12.4304 12.9937 12.0244 13.7378 11.4427C14.1032 11.1586 15.2531 10.2386 15.2531 8.96679C15.2531 7.69503 14.1032 6.73438 12.3714 6.73438Z" fill="#FDC400"/>
</g>
<defs>
<clipPath id="clip0">
<rect width="24" height="24" fill="white" transform="translate(0.5)"/>
</clipPath>
</defs>
</svg>
