<svg width="25" height="24" viewBox="0 0 25 24" fill="none" xmlns="http://www.w3.org/2000/svg">
<path d="M18.779 14.0471L12.5 22L6.22241 14.0488C5.09565 12.6135 4.5 10.8881 4.5 9.05917C4.50005 4.61533 8.0888 1 12.5 1C16.9113 1 20.5 4.61533 20.5 9.05917C20.5 10.8881 19.9044 12.6136 18.779 14.0471Z" fill="white"/>
<path d="M12.5002 0C7.42166 0 3.29004 4.1316 3.29004 9.21005C3.29004 9.21005 3.29015 9.26211 3.29036 9.28811C3.30722 11.35 3.99208 13.2938 5.27481 14.9157L12.5002 24L19.7269 14.914C21.0244 13.2733 21.7103 11.3009 21.7103 9.21005C21.7103 4.1316 17.5786 0 12.5002 0ZM18.5349 13.9688L12.5002 21.556L6.46672 13.9704C5.38379 12.601 4.81131 10.955 4.81131 9.21005C4.81136 4.97046 8.26052 1.52133 12.5002 1.52133C16.7398 1.52133 20.1889 4.97046 20.1889 9.21005C20.1889 10.955 19.6165 12.6011 18.5349 13.9688Z" fill="#413C32"/>
<path d="M12.4996 5.29297C10.4025 5.29297 8.69629 6.99913 8.69629 9.09628C8.69629 11.1934 10.4025 12.8996 12.4996 12.8996C14.5968 12.8996 16.3029 11.1934 16.3029 9.09628C16.3029 6.99913 14.5968 5.29297 12.4996 5.29297ZM12.4996 11.3783C11.2413 11.3783 10.2176 10.3546 10.2176 9.09628C10.2176 7.83799 11.2413 6.81429 12.4996 6.81429C13.7579 6.81429 14.7816 7.83799 14.7816 9.09628C14.7816 10.3546 13.7579 11.3783 12.4996 11.3783Z" fill="#FDC400"/>
</svg>
