<svg width="25" height="24" viewBox="0 0 25 24" fill="none" xmlns="http://www.w3.org/2000/svg">
<g clip-path="url(#clip0)">
<path d="M4.82275 22.5L2.82275 13L1.32275 11.5L2.32275 9.5H22.8228L23.3228 11.5L21.8228 13L20.3228 21.5L18.8228 23.5H6.32275L4.82275 22.5Z" fill="white"/>
<path d="M24.0284 10.1983C23.6843 9.29272 22.954 8.80909 21.8602 8.7604C21.7498 8.75715 21.6394 8.75391 21.5291 8.75391H18.9389C13.7585 8.75391 8.58129 8.75391 3.40087 8.7604C3.00487 8.7604 2.64133 8.80909 2.31999 8.89997C1.49554 9.13692 0.898299 9.88672 0.833382 10.7663C0.755481 11.8148 1.10604 12.623 1.87855 13.1715C2.12199 13.3468 2.24209 13.5351 2.30052 13.8532L2.5115 14.9892C2.9075 17.1153 3.31648 19.3127 3.7709 21.4648C4.14093 23.2175 5.08548 23.9998 6.83501 23.9998C6.84474 23.9998 6.85448 23.9998 6.86422 23.9998C9.22073 23.9868 11.5772 23.99 13.937 23.9933C15.3554 23.9933 16.7739 23.9965 18.1923 23.9933C19.851 23.99 20.802 23.2435 21.1785 21.6433C21.3928 20.7344 21.5713 19.8029 21.7466 18.9038L21.8147 18.5532C22.0549 17.3263 22.2886 16.0961 22.5191 14.8691L22.7982 13.3988C22.8437 13.3663 22.8891 13.3371 22.9313 13.3079C23.0611 13.2202 23.1877 13.1358 23.3013 13.0352C24.0739 12.3666 24.3887 11.1461 24.0284 10.1983ZM22.412 11.1526C22.4022 11.3376 22.2984 11.5129 22.1393 11.6135C21.9835 11.6817 21.8245 11.7077 21.6394 11.7336C21.5323 11.7499 21.4252 11.7661 21.3084 11.792L21.2045 11.8148L20.7598 14.1193C20.6267 14.8075 20.4969 15.4988 20.3671 16.187C20.062 17.7969 19.7471 19.4588 19.4193 21.0915C19.244 21.9614 19.02 22.1399 18.0722 22.1399C14.3265 22.1399 10.5775 22.1431 6.83176 22.1399C5.95213 22.1399 5.77036 21.9938 5.60482 21.1661C5.22505 19.2738 4.85502 17.3425 4.49473 15.4761C4.33244 14.6257 4.17014 13.7785 4.0046 12.9313C3.95916 12.7009 3.91047 12.4704 3.85854 12.2367L3.76116 11.792L3.64756 11.7758C3.59562 11.7693 3.54369 11.7628 3.48851 11.7563C3.25805 11.7304 3.04058 11.7077 2.84907 11.5551C2.59589 11.3214 2.59914 10.9903 2.74845 10.8085C2.88478 10.656 2.98215 10.617 3.25156 10.617C3.31648 10.617 3.39113 10.6203 3.47877 10.6235C7.825 10.6203 12.3627 10.6203 16.8193 10.6203H21.8829C22.0549 10.6203 22.0841 10.6398 22.2205 10.7371C22.399 10.8702 22.4185 11.052 22.412 11.1526Z" fill="#413C32"/>
<path d="M6.35151 7.98486C6.35476 7.98486 6.35476 7.98486 6.35801 7.98486C6.81243 7.98161 7.15974 7.64079 7.24738 7.11821C7.27334 6.9624 7.29282 6.8066 7.31229 6.6508C7.33177 6.48851 7.35449 6.32297 7.38046 6.16067C7.79268 3.72951 9.84408 1.9248 12.2623 1.86638C12.3077 1.86638 12.3531 1.86638 12.3953 1.86638C14.9141 1.86638 17.0175 3.5023 17.5368 5.88477C17.5855 6.10874 17.6115 6.33595 17.6374 6.57615C17.6537 6.74168 17.6731 6.90722 17.6991 7.06952C17.7867 7.62456 18.186 7.99135 18.6566 7.97836C19.137 7.95564 19.5038 7.5564 19.5428 7.0046C19.5557 6.8066 19.5525 6.59237 19.5265 6.32946C19.163 2.78821 16.0794 0.00649175 12.5024 0C12.4992 0 12.496 0 12.4927 0C9.22736 0 6.25738 2.39221 5.58224 5.56668C5.47188 6.08277 5.42319 6.62159 5.44267 7.1247C5.4589 7.64079 5.9263 7.98486 6.35151 7.98486Z" fill="#413C32"/>
<path d="M8.64031 14.3134L8.6403 14.3134L8.6404 14.3152C8.66328 14.7499 8.66005 15.1937 8.65683 15.6384C8.65653 15.6797 8.65622 15.7211 8.65595 15.7624L8.65593 15.7624V15.7658C8.65593 15.8423 8.65515 15.9193 8.65434 15.9992L8.65433 16.0005C8.65352 16.0792 8.65269 16.1608 8.65267 16.2429L8.65271 16.2473L8.65918 16.9884C8.65918 17.0847 8.65931 17.1804 8.65944 17.2756C8.65995 17.6559 8.66046 18.0286 8.65279 18.4042L8.65278 18.4048C8.64938 18.5818 8.60596 18.6942 8.56004 18.7602C8.5182 18.8204 8.45895 18.8655 8.36567 18.8894C8.33731 18.8959 8.29631 18.9012 8.25358 18.9012C8.19366 18.9012 8.13089 18.8924 8.07892 18.8769C8.03042 18.8625 8.01188 18.8485 8.01172 18.8487L8.01097 18.8481C7.91891 18.7634 7.82586 18.566 7.82191 18.3942C7.79932 17.2291 7.79606 15.9882 7.81549 14.3696L7.81549 14.3689C7.81768 14.163 7.88077 14.0254 7.94975 13.9469C8.0144 13.8732 8.10271 13.8281 8.22437 13.8281C8.39151 13.8281 8.62517 14.005 8.64031 14.3134Z" fill="#413C32" stroke="#FDC400"/>
<path d="M12.6547 13.3285C12.421 13.322 12.2133 13.3967 12.0445 13.5525C11.8335 13.7505 11.7102 14.0588 11.6972 14.4224C11.681 14.8736 11.6842 15.328 11.6875 15.7727C11.6875 15.9707 11.6907 16.1687 11.6907 16.3667C11.6907 16.5582 11.6907 16.7497 11.6875 16.9444C11.6842 17.3924 11.681 17.8533 11.694 18.3109C11.7134 18.9958 12.0575 19.434 12.5931 19.4535C12.6028 19.4535 12.6158 19.4535 12.6255 19.4535C12.8463 19.4535 13.054 19.3723 13.213 19.2198C13.424 19.0185 13.5409 18.7134 13.5474 18.3564C13.5668 17.0093 13.5668 15.6753 13.5441 14.3932C13.5409 13.7862 13.1708 13.348 12.6547 13.3285Z" fill="#FDC400"/>
<path d="M17.6503 13.6233C17.4361 13.4382 17.066 13.3409 16.7966 13.3928C16.3714 13.4739 16.1053 13.8375 16.102 14.3406C16.089 15.5546 16.0793 16.9698 16.102 18.3817C16.1117 18.9757 16.498 19.4334 17.0011 19.4496C17.0109 19.4496 17.0238 19.4496 17.0336 19.4496C17.2543 19.4496 17.4523 19.3717 17.6081 19.2256C17.8126 19.0309 17.9327 18.7225 17.9392 18.3557C17.9489 17.9046 17.9457 17.4501 17.9457 16.9957L17.9424 16.4147C17.9424 16.2264 17.9424 16.0349 17.9457 15.8467C17.9489 15.3695 17.9522 14.8762 17.9327 14.3925C17.9262 14.2627 17.8905 13.8277 17.6503 13.6233Z" fill="#FDC400"/>
</g>
<defs>
<clipPath id="clip0">
<rect width="23.3543" height="24" fill="white" transform="translate(0.822754)"/>
</clipPath>
</defs>
</svg>
