<svg width="25" height="24" viewBox="0 0 25 24" fill="none" xmlns="http://www.w3.org/2000/svg">
<path d="M1.5 11.99C1.50457 5.89763 6.41684 0.993733 12.5097 1.00001C18.6043 1.00628 23.5029 5.91303 23.5 12.0094C23.4972 18.1001 18.5843 23.004 12.4909 23C6.39916 22.9954 1.49544 18.083 1.5 11.99ZM14.8372 12.7787C15.2074 12.793 15.5787 12.7747 15.9494 12.7833C16.5323 12.797 17.1294 12.7474 17.6952 12.8557C19.3451 13.1728 20.394 14.5004 20.4219 16.2187C20.431 16.7553 20.4231 17.292 20.4231 17.9216C23.297 14.2364 23.2878 8.10237 18.8432 4.3704C14.5196 0.739955 7.94248 1.51212 4.56098 6.04762C3.27488 7.77274 2.63439 9.71571 2.57793 11.8725C2.51462 14.3014 3.6359 16.9076 4.47429 17.7117C4.47429 17.15 4.46744 16.5996 4.47543 16.0499C4.49995 14.3567 5.86761 12.9002 7.55978 12.805C8.38848 12.7582 9.2223 12.7941 10.0533 12.7782L14.8372 12.7787ZM9.56507 13.8657C8.97022 13.8794 8.37422 13.8583 7.77936 13.8754C6.51893 13.9125 5.56305 14.8973 5.55621 16.1543C5.55164 17.0302 5.56248 17.9062 5.5505 18.7821C5.54765 19.0045 5.61609 19.154 5.78035 19.3022C7.39781 20.7576 9.2742 21.6376 11.4455 21.8554C14.308 22.1428 16.8283 21.3313 19.024 19.4785C19.2613 19.2783 19.3605 19.0684 19.34 18.7576C19.3126 18.3328 19.3332 17.9045 19.332 17.4779C19.332 17.0399 19.3406 16.6019 19.3303 16.1639C19.3001 14.8329 18.3499 13.8908 17.0176 13.872C16.4672 13.864 15.9163 13.8845 15.3671 13.864" fill="#413C32"/>
<path d="M1.5 11.99C1.50457 5.89763 6.41684 0.993733 12.5097 1.00001C18.6043 1.00628 23.5029 5.91303 23.5 12.0094C23.4972 18.1001 18.5843 23.004 12.4909 23C6.39916 22.9954 1.49544 18.083 1.5 11.99ZM14.8372 12.7787C15.2074 12.793 15.5787 12.7747 15.9494 12.7833C16.5323 12.797 17.1294 12.7474 17.6952 12.8557C19.3451 13.1728 20.394 14.5004 20.4219 16.2187C20.431 16.7553 20.4231 17.292 20.4231 17.9216C23.297 14.2364 23.2878 8.10237 18.8432 4.3704C14.5196 0.739955 7.94248 1.51212 4.56098 6.04762C3.27488 7.77274 2.63439 9.71571 2.57793 11.8725C2.51462 14.3014 3.6359 16.9076 4.47429 17.7117C4.47429 17.15 4.46744 16.5996 4.47543 16.0499C4.49995 14.3567 5.86761 12.9002 7.55978 12.805C8.38848 12.7582 9.2223 12.7941 10.0533 12.7782L14.8372 12.7787ZM9.56507 13.8657C8.97022 13.8794 8.37422 13.8583 7.77936 13.8754C6.51893 13.9125 5.56305 14.8973 5.55621 16.1543C5.55164 17.0302 5.56248 17.9062 5.5505 18.7821C5.54765 19.0045 5.61609 19.154 5.78035 19.3022C7.39781 20.7576 9.2742 21.6376 11.4455 21.8554C14.308 22.1428 16.8283 21.3313 19.024 19.4785C19.2613 19.2783 19.3605 19.0684 19.34 18.7576C19.3126 18.3328 19.3332 17.9045 19.332 17.4779C19.332 17.0399 19.3406 16.6019 19.3303 16.1639C19.3001 14.8329 18.3499 13.8908 17.0176 13.872C16.4672 13.864 15.9163 13.8845 15.3671 13.864L9.56507 13.8657Z" stroke="#413C32" stroke-width="0.5"/>
<path d="M16.2848 7.81928C16.2825 9.95329 14.5647 11.6664 12.4299 11.6624C10.3111 11.659 8.58587 9.91851 8.59329 7.7919C8.6007 5.66929 10.3334 3.9647 12.4744 3.97268C14.592 3.98124 16.2871 5.69267 16.2848 7.81928ZM15.2017 7.82954C15.2052 6.29148 13.9881 5.05965 12.4607 5.05566C10.9328 5.05224 9.68604 6.28064 9.67749 7.79875C9.66893 9.31172 10.9163 10.5726 12.4293 10.5806C13.9499 10.5886 15.1977 9.3505 15.2017 7.82954Z" fill="#FDC400" stroke="#FDC400" stroke-width="0.5"/>
</svg>
