<svg width="16" height="16" viewBox="0 0 16 16" fill="none" xmlns="http://www.w3.org/2000/svg">
<path fill-rule="evenodd" clip-rule="evenodd" d="M0.666626 8.00033C0.666626 3.96243 3.96148 0.666992 7.99996 0.666992C12.0379 0.666992 15.3333 3.96185 15.3333 8.00033C15.3333 12.0382 12.0384 15.3337 7.99996 15.3337C3.96206 15.3337 0.666626 12.0388 0.666626 8.00033ZM7.99996 1.8332C4.59953 1.8332 1.83283 4.5999 1.83283 8.00033C1.83283 11.4008 4.59953 14.1675 7.99996 14.1675C11.4004 14.1675 14.1671 11.4008 14.1671 8.00033C14.1671 4.5999 11.4004 1.8332 7.99996 1.8332ZM8.45829 3.87533V7.75509L11.0042 9.4523L10.4957 10.215L7.54163 8.24578V3.87533H8.45829Z" fill="#FDC400"/>
</svg>
