<svg width="20" height="26" viewBox="0 0 20 26" fill="none" xmlns="http://www.w3.org/2000/svg">
<path d="M6.08102 3.53857L0.732422 11.0208L1.84099 23.1082C1.84099 23.1082 1.85931 25.5318 4.87534 25.2534C7.89138 24.9733 11.3307 24.6408 11.3307 24.6408C11.3307 24.6408 13.9784 24.8323 13.7549 21.6298C13.5313 18.4272 12.4118 10.128 12.4118 10.128L6.08102 3.53857Z" fill="#FBFBFB"/>
<path d="M4.40632 25.9985C3.44434 25.9985 2.66193 25.7346 2.07742 25.2141C1.20522 24.437 1.11727 23.387 1.10994 23.1502L0.00320822 11.0864C-0.0132828 10.9147 0.034358 10.7448 0.133304 10.6038L5.48191 3.12156C5.60834 2.94444 5.80806 2.83239 6.02794 2.81793C6.24783 2.80166 6.46221 2.8848 6.61246 3.04204L12.945 9.6315C13.0513 9.74174 13.1191 9.88271 13.1393 10.0327C13.1851 10.3725 14.2643 18.3933 14.4879 21.5814C14.5776 22.8574 14.2735 23.846 13.5882 24.5201C12.7508 25.3425 11.6624 25.375 11.3527 25.366C10.9093 25.4093 7.72836 25.7166 4.94686 25.9732C4.75996 25.9895 4.5804 25.9985 4.40632 25.9985ZM2.57398 23.1032C2.57398 23.1032 2.5978 23.7394 3.07055 24.1514C3.44434 24.4768 4.02886 24.6069 4.80761 24.5346C7.78699 24.2581 11.2263 23.9255 11.2593 23.9219C11.3014 23.9183 11.3436 23.9165 11.3839 23.9201C11.3857 23.9201 12.0948 23.9508 12.5602 23.4864C12.9249 23.1195 13.0825 22.5122 13.0238 21.6808C12.8259 18.8361 11.8988 11.8202 11.7155 10.4556L6.16354 4.67765L1.4874 11.2201L2.57215 23.0436C2.57215 23.0634 2.57398 23.0833 2.57398 23.1032Z" fill="#C4C1BA"/>
<path d="M6.16354 3.72119L2.91113 11.8686L7.06505 23.4263C7.06505 23.4263 7.73202 25.8951 10.7371 24.8252C13.7421 23.7552 17.1612 22.5209 17.1612 22.5209C17.1612 22.5209 19.9153 22.0275 18.8305 18.8177C17.7458 15.6079 14.5941 7.91777 14.5941 7.91777L6.16354 3.72119Z" fill="#FBFBFB"/>
<path d="M9.33872 26C8.77986 26 8.2668 25.8807 7.79956 25.6403C6.65801 25.0511 6.26772 23.9631 6.19076 23.7047L2.046 12.1704C1.97271 11.9644 1.97638 11.7403 2.057 11.5379L5.31124 3.3905C5.40652 3.15375 5.59708 2.96759 5.83712 2.87723C6.07715 2.78686 6.34651 2.80132 6.57555 2.91518L15.0025 7.11176C15.2004 7.21116 15.3561 7.37744 15.4386 7.57986C15.5668 7.89433 18.614 15.3332 19.6951 18.5322C20.1404 19.8515 20.0927 20.9793 19.5504 21.8829C18.8944 22.9764 17.762 23.3125 17.412 23.392C16.9429 23.5619 13.7986 24.6951 11.0428 25.6765C10.4381 25.8916 9.86827 26 9.33872 26ZM7.94798 23.1932C7.94798 23.1932 8.13121 23.7788 8.66259 24.0445C9.09502 24.2595 9.68687 24.236 10.4216 23.974C13.3882 22.9167 16.8092 21.6841 16.8422 21.6715C16.8916 21.6534 16.9411 21.6408 16.9924 21.6317C16.9906 21.6317 17.6649 21.4889 17.98 20.9485C18.2329 20.5166 18.2237 19.8949 17.9562 19.1033C17.0199 16.3236 14.4729 10.0468 13.8701 8.57026L6.64885 4.97371L3.88751 11.8849L7.92599 23.1246C7.93515 23.148 7.94248 23.1715 7.94798 23.1932Z" fill="#C4C1BA"/>
<path d="M7.50692 7.48057C7.36033 7.48057 7.21375 7.43719 7.08548 7.34863C6.75383 7.11911 6.67504 6.66728 6.90775 6.34196C7.28521 5.8088 8.18672 4.16415 7.83857 2.96409C7.67183 2.38937 7.23024 1.96103 6.49364 1.65198C5.30994 1.15678 4.41576 1.63391 3.97417 2.24478C3.40614 3.02916 3.31819 4.35572 4.40477 5.54855C4.67595 5.84495 4.6503 6.3022 4.34797 6.56968C4.04746 6.83716 3.58388 6.81186 3.31269 6.51366C1.68557 4.72442 1.87247 2.65866 2.77948 1.40438C3.75062 0.063356 5.43271 -0.361363 7.06533 0.321802C8.22153 0.806162 8.9563 1.56162 9.24948 2.57191C9.86148 4.68465 8.17939 7.07573 8.10793 7.17513C7.96501 7.37394 7.7378 7.48057 7.50692 7.48057Z" fill="#C4C1BA"/>
<path d="M7.73313 8.84321C8.3185 8.70851 8.65697 8.02409 8.48912 7.31453C8.32128 6.60497 7.71069 6.13896 7.12532 6.27367C6.53996 6.40838 6.20149 7.09279 6.36933 7.80235C6.53718 8.51191 7.14777 8.97792 7.73313 8.84321Z" fill="#C4C1BA"/>
<path d="M10.3561 19.6404C10.2865 19.6404 10.2187 19.6295 10.1509 19.6042C9.93652 19.5265 9.7826 19.3367 9.75878 19.1126L9.57372 17.4662L8.09318 16.6818C7.89163 16.5751 7.76886 16.3637 7.77619 16.1396C7.78352 15.9137 7.92094 15.7113 8.12983 15.6191L9.66167 14.9377L9.96034 13.3075C10.0007 13.0852 10.1656 12.9045 10.3854 12.843C10.6053 12.7816 10.8417 12.8467 10.9956 13.0147L12.1262 14.2401L13.7899 14.016C14.0171 13.9853 14.2407 14.0847 14.369 14.2708C14.4972 14.4588 14.5064 14.701 14.3928 14.8962L13.5609 16.3348L14.292 17.8276C14.3909 18.0318 14.3653 18.2722 14.2242 18.4511C14.0831 18.6301 13.8522 18.7132 13.6287 18.6662L11.9832 18.33L10.7702 19.4759C10.6585 19.5825 10.5082 19.6404 10.3561 19.6404Z" fill="#F4B920"/>
</svg>
