<svg width="16" height="16" viewBox="0 0 16 16" fill="none" xmlns="http://www.w3.org/2000/svg">
<g clip-path="url(#clip0)">
<path d="M14.6022 5.60148C15.1244 4.43215 14.9064 3.01258 13.9469 2.05308C12.9874 1.09358 11.5679 0.875667 10.3985 1.39778L9.00073 0L0 9.00073L1.39781 10.3985C0.875635 11.5679 1.09361 12.9874 2.05311 13.9469C3.01261 14.9064 4.43215 15.1244 5.60151 14.6022L6.99932 16.0001L16.0001 6.99936L14.6022 5.60148ZM6.15975 8.83933C5.72383 9.27525 5.01704 9.27525 4.58111 8.83933C4.14519 8.4034 4.14519 7.69661 4.58111 7.26068C5.01704 6.82476 5.72383 6.82476 6.15975 7.26068C6.59571 7.69661 6.59571 8.4034 6.15975 8.83933ZM7.8776 11.771L7.08478 4.33973L8.12236 4.22902L8.91518 11.6603L7.8776 11.771ZM11.4252 8.74564C10.9893 9.18156 10.2825 9.18156 9.84656 8.74564C9.41064 8.30971 9.41064 7.60292 9.84656 7.16699C10.2825 6.73107 10.9893 6.73107 11.4252 7.16699C11.8611 7.60292 11.8611 8.30971 11.4252 8.74564Z" fill="#413C32"/>
</g>
<defs>
<clipPath id="clip0">
<rect width="16" height="16" fill="white"/>
</clipPath>
</defs>
</svg>
