<svg width="21" height="20" viewBox="0 0 21 20" fill="none" xmlns="http://www.w3.org/2000/svg">
<g clip-path="url(#clip0)">
<path d="M9.66675 3.33398H3.83341C3.39139 3.33398 2.96746 3.50958 2.6549 3.82214C2.34234 4.1347 2.16675 4.55862 2.16675 5.00065V16.6673C2.16675 17.1093 2.34234 17.5333 2.6549 17.8458C2.96746 18.1584 3.39139 18.334 3.83341 18.334H15.5001C15.9421 18.334 16.366 18.1584 16.6786 17.8458C16.9912 17.5333 17.1667 17.1093 17.1667 16.6673V10.834" stroke="#413C32" stroke-width="2" stroke-linecap="round" stroke-linejoin="round"/>
<path d="M15.9167 2.08417C16.2483 1.75265 16.6979 1.56641 17.1667 1.56641C17.6356 1.56641 18.0852 1.75265 18.4167 2.08417C18.7483 2.41569 18.9345 2.86533 18.9345 3.33417C18.9345 3.80301 18.7483 4.25265 18.4167 4.58417L10.5001 12.5008L7.16675 13.3342L8.00008 10.0008L15.9167 2.08417Z" stroke="#413C32" stroke-width="2" stroke-linecap="round" stroke-linejoin="round"/>
</g>
<defs>
<clipPath id="clip0">
<rect width="20" height="20" fill="white" transform="translate(0.5)"/>
</clipPath>
</defs>
</svg>
