<svg width="20" height="20" viewBox="0 0 20 20" fill="none" xmlns="http://www.w3.org/2000/svg">
<path d="M3.42553 18.7503L1.71278 10.8337L0.428223 9.58366L1.2846 7.91699H18.8403L19.2684 9.58366L17.9839 10.8337L16.6993 17.917L15.4148 19.5837H4.71009L3.42553 18.7503Z" fill="white"/>
<path d="M19.8727 8.4986C19.5781 7.74393 18.9526 7.34091 18.0159 7.30033C17.9214 7.29763 17.8269 7.29492 17.7324 7.29492H15.5142C11.0778 7.29492 6.64421 7.29492 2.20783 7.30033C1.86871 7.30033 1.55739 7.34091 1.2822 7.41664C0.576157 7.6141 0.064695 8.23893 0.00910133 8.97196C-0.0576111 9.84564 0.242595 10.5192 0.904159 10.9763C1.11264 11.1224 1.21548 11.2792 1.26552 11.5443L1.4462 12.491C1.78532 14.2627 2.13556 16.094 2.52471 17.8873C2.8416 19.3479 3.65049 19.9998 5.14874 19.9998C5.15708 19.9998 5.16541 19.9998 5.17375 19.9998C7.1918 19.989 9.20985 19.9917 11.2307 19.9944C12.4454 19.9944 13.6601 19.9971 14.8748 19.9944C16.2953 19.9917 17.1097 19.3696 17.4322 18.0361C17.6156 17.2787 17.7685 16.5024 17.9186 15.7531L17.977 15.461C18.1827 14.4386 18.3828 13.4134 18.5802 12.3909L18.8192 11.1656C18.8581 11.1386 18.897 11.1142 18.9332 11.0899C19.0444 11.0169 19.1528 10.9465 19.2501 10.8627C19.9116 10.3055 20.1813 9.28843 19.8727 8.4986ZM18.4884 9.29384C18.4801 9.44802 18.3911 9.59408 18.2549 9.67794C18.1215 9.73474 17.9853 9.75638 17.8269 9.77802C17.7351 9.79154 17.6434 9.80507 17.5433 9.82671L17.4544 9.84564L17.0736 11.7661C16.9596 12.3396 16.8484 12.9157 16.7372 13.4891C16.4759 14.8308 16.2063 16.2157 15.9256 17.5762C15.7755 18.3011 15.5837 18.4499 14.772 18.4499C11.5642 18.4499 8.35371 18.4526 5.14596 18.4499C4.39266 18.4499 4.237 18.3282 4.09524 17.6384C3.77001 16.0615 3.45313 14.4521 3.14458 12.8968C3.0056 12.1881 2.86662 11.4821 2.72485 10.7761C2.68594 10.5841 2.64424 10.392 2.59977 10.1973L2.51638 9.82671L2.41909 9.81318C2.37461 9.80777 2.33014 9.80236 2.28288 9.79695C2.08553 9.77531 1.89929 9.75638 1.73528 9.62925C1.51847 9.4345 1.52125 9.1586 1.64911 9.00712C1.76586 8.87999 1.84925 8.84753 2.07997 8.84753C2.13556 8.84753 2.19949 8.85024 2.27454 8.85294C5.99654 8.85024 9.88254 8.85024 13.699 8.85024H18.0353C18.1827 8.85024 18.2077 8.86647 18.3244 8.94761C18.4773 9.05852 18.494 9.20999 18.4884 9.29384Z" fill="#787878"/>
<path d="M4.73454 6.65405C4.73732 6.65405 4.73732 6.65405 4.7401 6.65405C5.12925 6.65134 5.42668 6.36733 5.50173 5.93184C5.52397 5.802 5.54065 5.67217 5.55732 5.54233C5.574 5.40709 5.59346 5.26914 5.6157 5.13389C5.96872 3.10793 7.72548 1.604 9.79634 1.55532C9.83526 1.55532 9.87417 1.55532 9.91031 1.55532C12.0673 1.55532 13.8686 2.91858 14.3133 4.90398C14.355 5.09062 14.3773 5.27996 14.3995 5.48012C14.4134 5.61807 14.4301 5.75602 14.4523 5.89126C14.5274 6.3538 14.8693 6.65946 15.2723 6.64864C15.6837 6.6297 15.9978 6.297 16.0312 5.83717C16.0423 5.67217 16.0395 5.49365 16.0173 5.27455C15.7059 2.32351 13.0653 0.00540979 10.002 0C9.99926 0 9.99648 0 9.9937 0C7.19734 0 4.65393 1.99351 4.07575 4.6389C3.98124 5.06898 3.93955 5.51799 3.95623 5.93725C3.97013 6.36733 4.3704 6.65405 4.73454 6.65405Z" fill="#787878"/>
<path d="M7.12221 11.9071C7.09997 11.4662 6.74695 11.1064 6.33834 11.1064C5.88525 11.1064 5.56558 11.4608 5.56002 11.9693C5.54335 13.3218 5.54613 14.3604 5.56558 15.3369C5.57114 15.583 5.69345 15.8589 5.86579 16.0131C5.98254 16.1186 6.18545 16.1673 6.36335 16.1673C6.43284 16.1673 6.50234 16.1592 6.56071 16.1457C6.91651 16.0591 7.12499 15.767 7.13333 15.345C7.14166 14.9474 7.13888 14.5525 7.13888 14.1549L7.13333 13.5354C7.13333 13.4029 7.13611 13.2704 7.13611 13.1378C7.13888 12.7375 7.14444 12.3182 7.12221 11.9071Z" fill="#FDC400"/>
<path d="M10.1326 11.1068C9.93245 11.1014 9.75455 11.1636 9.61001 11.2934C9.42933 11.4584 9.3237 11.7154 9.31258 12.0183C9.29868 12.3943 9.30146 12.773 9.30424 13.1436C9.30424 13.3086 9.30702 13.4736 9.30702 13.6386C9.30702 13.7981 9.30702 13.9577 9.30424 14.12C9.30146 14.4933 9.29868 14.8774 9.3098 15.2588C9.32648 15.8295 9.62113 16.1947 10.0798 16.2109C10.0881 16.2109 10.0992 16.2109 10.1076 16.2109C10.2966 16.2109 10.4745 16.1433 10.6107 16.0162C10.7914 15.8485 10.8914 15.5942 10.897 15.2967C10.9137 14.1741 10.9137 13.0624 10.8942 11.994C10.8914 11.4882 10.5746 11.123 10.1326 11.1068Z" fill="#FDC400"/>
<path d="M14.4106 11.3521C14.2271 11.1979 13.9102 11.1167 13.6795 11.16C13.3154 11.2276 13.0874 11.5306 13.0847 11.9498C13.0736 12.9615 13.0652 14.1408 13.0847 15.3174C13.093 15.8124 13.4238 16.1938 13.8546 16.2074C13.863 16.2074 13.8741 16.2074 13.8824 16.2074C14.0715 16.2074 14.241 16.1424 14.3744 16.0207C14.5496 15.8584 14.6524 15.6015 14.658 15.2958C14.6663 14.9198 14.6635 14.5411 14.6635 14.1624L14.6608 13.6783C14.6608 13.5214 14.6608 13.3618 14.6635 13.2049C14.6663 12.8073 14.6691 12.3962 14.6524 11.9931C14.6469 11.8849 14.6163 11.5225 14.4106 11.3521Z" fill="#FDC400"/>
</svg>
