<svg width="20" height="20" viewBox="0 0 20 20" fill="none" xmlns="http://www.w3.org/2000/svg">
<g clip-path="url(#clip0)">
<path d="M3.42504 18.7493L1.7123 10.8327L0.427734 9.58268L1.28411 7.91602H18.8398L19.268 9.58268L17.9834 10.8327L16.6988 17.916L15.4143 19.5827H4.7096L3.42504 18.7493Z" fill="white"/>
<path d="M19.8727 8.4986C19.5781 7.74394 18.9526 7.34091 18.0159 7.30033C17.9214 7.29763 17.8269 7.29492 17.7324 7.29492H15.5142C11.0778 7.29492 6.64421 7.29492 2.20783 7.30033C1.86871 7.30033 1.55739 7.34091 1.2822 7.41664C0.576157 7.6141 0.064695 8.23893 0.00910133 8.97196C-0.0576111 9.84564 0.242595 10.5192 0.904159 10.9763C1.11264 11.1224 1.21548 11.2792 1.26552 11.5443L1.4462 12.491C1.78532 14.2627 2.13556 16.094 2.52471 17.8873C2.8416 19.3479 3.65049 19.9998 5.14874 19.9998C5.15708 19.9998 5.16541 19.9998 5.17375 19.9998C7.1918 19.989 9.20985 19.9917 11.2307 19.9944C12.4454 19.9944 13.6601 19.9971 14.8748 19.9944C16.2953 19.9917 17.1097 19.3696 17.4322 18.0361C17.6156 17.2787 17.7685 16.5024 17.9186 15.7531L17.977 15.461C18.1827 14.4386 18.3828 13.4134 18.5802 12.3909L18.8192 11.1656C18.8581 11.1386 18.897 11.1142 18.9332 11.0899C19.0444 11.0169 19.1528 10.9465 19.2501 10.8627C19.9116 10.3055 20.1813 9.28843 19.8727 8.4986ZM18.4884 9.29384C18.4801 9.44802 18.3911 9.59408 18.2549 9.67794C18.1215 9.73474 17.9853 9.75638 17.8269 9.77802C17.7351 9.79154 17.6434 9.80507 17.5433 9.82671L17.4544 9.84564L17.0736 11.7661C16.9596 12.3396 16.8484 12.9157 16.7372 13.4891C16.4759 14.8308 16.2063 16.2157 15.9256 17.5762C15.7755 18.3011 15.5837 18.4499 14.772 18.4499C11.5642 18.4499 8.35371 18.4526 5.14596 18.4499C4.39266 18.4499 4.237 18.3282 4.09524 17.6384C3.77001 16.0615 3.45313 14.4521 3.14458 12.8968C3.0056 12.1881 2.86662 11.4821 2.72485 10.7761C2.68594 10.5841 2.64424 10.392 2.59977 10.1973L2.51638 9.82671L2.41909 9.81318C2.37461 9.80777 2.33014 9.80236 2.28288 9.79695C2.08553 9.77531 1.89929 9.75638 1.73528 9.62925C1.51847 9.4345 1.52125 9.1586 1.64911 9.00712C1.76586 8.87999 1.84925 8.84753 2.07997 8.84753C2.13556 8.84753 2.19949 8.85024 2.27454 8.85294C5.99654 8.85024 9.88254 8.85024 13.699 8.85024H18.0353C18.1827 8.85024 18.2077 8.86647 18.3244 8.94761C18.4773 9.05852 18.494 9.20999 18.4884 9.29384Z" fill="#787878"/>
<path d="M4.73503 6.65405C4.73781 6.65405 4.73781 6.65405 4.74059 6.65405C5.12974 6.65134 5.42717 6.36733 5.50222 5.93184C5.52446 5.802 5.54114 5.67217 5.55781 5.54233C5.57449 5.40709 5.59395 5.26914 5.61619 5.13389C5.96921 3.10793 7.72597 1.604 9.79683 1.55532C9.83575 1.55532 9.87466 1.55532 9.9108 1.55532C12.0678 1.55532 13.8691 2.91858 14.3138 4.90398C14.3555 5.09062 14.3777 5.27996 14.4 5.48012C14.4139 5.61807 14.4306 5.75602 14.4528 5.89126C14.5279 6.3538 14.8698 6.65946 15.2728 6.64864C15.6842 6.6297 15.9983 6.297 16.0317 5.83717C16.0428 5.67217 16.04 5.49365 16.0178 5.27455C15.7064 2.32351 13.0657 0.00540979 10.0025 0C9.99975 0 9.99697 0 9.99419 0C7.19783 0 4.65442 1.99351 4.07624 4.6389C3.98173 5.06898 3.94004 5.51799 3.95672 5.93725C3.97061 6.36733 4.37089 6.65405 4.73503 6.65405Z" fill="#787878"/>
<path d="M7.12196 11.9061C7.09973 11.4652 6.7467 11.1055 6.33809 11.1055C5.885 11.1055 5.56534 11.4598 5.55978 11.9683C5.5431 13.3208 5.54588 14.3595 5.56534 15.3359C5.5709 15.5821 5.6932 15.858 5.86554 16.0122C5.98229 16.1176 6.18521 16.1663 6.36311 16.1663C6.4326 16.1663 6.50209 16.1582 6.56047 16.1447C6.91627 16.0581 7.12474 15.766 7.13308 15.344C7.14142 14.9464 7.13864 14.5515 7.13864 14.1539L7.13308 13.5345C7.13308 13.4019 7.13586 13.2694 7.13586 13.1368C7.13864 12.7365 7.1442 12.3173 7.12196 11.9061Z" fill="#FDC400"/>
<path d="M10.1326 11.1058C9.93245 11.1004 9.75455 11.1626 9.61001 11.2924C9.42933 11.4574 9.3237 11.7144 9.31258 12.0173C9.29868 12.3933 9.30146 12.772 9.30424 13.1426C9.30424 13.3076 9.30702 13.4726 9.30702 13.6376C9.30702 13.7972 9.30702 13.9568 9.30424 14.119C9.30146 14.4923 9.29868 14.8764 9.3098 15.2578C9.32648 15.8285 9.62113 16.1937 10.0798 16.2099C10.0881 16.2099 10.0992 16.2099 10.1076 16.2099C10.2966 16.2099 10.4745 16.1423 10.6107 16.0152C10.7914 15.8475 10.8914 15.5932 10.897 15.2957C10.9137 14.1731 10.9137 13.0614 10.8942 11.993C10.8914 11.4872 10.5746 11.122 10.1326 11.1058Z" fill="#FDC400"/>
<path d="M14.4108 11.3521C14.2274 11.1979 13.9105 11.1167 13.6798 11.16C13.3156 11.2276 13.0877 11.5306 13.0849 11.9498C13.0738 12.9615 13.0655 14.1408 13.0849 15.3174C13.0933 15.8124 13.424 16.1938 13.8549 16.2074C13.8632 16.2074 13.8743 16.2074 13.8827 16.2074C14.0717 16.2074 14.2413 16.1424 14.3747 16.0207C14.5498 15.8584 14.6527 15.6015 14.6582 15.2958C14.6666 14.9198 14.6638 14.5411 14.6638 14.1624L14.661 13.6783C14.661 13.5214 14.661 13.3618 14.6638 13.2049C14.6666 12.8073 14.6693 12.3962 14.6527 11.9931C14.6471 11.8849 14.6165 11.5225 14.4108 11.3521Z" fill="#FDC400"/>
</g>
<defs>
<clipPath id="clip0">
<rect width="20" height="20" fill="white"/>
</clipPath>
</defs>
</svg>
