<svg width="31" height="23" viewBox="0 0 31 23" fill="none" xmlns="http://www.w3.org/2000/svg">
<path d="M29.9438 22.7991H1.03766C0.846532 22.7991 0.66906 22.7025 0.570767 22.5415C0.472475 22.3806 0.464284 22.182 0.551655 22.0157L5.9905 11.6999C6.08333 11.5228 6.27173 11.4102 6.4765 11.4102H24.505C24.7097 11.4102 24.8954 11.5228 24.991 11.6999L30.4298 22.0157C30.5172 22.182 30.5117 22.3806 30.4107 22.5415C30.3097 22.7025 30.1349 22.7991 29.9438 22.7991ZM1.93594 21.7259H29.0455L24.1746 12.4833H6.8096L1.93594 21.7259Z" fill="#F4B920"/>
<path d="M26.563 6.15447C26.563 3.49301 24.3678 1.33594 21.662 1.33594C18.9562 1.33594 16.7583 3.49301 16.7583 6.15447C16.7583 8.22837 18.0934 9.98837 19.961 10.6698L20.9275 18.0774H21.662H22.3965L23.363 10.6698C25.2306 9.98837 26.563 8.22569 26.563 6.15447Z" fill="white"/>
<path d="M22.3942 18.6134H20.9253C20.6495 18.6134 20.4174 18.4122 20.3847 18.1439L19.4591 11.0476C17.5041 10.1971 16.21 8.27075 16.21 6.15393C16.2127 3.20004 18.6563 0.798828 21.6625 0.798828C24.6686 0.798828 27.1122 3.20004 27.1122 6.15393C27.1122 8.27075 25.8208 10.1971 23.8631 11.0476L22.9375 18.1466C22.902 18.4122 22.67 18.6134 22.3942 18.6134ZM21.4085 17.5402H21.9164L22.8201 10.5995C22.8447 10.401 22.9812 10.2346 23.1723 10.1649C24.8761 9.54514 26.0201 7.9327 26.0201 6.15393C26.0174 3.79296 24.0652 1.87199 21.6625 1.87199C19.2598 1.87199 17.3048 3.79296 17.3048 6.15393C17.3048 7.9327 18.4488 9.54514 20.1526 10.1649C20.3437 10.2346 20.4775 10.401 20.5048 10.5995L21.4085 17.5402Z" fill="#F4B920"/>
<path d="M21.6626 9.49709C19.7868 9.49709 18.2578 7.99734 18.2578 6.15418C18.2578 4.31102 19.7841 2.80859 21.6626 2.80859C23.5383 2.80859 25.0646 4.30834 25.0646 6.15418C25.0646 7.99734 23.5383 9.49709 21.6626 9.49709ZM21.6626 3.88176C20.3875 3.88176 19.35 4.90126 19.35 6.15418C19.35 7.4071 20.3875 8.42392 21.6626 8.42392C22.9376 8.42392 23.9724 7.40442 23.9724 6.15418C23.9724 4.90395 22.9349 3.88176 21.6626 3.88176Z" fill="#F4B920"/>
<path d="M13.6106 9.9913C13.6106 8.52643 12.401 7.33789 10.9103 7.33789C9.4195 7.33789 8.20996 8.52643 8.20996 9.9913C8.20996 11.1342 8.94442 12.1028 9.97376 12.4784L10.5062 16.5591H10.9103H11.3144L11.8468 12.4784C12.8761 12.1028 13.6106 11.1315 13.6106 9.9913Z" fill="white"/>
<path d="M11.3147 17.0951H10.5065C10.2308 17.0951 9.99871 16.8939 9.96594 16.6256L9.47448 12.8481C8.37961 12.3142 7.66699 11.2061 7.66699 9.99076C7.66699 8.23077 9.12499 6.80078 10.9134 6.80078C12.7045 6.80078 14.1597 8.23077 14.1597 9.99076C14.1597 11.2061 13.4444 12.3142 12.3523 12.8481L11.8581 16.6256C11.8226 16.8939 11.5905 17.0951 11.3147 17.0951ZM10.9106 7.87126C9.72294 7.87126 8.7564 8.82101 8.7564 9.98808C8.7564 10.8681 9.32158 11.6649 10.1653 11.9708C10.3564 12.0405 10.4902 12.2068 10.5175 12.4054L10.9134 15.4344L11.3093 12.4054C11.3338 12.2068 11.4704 12.0405 11.6615 11.9708C12.5024 11.6649 13.0703 10.8681 13.0703 9.98808C13.0649 8.82101 12.0983 7.87126 10.9106 7.87126Z" fill="#F4B920"/>
<line x1="15.0527" y1="21.748" x2="15.0527" y2="13.0868" stroke="#F4B920" stroke-linecap="round" stroke-linejoin="bevel" stroke-dasharray="1 2"/>
</svg>
