<svg width="20" height="22" viewBox="0 0 20 22" fill="none" xmlns="http://www.w3.org/2000/svg">
<path d="M7.36963 2.79627C7.36963 2.79627 7.35898 0.59375 8.92631 0.59375C10.4936 0.59375 10.4145 2.79627 10.4145 2.79627" fill="#FBFBFB"/>
<path d="M11.023 2.81697L9.80563 2.77542C9.81324 2.52459 9.75542 1.72462 9.39934 1.36841C9.27609 1.24374 9.13 1.18734 8.9261 1.18734C8.72067 1.18734 8.56394 1.24671 8.43307 1.37584C8.05722 1.74391 7.97657 2.5424 7.97809 2.79323L6.76074 2.79916C6.76074 2.64926 6.77596 1.31647 7.57028 0.538757C7.9294 0.185523 8.39807 0 8.9261 0C9.45717 0 9.92432 0.188491 10.2774 0.544694C11.0534 1.32834 11.0275 2.66707 11.023 2.81697Z" fill="#C4C1BA"/>
<mask id="path-3-inside-1" fill="white">
<path d="M17.3092 17.8902L15.2869 14.0091C15.2869 14.0091 15.0754 9.29684 14.8882 8.18222C14.6615 6.83904 14.132 2.62842 9.00083 2.62842C3.63081 2.62842 2.94301 7.14032 2.76954 8.23417C2.58694 9.38144 2.58694 14.0091 2.58694 14.0091L0.690918 17.8902"/>
</mask>
<path d="M17.3092 17.8902L15.2869 14.0091C15.2869 14.0091 15.0754 9.29684 14.8882 8.18222C14.6615 6.83904 14.132 2.62842 9.00083 2.62842C3.63081 2.62842 2.94301 7.14032 2.76954 8.23417C2.58694 9.38144 2.58694 14.0091 2.58694 14.0091L0.690918 17.8902" fill="#FBFBFB"/>
<path d="M15.2869 14.0091L14.2879 14.0539L14.2978 14.275L14.4001 14.4712L15.2869 14.0091ZM14.8882 8.18222L15.8744 8.01662L15.8743 8.01577L14.8882 8.18222ZM2.76954 8.23417L3.75711 8.39135L3.7572 8.3908L2.76954 8.23417ZM2.58694 14.0091L3.48545 14.4481L3.58694 14.2403L3.58694 14.0091L2.58694 14.0091ZM18.1961 17.4281L16.1737 13.547L14.4001 14.4712L16.4224 18.3523L18.1961 17.4281ZM15.2869 14.0091C16.2859 13.9643 16.2859 13.9642 16.2859 13.9642C16.2859 13.9641 16.2859 13.9641 16.2859 13.964C16.2859 13.9638 16.2859 13.9636 16.2859 13.9633C16.2858 13.9627 16.2858 13.9618 16.2857 13.9606C16.2856 13.9583 16.2855 13.9548 16.2853 13.9502C16.2849 13.9411 16.2842 13.9277 16.2834 13.9101C16.2818 13.875 16.2795 13.8235 16.2764 13.7576C16.2702 13.6258 16.2611 13.4365 16.2497 13.2059C16.2269 12.7449 16.1944 12.1181 16.1561 11.4558C16.0813 10.1643 15.9793 8.64092 15.8744 8.01662L13.902 8.34782C13.9844 8.83814 14.0817 10.2282 14.1594 11.5714C14.1974 12.2265 14.2295 12.8475 14.2522 13.3049C14.2635 13.5335 14.2724 13.7211 14.2786 13.8513C14.2816 13.9165 14.284 13.9673 14.2855 14.0017C14.2863 14.0189 14.2869 14.0321 14.2873 14.0409C14.2875 14.0453 14.2877 14.0486 14.2878 14.0508C14.2878 14.0519 14.2879 14.0527 14.2879 14.0532C14.2879 14.0535 14.2879 14.0537 14.2879 14.0538C14.2879 14.0539 14.2879 14.0539 14.2879 14.0539C14.2879 14.0539 14.2879 14.0539 15.2869 14.0091ZM15.8743 8.01577C15.7672 7.38163 15.556 5.77771 14.6194 4.35243C13.6305 2.84773 11.8997 1.62842 9.00083 1.62842V3.62842C11.233 3.62842 12.3326 4.51442 12.948 5.45082C13.6156 6.46665 13.7825 7.63962 13.9022 8.34867L15.8743 8.01577ZM9.00083 1.62842C5.97684 1.62842 4.15727 2.92673 3.11104 4.45661C2.10824 5.92298 1.86947 7.52525 1.78188 8.07753L3.7572 8.3908C3.84308 7.84924 4.03494 6.64864 4.76192 5.58559C5.44546 4.58606 6.65481 3.62842 9.00083 3.62842V1.62842ZM1.78197 8.07698C1.67692 8.73698 1.63218 10.2657 1.60992 11.5343C1.59842 12.1893 1.59268 12.8076 1.58981 13.2618C1.58837 13.489 1.58766 13.6755 1.5873 13.8053C1.58712 13.8702 1.58703 13.9209 1.58698 13.9556C1.58696 13.9729 1.58695 13.9862 1.58694 13.9952C1.58694 13.9997 1.58694 14.0031 1.58694 14.0054C1.58694 14.0066 1.58694 14.0075 1.58694 14.0081C1.58694 14.0084 1.58694 14.0087 1.58694 14.0088C1.58694 14.0089 1.58694 14.009 1.58694 14.009C1.58694 14.0091 1.58694 14.0091 2.58694 14.0091C3.58694 14.0091 3.58694 14.0091 3.58694 14.0091C3.58694 14.0091 3.58694 14.009 3.58694 14.009C3.58694 14.0089 3.58694 14.0087 3.58694 14.0084C3.58694 14.0079 3.58694 14.0071 3.58694 14.0061C3.58694 14.0039 3.58694 14.0007 3.58694 13.9964C3.58695 13.9879 3.58696 13.975 3.58698 13.9582C3.58702 13.9244 3.58711 13.8747 3.58729 13.8108C3.58764 13.683 3.58835 13.499 3.58977 13.2744C3.59261 12.8251 3.59828 12.2147 3.60961 11.5694C3.63299 10.2374 3.67955 8.87863 3.75711 8.39135L1.78197 8.07698ZM1.68842 13.5702L-0.207596 17.4513L1.58943 18.3292L3.48545 14.4481L1.68842 13.5702Z" fill="#C4C1BA" mask="url(#path-3-inside-1)"/>
<path d="M0.689598 18.4838C0.601341 18.4838 0.513083 18.466 0.427869 18.426C0.125054 18.285 -0.00428949 17.9302 0.14027 17.6349L1.97846 13.874C1.97999 13.0859 1.99672 9.22404 2.16715 8.14355C2.96452 3.0914 6.32287 2.03467 8.99951 2.03467C14.4913 2.03467 15.2247 6.49018 15.4667 7.95506L15.488 8.08567C15.6645 9.13053 15.8532 13.074 15.8882 13.8547L17.8511 17.6215C18.0033 17.9139 17.8846 18.2716 17.5849 18.42C17.2851 18.5684 16.9184 18.4512 16.7662 18.1603L14.7439 14.2777C14.7043 14.202 14.6815 14.1189 14.6784 14.0343C14.6769 13.9868 14.4669 9.34425 14.2874 8.27713L14.2645 8.14207C14.0226 6.66976 13.4535 3.22053 8.99951 3.22053C5.79941 3.22053 3.90492 4.93327 3.37233 8.3083L3.36928 8.32314C3.22777 9.22849 3.19581 12.7341 3.19581 14.009C3.19581 14.0981 3.17603 14.1842 3.13647 14.2643L1.24045 18.1454C1.13545 18.3592 0.917851 18.4838 0.689598 18.4838Z" fill="#C4C1BA"/>
<path d="M8.99945 21.274C13.6334 21.274 17.39 19.9556 17.39 18.3294C17.39 16.7031 13.6334 15.3848 8.99945 15.3848C4.36547 15.3848 0.608887 16.7031 0.608887 18.3294C0.608887 19.9556 4.36547 21.274 8.99945 21.274Z" fill="#FBFBFB"/>
<path d="M17.4985 18.3298V18.3301C17.4987 18.7174 17.3088 19.0991 16.8774 19.4764C16.4408 19.8581 15.7903 20.2024 14.97 20.4899C13.3329 21.0638 11.1419 21.3696 8.99924 21.3696C6.85659 21.3696 4.66592 21.0638 3.02904 20.49C2.20888 20.2024 1.55839 19.8581 1.12173 19.4763C0.690155 19.099 0.5 18.7172 0.5 18.3298C0.5 17.9424 0.690133 17.5607 1.12167 17.1835C1.5583 16.8019 2.20878 16.4578 3.02895 16.1704C4.66584 15.5969 6.85653 15.2915 8.99924 15.2915C11.1419 15.2915 13.3326 15.5972 14.9695 16.1709C15.7897 16.4584 16.4402 16.8026 16.8768 17.1842C17.3084 17.5613 17.4985 17.9429 17.4985 18.3298ZM8.99924 15.4788C6.7884 15.4788 4.69448 15.777 3.10605 16.3352C2.31589 16.6125 1.74418 16.9206 1.35972 17.2357C0.992663 17.5366 0.717347 17.9122 0.717347 18.3298C0.717347 18.8232 1.08541 19.2204 1.46769 19.5035C1.88082 19.8093 2.45913 20.0936 3.16322 20.3373C4.57662 20.8266 6.57882 21.1807 8.99924 21.1807C11.2101 21.1807 13.304 20.8826 14.8925 20.3243C15.6832 20.0471 16.2554 19.7391 16.6401 19.4237C17.0078 19.1222 17.2827 18.7463 17.2827 18.3283C17.2827 17.8349 16.914 17.4379 16.5318 17.1553C16.1186 16.8497 15.5402 16.5657 14.8359 16.3221C13.4222 15.833 11.4197 15.4788 8.99924 15.4788Z" fill="#C4C1BA" stroke="#C4C1BA"/>
<path d="M10.0474 16.7094V15.996L8.99985 15.9502L7.95204 15.996V16.7094C7.19424 17.0834 6.67383 17.8478 6.67383 18.7323C6.67383 19.985 7.71466 21.0016 9.00048 21.0016C10.2848 21.0016 11.3271 19.9865 11.3271 18.7323C11.3256 17.8478 10.8052 17.0819 10.0474 16.7094Z" fill="#F4B920"/>
<path d="M2.58691 14.0092C2.58691 14.0092 8.7193 10.8805 15.2869 14.0092Z" fill="#FBFBFB"/>
<path d="M15.0193 14.5422C8.81999 11.5887 2.92803 14.5051 2.86869 14.5348L2.30566 13.4825C2.56739 13.3489 8.78804 10.2514 15.5534 13.475L15.0193 14.5422Z" fill="#C4C1BA"/>
</svg>
