<svg width="25" height="24" viewBox="0 0 25 24" fill="none" xmlns="http://www.w3.org/2000/svg">
<g clip-path="url(#clip0)">
<path d="M22.4413 3.92565L9.59037 3.92565C9.23706 2.8763 8.24453 2.11816 7.07757 2.11816C5.91061 2.11816 4.91808 2.8763 4.56477 3.92565L2.55884 3.92565C2.09286 3.92565 1.71509 4.30342 1.71509 4.7694C1.71509 5.23537 2.09286 5.61314 2.55884 5.61314L4.56483 5.61314C4.91813 6.66249 5.91066 7.42063 7.07763 7.42063C8.24459 7.42063 9.23712 6.66249 9.59043 5.61314L22.4414 5.61314C22.9073 5.61314 23.2851 5.23537 23.2851 4.7694C23.2851 4.30342 22.9073 3.92565 22.4413 3.92565ZM7.07757 5.73313C6.54618 5.73313 6.11384 5.30079 6.11384 4.7694C6.11384 4.238 6.54618 3.80566 7.07757 3.80566C7.60896 3.80566 8.0413 4.238 8.0413 4.7694C8.0413 5.30079 7.60896 5.73313 7.07757 5.73313Z" fill="#413C32"/>
<path d="M22.4413 11.1551L20.4353 11.1551C20.082 10.1058 19.0894 9.34766 17.9225 9.34766C16.7556 9.34766 15.7631 10.1058 15.4098 11.1551L2.55884 11.1551C2.09286 11.1551 1.71509 11.5329 1.71509 11.9989C1.71509 12.4649 2.09286 12.8426 2.55884 12.8426L15.4098 12.8426C15.7631 13.892 16.7557 14.6501 17.9226 14.6501C19.0895 14.6501 20.0821 13.892 20.4354 12.8426L22.4414 12.8426C22.9073 12.8426 23.2851 12.4649 23.2851 11.9989C23.2851 11.5329 22.9073 11.1551 22.4413 11.1551ZM17.9226 12.9626C17.3912 12.9626 16.9588 12.5303 16.9588 11.9989C16.9588 11.4675 17.3912 11.0352 17.9226 11.0352C18.454 11.0352 18.8863 11.4675 18.8863 11.9989C18.8863 12.5303 18.454 12.9626 17.9226 12.9626Z" fill="#413C32"/>
<path d="M22.4413 18.3856L13.2054 18.3856C12.8521 17.3363 11.8596 16.5781 10.6926 16.5781C9.52563 16.5781 8.53309 17.3363 8.17979 18.3856L2.55884 18.3856C2.09286 18.3856 1.71509 18.7634 1.71509 19.2294C1.71509 19.6953 2.09286 20.0731 2.55884 20.0731L8.17979 20.0731C8.53309 21.1224 9.52563 21.8806 10.6926 21.8806C11.8596 21.8806 12.8521 21.1224 13.2054 20.0731L22.4414 20.0731C22.9073 20.0731 23.2851 19.6953 23.2851 19.2294C23.2851 18.7634 22.9073 18.3856 22.4413 18.3856ZM10.6926 20.1931C10.1612 20.1931 9.72886 19.7608 9.72886 19.2294C9.72886 18.698 10.1612 18.2657 10.6926 18.2657C11.224 18.2657 11.6563 18.698 11.6563 19.2294C11.6563 19.7607 11.224 20.1931 10.6926 20.1931Z" fill="#413C32"/>
</g>
<defs>
<clipPath id="clip0">
<rect width="24" height="24" fill="white" transform="translate(24.5) rotate(90)"/>
</clipPath>
</defs>
</svg>
