<svg width="27" height="24" viewBox="0 0 27 24" fill="none" xmlns="http://www.w3.org/2000/svg">
<path d="M11.2368 6.51138L13.942 12.8356L16.6796 6.43555C14.8795 6.73787 13.0431 6.76275 11.2368 6.51138Z" fill="white"/>
<path d="M8.18634 5.81164L2.94336 10.3384L3.27713 3.32617C4.80441 4.4233 6.46178 5.25239 8.18634 5.81164Z" fill="white"/>
<path d="M24.3208 3.19727L24.6607 10.3383L19.3662 5.76706C21.11 5.1864 22.7837 4.33007 24.3208 3.19727Z" fill="white"/>
<path d="M17.8177 5.65665C17.4138 5.75492 17.0016 5.83962 16.5926 5.90829C14.8447 6.2018 13.0671 6.22658 11.3088 5.98183C10.3031 5.84186 9.30676 5.61313 8.34741 5.30205C6.64623 4.75039 5.04324 3.93881 3.5831 2.88996C3.42545 2.77669 3.21923 2.75939 3.04523 2.84468C2.87123 2.93002 2.75722 3.10438 2.74796 3.29941L2.41419 10.3117C2.40403 10.5245 2.52026 10.7231 2.70982 10.8168C2.78378 10.8534 2.8634 10.8713 2.94249 10.8713C3.06612 10.8713 3.18865 10.8276 3.28647 10.7432L8.30794 6.40767C9.14239 6.66316 10.0007 6.86027 10.8675 6.99533L13.456 13.0469C13.5397 13.2425 13.7306 13.3692 13.9417 13.3692C14.1529 13.3692 14.3437 13.2425 14.4274 13.0469L17.0519 6.91127C17.3914 6.84868 17.7312 6.77643 18.0657 6.69504C18.3497 6.62593 18.5245 6.33745 18.456 6.05072C18.3876 5.764 18.1019 5.5875 17.8177 5.65665ZM3.52988 9.12753L3.7598 4.29747C4.82798 4.9843 5.96033 5.5569 7.14279 6.00821L3.52988 9.12753ZM13.9417 11.488L12.0838 7.14459C13.3293 7.25498 14.5799 7.23858 15.8205 7.09562L13.9417 11.488Z" fill="#F4B920"/>
<path d="M26.8323 0.97086C26.6258 0.762318 26.2909 0.762318 26.0841 0.97086C25.44 1.621 24.7415 2.22478 24.0078 2.76555C24.0078 2.7656 24.0077 2.76565 24.0076 2.76571C22.5412 3.84644 20.9234 4.68557 19.1993 5.25972C19.0178 5.32012 18.8828 5.47451 18.8459 5.66367C18.809 5.85282 18.876 6.04742 19.0211 6.17271L24.3156 10.7439C24.4135 10.8283 24.5359 10.872 24.6596 10.872C24.7387 10.872 24.8183 10.8541 24.8923 10.8176C25.0818 10.7238 25.198 10.5252 25.1879 10.3124L24.8615 3.45526C25.5553 2.92715 26.2174 2.34675 26.8323 1.72604C27.0389 1.51755 27.0389 1.1794 26.8323 0.97086ZM20.4019 5.95931C21.6062 5.48973 22.756 4.89497 23.8368 4.18251L24.0723 9.12824L20.4019 5.95931Z" fill="#F4B920"/>
<path d="M11.2368 16.8727L13.942 23.1969L16.6796 16.7969C14.8795 17.0992 13.0431 17.1241 11.2368 16.8727Z" fill="white"/>
<path d="M8.18634 16.173L2.94336 20.6997L3.27713 13.6875C4.80441 14.7846 6.46178 15.6137 8.18634 16.173Z" fill="white"/>
<path d="M24.3208 13.5586L24.6607 20.6996L19.3662 16.1284C21.11 15.5477 22.7837 14.6914 24.3208 13.5586Z" fill="white"/>
<path d="M8.3476 15.6622C6.64642 15.1105 5.04344 14.299 3.58329 13.2501C2.78349 12.6756 2.02671 12.0297 1.33382 11.3302C1.12724 11.1217 0.792248 11.1217 0.585606 11.3302C0.379017 11.5388 0.379017 11.8769 0.585606 12.0855C1.25156 12.7578 1.97364 13.3827 2.7344 13.9475L2.41433 20.6718C2.40417 20.8847 2.5204 21.0832 2.70996 21.177C2.78392 21.2136 2.86354 21.2315 2.94263 21.2315C3.06627 21.2315 3.18879 21.1877 3.28661 21.1033L8.52959 16.5765C8.67529 16.4507 8.74216 16.2552 8.70438 16.0655C8.66666 15.8757 8.53017 15.7214 8.3476 15.6622ZM3.53002 19.4877L3.75994 14.6576C4.82812 15.3444 5.96047 15.917 7.14293 16.3684L3.53002 19.4877Z" fill="#F4B920"/>
<path d="M24.8493 13.5319C24.8399 13.3356 24.7247 13.1604 24.5491 13.0757C24.3736 12.991 24.1661 13.0103 24.0089 13.1261C22.5425 14.2069 20.9247 15.046 19.2006 15.6202C18.3505 15.9032 17.4731 16.1217 16.5928 16.2695C14.845 16.5631 13.0674 16.5878 11.3091 16.3431C10.8405 16.2779 10.3695 16.1926 9.90911 16.0898C9.62369 16.0259 9.34135 16.2078 9.27823 16.4958C9.21512 16.7838 9.39515 17.0689 9.68046 17.1327C10.0715 17.22 10.4696 17.2947 10.8679 17.3568L13.4563 23.4081C13.54 23.6038 13.7309 23.7305 13.942 23.7305C14.1532 23.7305 14.344 23.6038 14.4277 23.4081L17.0523 17.2723C17.7917 17.136 18.5272 16.9531 19.2464 16.7266L24.3169 21.1044C24.4148 21.1889 24.5372 21.2326 24.6609 21.2326C24.74 21.2326 24.8196 21.2147 24.8936 21.1781C25.0831 21.0843 25.1993 20.8858 25.1892 20.6729L24.8493 13.5319ZM13.942 21.8492L12.0841 17.5058C13.3296 17.6161 14.5802 17.5998 15.8208 17.4568L13.942 21.8492ZM20.4032 16.3198C21.6075 15.8502 22.7573 15.2555 23.8382 14.543L24.0736 19.4887L20.4032 16.3198Z" fill="#F4B920"/>
</svg>
