<svg width="24" height="24" viewBox="0 0 24 24" fill="none" xmlns="http://www.w3.org/2000/svg">
<path d="M22.9219 19.9736V13.6593C22.9219 11.7861 21.3979 10.2621 19.5247 10.2621H13.8611V6.34822H12.7031V5.82561C13.4973 5.53728 14.0662 4.77528 14.0662 3.88273C14.0662 3.59778 13.9853 3.08291 13.2858 1.90695C12.9344 1.316 12.5874 0.827422 12.5729 0.806891L12 0.00195312L11.4271 0.806938C11.4125 0.827469 11.0656 1.31605 10.7142 1.907C10.0147 3.083 9.93384 3.59783 9.93384 3.88278C9.93384 4.77533 10.5028 5.53733 11.2969 5.82566V6.34827H10.1389V10.2621H4.4753C2.60208 10.2621 1.07812 11.7861 1.07812 13.6593V19.9736H0V23.9959H24V19.9736H22.9219ZM12 2.49458C12.3789 3.11942 12.6519 3.67986 12.66 3.88381C12.6594 4.24728 12.3636 4.54278 12 4.54278C11.6361 4.54278 11.34 4.24677 11.34 3.88433C11.3476 3.68075 11.6208 3.11989 12 2.49458ZM12.4549 7.75452V10.2621H11.5451V7.75452H12.4549ZM2.48438 13.6594C2.48438 12.5615 3.37748 11.6684 4.4753 11.6684H19.5247C20.6226 11.6684 21.5157 12.5615 21.5157 13.6594V13.8752L21.5147 13.8744L20.5631 14.9047C20.4359 15.0425 20.2625 15.1198 20.075 15.1224C19.888 15.1257 19.712 15.0526 19.5806 14.9181L19.5405 14.877C19.1449 14.4719 18.6158 14.2492 18.05 14.2492C18.048 14.2492 18.046 14.2492 18.0441 14.2492C17.476 14.2507 16.9458 14.4766 16.5514 14.885L16.5047 14.9333C16.3759 15.0666 16.203 15.14 16.0175 15.14C15.8322 15.14 15.6591 15.0666 15.5305 14.9335L15.4947 14.8964C15.097 14.4847 14.5612 14.2602 13.9904 14.2605C13.418 14.2621 12.885 14.4909 12.4894 14.9049L12.4616 14.934C12.3338 15.0678 12.1616 15.1421 11.9767 15.1435C11.7922 15.1442 11.6185 15.0729 11.4888 14.9411L11.473 14.9249C11.078 14.5231 10.5506 14.3021 9.98738 14.3021C9.9855 14.3021 9.98348 14.3021 9.98161 14.3021C9.4162 14.3036 8.88778 14.5277 8.49361 14.9329C8.36489 15.0652 8.19263 15.138 8.00817 15.138C8.00709 15.138 8.00606 15.138 8.00498 15.1379C7.81936 15.1371 7.64653 15.0627 7.51856 14.9288L7.50108 14.9105C7.10414 14.4951 6.56911 14.2662 5.99452 14.2662C5.41992 14.2662 4.88489 14.4951 4.4872 14.9113L4.47558 14.9235C4.34691 15.0582 4.17347 15.1326 3.98719 15.133C3.98672 15.133 3.98625 15.133 3.98573 15.133C3.80002 15.133 3.62686 15.0594 3.49795 14.9255L2.48438 13.8732V13.6594ZM2.48438 15.9001L2.48531 15.9011C2.88178 16.3126 3.41447 16.539 3.98573 16.539C3.98719 16.539 3.98873 16.539 3.99019 16.539C4.56314 16.5379 5.09663 16.3091 5.49319 15.894L5.50481 15.8818C5.63386 15.7467 5.80777 15.6723 5.99456 15.6723C6.18136 15.6723 6.35531 15.7467 6.48403 15.8815L6.50152 15.8998C6.89597 16.3127 7.42767 16.5414 7.9987 16.544C8.00194 16.544 8.00517 16.544 8.00841 16.544C8.57578 16.544 9.10575 16.3203 9.5017 15.9132C9.62986 15.7815 9.80166 15.7086 9.98541 15.7081C9.98606 15.7081 9.98667 15.7081 9.98733 15.7081C10.1704 15.7081 10.3418 15.78 10.4702 15.9105L10.486 15.9267C10.8813 16.3287 11.4082 16.5496 11.9713 16.5495C11.9764 16.5495 11.9816 16.5495 11.9867 16.5495C12.5556 16.5454 13.0854 16.3167 13.4786 15.9051L13.5064 15.876C13.6349 15.7415 13.8082 15.6671 13.9943 15.6666C13.9949 15.6666 13.9955 15.6666 13.9962 15.6666C14.1815 15.6666 14.3545 15.74 14.4831 15.8731L14.5189 15.9102C14.9151 16.3203 15.4473 16.5461 16.0175 16.5461C16.5877 16.5461 17.12 16.3203 17.516 15.9103L17.5627 15.862C17.6909 15.7292 17.8633 15.6557 18.0479 15.6553C18.0486 15.6553 18.0492 15.6553 18.0498 15.6553C18.2338 15.6553 18.4058 15.7277 18.5347 15.8597L18.5749 15.9008C18.9722 16.3076 19.5253 16.5357 20.0946 16.5284C20.6247 16.521 21.1362 16.3081 21.5156 15.9409V19.9735H2.48438V15.9001ZM22.5938 22.5896H1.40625V21.3799H22.5938V22.5896Z" fill="#FDC400"/>
</svg>
