<svg width="11" height="12" viewBox="0 0 11 12" fill="none" xmlns="http://www.w3.org/2000/svg">
<g clip-path="url(#clip0)">
<path d="M4.28571 12C4.28571 12 0.5 11.7215 0.5 8.03165C0.5 5.17722 3 3 3 3C3 3 3.35714 5.52532 4.78571 5.52532C6.21429 5.52532 5.35714 0.5 5.35714 0.5C5.35714 0.5 10.5 2.70288 10.5 7.82279C10.5 12.0696 6.21429 11.9304 6.21429 11.9304C6.21429 11.9304 7.64286 11.6519 7.64286 9.70253C7.64286 7.61392 6.92857 7.82279 6.92857 7.82279C6.92857 7.82279 5.85714 10.0506 4.78571 10.3987C3.64286 9.77215 4.28571 8.65823 4.28571 8.65823C4.28571 8.65823 2.92857 10.0506 4.28571 12Z" fill="#413C32"/>
</g>
<defs>
<clipPath id="clip0">
<rect width="10" height="11.5" fill="white" transform="translate(0.5 0.5)"/>
</clipPath>
</defs>
</svg>
