<svg width="25" height="24" viewBox="0 0 25 24" fill="none" xmlns="http://www.w3.org/2000/svg">
<path d="M17.9512 13.0183L15.3046 15.6649C14.7255 16.244 13.7832 16.244 13.2041 15.6649L8.83509 11.2959C8.25599 10.7168 8.25599 9.7745 8.83509 9.1954L11.4818 6.54877L5.9329 1L3.56886 3.39986C2.23482 4.735 1.5 6.50969 1.5 8.39719C1.5 10.2856 2.23538 12.061 3.57074 13.3964L11.1036 20.9293C12.4389 22.2646 14.2143 23 16.1028 23C17.9903 23 19.765 22.2652 21.1001 20.9311L23.5 18.5671L17.9512 13.0183ZM5.93987 2.85539L9.63325 6.54873L8.70905 7.47294L5.02264 3.78656L5.93987 2.85539ZM12.0278 20.0051L4.49494 12.4721C2.38042 10.3576 2.25612 6.99535 4.12139 4.73373L7.78929 8.40163C6.82439 9.49706 6.86451 11.1737 7.91084 12.2201L12.2799 16.5891C13.3263 17.6354 15.003 17.6756 16.0983 16.7107L19.7662 20.3786C17.5046 22.2439 14.1424 22.1196 12.0278 20.0051ZM20.7134 19.4774L17.027 15.7909L17.9512 14.8667L21.6446 18.5601L20.7134 19.4774Z" fill="#FDC400"/>
</svg>
