<svg width="27" height="25" viewBox="0 0 27 25" fill="none" xmlns="http://www.w3.org/2000/svg">
<path d="M24.697 15.2227H2.5511C1.94307 15.2227 1.4502 14.7855 1.4502 14.2461V14.2422C1.4502 13.7028 1.94307 13.2656 2.5511 13.2656H24.697C25.3051 13.2656 25.7979 13.7028 25.7979 14.2422V14.2461C25.7979 14.7855 25.3051 15.2227 24.697 15.2227Z" fill="white"/>
<path d="M13.645 2.44531H13.603C7.86443 2.44531 3.2124 6.57193 3.2124 11.6624V13.2663H24.0356V11.6624C24.0356 6.57193 19.3836 2.44531 13.645 2.44531Z" fill="white"/>
<path d="M13.6241 2.44531C14.2333 2.44531 14.7272 2.00722 14.7272 1.4668C14.7272 0.926377 14.2333 0.488281 13.6241 0.488281C13.0149 0.488281 12.521 0.926377 12.521 1.4668C12.521 2.00722 13.0149 2.44531 13.6241 2.44531Z" fill="white"/>
<path d="M4.396 22.2223L6.33534 21.0916C6.33534 21.0916 6.25168 19.2021 7.96 18.4533L8.48706 16.1157C8.60414 15.5964 9.11815 15.2227 9.71511 15.2227C10.4834 15.2227 11.0706 15.8307 10.9526 16.5041L10.6914 17.9956L16.3364 15.2227H18.3926C19.128 15.2227 19.3946 16.0829 18.7622 16.4158C16.6672 17.5182 13.4381 19.4897 13.4381 19.4897C12.8107 20.6331 11.8809 21.6838 10.1026 22.2223L6.3354 24.5106L4.396 22.2223Z" fill="white"/>
<path d="M17.1458 11.7344C17.4504 11.7344 17.6973 11.5153 17.6973 11.2451C17.6973 10.9749 17.4504 10.7559 17.1458 10.7559C16.8412 10.7559 16.5942 10.9749 16.5942 11.2451C16.5942 11.5153 16.8412 11.7344 17.1458 11.7344Z" fill="#F4B920"/>
<path d="M24.6952 12.778H24.5876V11.682C24.5876 6.77661 20.4717 2.70859 15.1426 2.05078C15.2302 1.87197 15.2791 1.6749 15.2791 1.46782C15.2791 0.658447 14.5368 0 13.6244 0C12.712 0 11.9697 0.658447 11.9697 1.46782C11.9697 1.6749 12.0186 1.87197 12.1062 2.05078C6.77708 2.70859 2.66125 6.77661 2.66125 11.682V12.778H2.55364C1.64126 12.778 0.898926 13.4365 0.898926 14.2458C0.898926 15.0552 1.64121 15.7137 2.55364 15.7137H8.05357C8.00695 15.8114 7.97051 15.9142 7.94629 16.0215L7.47246 18.1229C6.02203 18.8285 5.80366 20.2168 5.7812 20.8309L4.09314 21.8151C3.83118 21.9678 3.76661 22.2954 3.95519 22.518L5.89454 24.8063C6.06947 25.0127 6.40662 25.062 6.64706 24.916L10.3534 22.6646C12.3855 22.0267 13.3326 20.7671 13.8686 19.8228C14.4674 19.4594 17.2126 17.8017 19.0436 16.8383C19.4945 16.601 19.7268 16.1622 19.6555 15.7136H24.695C25.6074 15.7136 26.3497 15.0552 26.3497 14.2458C26.3497 13.4364 25.6076 12.778 24.6952 12.778ZM13.0729 1.46782C13.0729 1.19805 13.3203 0.978564 13.6244 0.978564C13.9285 0.978564 14.176 1.19805 14.176 1.46782C14.176 1.7376 13.9285 1.95708 13.6244 1.95708C13.3203 1.95708 13.0729 1.7376 13.0729 1.46782ZM3.76435 11.682C3.76435 6.85922 8.18755 2.93559 13.6244 2.93559C18.7337 2.93559 22.9474 6.40083 23.4366 10.8209H19.6364C19.3318 10.8209 19.0849 11.04 19.0849 11.3102C19.0849 11.5804 19.3318 11.7995 19.6364 11.7995H23.4845V12.778H3.76435V11.682ZM18.5587 15.8258C18.5815 15.8999 18.5554 15.9574 18.4809 15.9967C16.3941 17.0948 13.1579 19.0686 13.1254 19.0884C13.047 19.1363 12.9838 19.2014 12.9422 19.2773C12.2279 20.5793 11.2972 21.3453 9.9245 21.7609C9.87716 21.7753 6.4593 23.8441 6.4593 23.8441L5.19013 22.3466L6.63847 21.5021C6.8068 21.4039 6.90142 21.2322 6.8853 21.054C6.88387 21.0381 6.75765 19.4566 8.18155 18.9031C8.34641 18.839 8.4657 18.7075 8.50098 18.5509L9.02798 16.2133C9.09326 15.9238 9.38231 15.7136 9.71522 15.7136C9.92312 15.7136 10.1121 15.7908 10.2474 15.9308C10.3827 16.0709 10.4396 16.2484 10.4077 16.4307C10.4071 16.4339 10.4066 16.4372 10.4061 16.4404L10.1449 18.1598C10.117 18.3434 10.2084 18.5252 10.381 18.6295C10.5536 18.7338 10.7778 18.7427 10.9601 18.6525L16.9026 15.7136H18.3927C18.4798 15.7136 18.5356 15.7514 18.5587 15.8258ZM11.3771 15.7136H14.6373L11.3853 17.3219L11.4987 16.5756C11.5493 16.2803 11.5051 15.9827 11.3771 15.7136ZM24.6952 14.7351H2.55364C2.24951 14.7351 2.00208 14.5156 2.00208 14.2458C2.00208 13.9761 2.24951 13.7566 2.55364 13.7566H24.6951C24.9993 13.7566 25.2467 13.9761 25.2467 14.2458C25.2467 14.5156 24.9993 14.7351 24.6952 14.7351Z" fill="#F4B920"/>
<path d="M9.8306 4.99922C8.1111 5.71152 6.75776 7.02734 6.11753 8.60927C6.01465 8.86362 6.1636 9.14379 6.45028 9.2351C6.51187 9.25468 6.57473 9.26401 6.63661 9.26401C6.86279 9.26401 7.07493 9.13959 7.15579 8.93994C7.69733 7.60175 8.84238 6.48857 10.2974 5.88584C10.5734 5.77148 10.6926 5.48037 10.5637 5.23549C10.4348 4.99062 10.1066 4.88486 9.8306 4.99922Z" fill="#F4B920"/>
</svg>
