<svg width="24" height="29" viewBox="0 0 24 29" fill="none" xmlns="http://www.w3.org/2000/svg">
<path d="M6.11664 6.45571L3.736 3.9751C2.8162 4.84043 0.435558 8.071 0.273241 12.3977C0.143388 15.859 1.95051 18.9934 2.87031 20.1279C4.54758 21.8586 8.11854 25.7238 9.6876 27.3967C11.2567 29.0697 12.3388 28.089 12.988 27.3967L19.3184 20.6471C17.2585 18.3518 12.6093 13.4361 12.6093 13.4361C12.6093 13.4361 11.3649 12.115 10.1746 13.3207C9.30886 14.1975 9.81385 15.3398 10.1746 15.8013L14.6653 20.6471C14.6653 20.6471 13.5933 21.8586 12.6634 22.7816C11.7335 23.7046 10.5533 23.3008 10.0122 22.7816C9.47118 22.2624 9.47119 22.3201 5.7379 18.1665C2.00462 14.0129 4.00653 8.071 6.11664 6.45571Z" fill="#131416"/>
<path d="M11.6979 0.799805C9.33097 0.799805 7.19497 1.60898 6.61768 2.01357L9.33097 4.73009C9.33097 4.73009 13.7184 2.99614 17.7595 7.04203C20.3458 9.63139 20.0687 13.4384 19.6069 15.0182L22.3202 17.7347C22.3202 17.7347 23.7365 15.9991 23.5325 12.4751C23.0707 4.4989 16.8358 0.799805 11.6979 0.799805Z" fill="#131416"/>
</svg>
