<svg width="24" height="24" viewBox="0 0 24 24" fill="none" xmlns="http://www.w3.org/2000/svg">
<path d="M9.55311 12.7781C8.72213 12.7941 7.88888 12.7582 7.05961 12.8049C5.36744 12.8996 3.99978 14.3567 3.97526 16.0499C3.96727 16.6002 3.97412 17.1499 3.97412 17.7117C3.13573 16.9076 2.01445 14.3014 2.07776 11.8725C2.13422 9.71567 2.77471 7.77213 4.06081 6.04758C7.44231 1.51208 14.0194 0.739906 18.3436 4.37036C22.7882 8.10232 22.7968 14.2363 19.9235 17.9215C19.9235 17.2914 19.9309 16.7547 19.9223 16.2187C19.8938 14.5004 18.8455 13.1728 17.1956 12.8557C16.6298 12.7467 16.0327 12.7969 15.4498 12.7832C15.0791 12.7747 14.7078 12.7924 14.3376 12.7787L9.55311 12.7781ZM15.7846 7.80463C15.7789 5.6843 14.0867 3.98085 11.9742 3.97287C9.83314 3.96489 8.10104 5.66948 8.09306 7.79209C8.08507 10.0151 9.97059 11.8155 12.22 11.6524C14.2236 11.5064 15.7903 9.81262 15.7846 7.80463Z" fill="#FBFBFB"/>
<path d="M14.868 13.8643C15.4178 13.8848 15.9688 13.8643 16.5186 13.8722C17.8503 13.8916 18.8011 14.8332 18.8313 16.1642C18.841 16.6022 18.833 17.0402 18.833 17.4782C18.8336 17.9048 18.8125 18.333 18.8404 18.7579C18.8604 19.0687 18.7617 19.2786 18.5244 19.4788C16.3287 21.3316 13.8084 22.1431 10.9459 21.8557C8.77518 21.6373 6.89821 20.7579 5.28075 19.3025C5.11592 19.1543 5.04748 19.0043 5.0509 18.7824C5.06288 17.9065 5.05204 17.0305 5.05661 16.1545C5.06345 14.8982 6.01933 13.9127 7.27976 13.8757C7.87462 13.858 8.47005 13.8797 9.06548 13.866L14.868 13.8643Z" fill="#FBFBFB"/>
<path d="M1 11.99C1.00457 5.89763 5.91684 0.993733 12.0097 1.00001C18.1043 1.00628 23.0029 5.91303 23 12.0094C22.9972 18.1001 18.0843 23.004 11.9909 23C5.89916 22.9954 0.995441 18.083 1 11.99ZM14.3372 12.7787C14.7074 12.793 15.0787 12.7747 15.4494 12.7833C16.0323 12.797 16.6294 12.7474 17.1952 12.8557C18.8451 13.1728 19.894 14.5004 19.9219 16.2187C19.931 16.7553 19.9231 17.292 19.9231 17.9216C22.797 14.2364 22.7878 8.10237 18.3432 4.3704C14.0196 0.739955 7.44248 1.51212 4.06098 6.04762C2.77488 7.77274 2.13439 9.71571 2.07793 11.8725C2.01462 14.3014 3.1359 16.9076 3.97429 17.7117C3.97429 17.15 3.96744 16.5996 3.97543 16.0499C3.99995 14.3567 5.36761 12.9002 7.05978 12.805C7.88848 12.7582 8.7223 12.7941 9.55328 12.7782L14.3372 12.7787ZM9.06507 13.8657C8.47022 13.8794 7.87422 13.8583 7.27936 13.8754C6.01893 13.9125 5.06305 14.8973 5.05621 16.1543C5.05164 17.0302 5.06248 17.9062 5.0505 18.7821C5.04765 19.0045 5.11609 19.154 5.28035 19.3022C6.89781 20.7576 8.7742 21.6376 10.9455 21.8554C13.808 22.1428 16.3283 21.3313 18.524 19.4785C18.7613 19.2783 18.8605 19.0684 18.84 18.7576C18.8126 18.3328 18.8332 17.9045 18.832 17.4779C18.832 17.0399 18.8406 16.6019 18.8303 16.1639C18.8001 14.8329 17.8499 13.8908 16.5176 13.872C15.9672 13.864 15.4163 13.8845 14.8671 13.864" fill="#C4C1BA" stroke="#C4C1BA" stroke-width="0.5"/>
<path d="M15.7848 7.81928C15.7825 9.95329 14.0647 11.6664 11.9299 11.6624C9.81113 11.659 8.08587 9.91851 8.09329 7.7919C8.1007 5.66929 9.83337 3.9647 11.9744 3.97268C14.092 3.98124 15.7871 5.69267 15.7848 7.81928ZM14.7017 7.82954C14.7052 6.29148 13.4881 5.05965 11.9607 5.05566C10.4328 5.05224 9.18604 6.28064 9.17749 7.79875C9.16893 9.31172 10.4163 10.5726 11.9293 10.5806C13.4499 10.5886 14.6977 9.3505 14.7017 7.82954Z" fill="#F4B920" stroke="#F4B920" stroke-width="0.5"/>
</svg>
