<svg width="24" height="24" viewBox="0 0 24 24" fill="none" xmlns="http://www.w3.org/2000/svg">
<path d="M18.279 14.0471L12 22L5.72241 14.0488C4.59565 12.6135 4 10.8881 4 9.05917C4.00005 4.61533 7.5888 1 12 1C16.4113 1 20 4.61533 20 9.05917C20 10.8881 19.4044 12.6136 18.279 14.0471Z" fill="white"/>
<path d="M11.9999 0C6.92142 0 2.7898 4.1316 2.7898 9.21005C2.7898 9.21005 2.78991 9.26211 2.79012 9.28811C2.80698 11.35 3.49184 13.2938 4.77457 14.9157L11.9999 24L19.2266 14.914C20.5242 13.2733 21.21 11.3009 21.21 9.21005C21.21 4.1316 17.0784 0 11.9999 0ZM18.0347 13.9688L11.9999 21.556L5.96648 13.9704C4.88355 12.601 4.31108 10.955 4.31108 9.21005C4.31113 4.97046 7.76028 1.52133 11.9999 1.52133C16.2396 1.52133 19.6887 4.97046 19.6887 9.21005C19.6887 10.955 19.1163 12.6011 18.0347 13.9688Z" fill="#F4B920"/>
<path d="M11.9999 5.29297C9.90271 5.29297 8.19653 6.99913 8.19653 9.09628C8.19653 11.1934 9.90271 12.8996 11.9999 12.8996C14.097 12.8996 15.8032 11.1934 15.8032 9.09628C15.8032 6.99913 14.097 5.29297 11.9999 5.29297ZM11.9999 11.3783C10.7416 11.3783 9.71786 10.3546 9.71786 9.09628C9.71786 7.83799 10.7416 6.81429 11.9999 6.81429C13.2582 6.81429 14.2819 7.83799 14.2819 9.09628C14.2819 10.3546 13.2582 11.3783 11.9999 11.3783Z" fill="#F4B920"/>
</svg>
