<svg width="182" height="36" viewBox="0 0 182 36" fill="none" xmlns="http://www.w3.org/2000/svg">
<path d="M7.63937 7.39889L4.53057 4.15381C3.32944 5.28581 0.220634 9.51197 0.00867017 15.172C-0.160901 19.7 2.19896 23.8004 3.40009 25.2846C5.59038 27.5486 10.2536 32.6049 12.3026 34.7934C14.3515 36.982 15.7646 35.699 16.6125 34.7934L24.8791 25.9638C22.1892 22.961 16.1179 16.5304 16.1179 16.5304C16.1179 16.5304 14.4929 14.8022 12.9385 16.3795C11.808 17.5266 12.4674 19.0208 12.9385 19.6246L18.8028 25.9638C18.8028 25.9638 17.4028 27.5486 16.1886 28.7561C14.9743 29.9635 13.433 29.4353 12.7265 28.7561C12.0199 28.0769 12.0199 28.1523 7.14478 22.7187C2.26962 17.2851 4.88384 9.51197 7.63937 7.39889Z" fill="#F4B920"/>
<path d="M14.9275 0C11.8367 0 9.04733 1.05855 8.29346 1.58782L11.8367 5.14151C11.8367 5.14151 17.5661 2.8732 22.8432 8.16593C26.2206 11.5533 25.8587 16.5335 25.2556 18.6002L28.7988 22.1539C28.7988 22.1539 30.6484 19.8834 30.3819 15.2733C29.7788 4.83907 21.637 0 14.9275 0Z" fill="#F4B920"/>
<path d="M57.0998 19.994V24.0837C57.0998 24.6271 57.0474 25.0637 56.9425 25.3936C56.8376 25.7138 56.6422 26.0049 56.3562 26.2669C56.0798 26.5289 55.7223 26.7812 55.2838 27.0237C54.016 27.7223 52.7958 28.2317 51.6233 28.5519C50.4508 28.8721 49.1735 29.0322 47.7912 29.0322C46.1802 29.0322 44.7122 28.78 43.3872 28.2754C42.0622 27.7708 40.9326 27.0383 39.9984 26.0777C39.0642 25.1171 38.3445 23.9527 37.8392 22.5846C37.3435 21.2165 37.0957 19.6883 37.0957 18C37.0957 16.3408 37.3388 14.8223 37.8249 13.4445C38.3111 12.0667 39.026 10.8975 39.9698 9.93687C40.9135 8.97628 42.0622 8.24371 43.4158 7.73916C44.7694 7.2249 46.3042 6.96777 48.02 6.96777C49.4308 6.96777 50.6796 7.16183 51.7663 7.54995C52.853 7.92836 53.7348 8.40866 54.4116 8.99083C55.0884 9.57301 55.5984 10.1891 55.9416 10.8392C56.2847 11.4893 56.4563 12.0667 56.4563 12.5712C56.4563 13.1146 56.2561 13.5803 55.8558 13.9684C55.4649 14.3468 54.9931 14.5361 54.4402 14.5361C54.1352 14.5361 53.8396 14.4633 53.5537 14.3177C53.2772 14.1722 53.0437 13.9684 52.853 13.7065C52.3287 12.872 51.8855 12.2413 51.5232 11.8144C51.161 11.3875 50.6701 11.0284 50.0505 10.7374C49.4404 10.4463 48.6587 10.3007 47.7054 10.3007C46.7236 10.3007 45.8466 10.4754 45.0745 10.8247C44.3023 11.1643 43.6398 11.664 43.0869 12.3238C42.5436 12.9739 42.1241 13.7744 41.8286 14.7253C41.5426 15.6762 41.3997 16.7289 41.3997 17.8836C41.3997 20.3869 41.9621 22.313 43.0869 23.6617C44.2213 25.0104 45.7989 25.6847 47.8198 25.6847C48.8017 25.6847 49.7216 25.5537 50.5795 25.2918C51.447 25.0298 52.324 24.6562 53.2105 24.1711V20.7071H49.9218C49.1306 20.7071 48.53 20.5858 48.1201 20.3433C47.7197 20.1007 47.5196 19.6883 47.5196 19.1061C47.5196 18.6307 47.6864 18.2377 48.02 17.9272C48.3632 17.6167 48.8255 17.4615 49.407 17.4615H54.2257C54.8167 17.4615 55.3172 17.5149 55.7271 17.6216C56.137 17.7283 56.4659 17.966 56.7137 18.3348C56.9711 18.7035 57.0998 19.2565 57.0998 19.994Z" fill="white"/>
<path d="M74.959 10.6646H65.3931V15.9042H74.2012C74.8494 15.9042 75.3308 16.0546 75.6454 16.3554C75.9695 16.6464 76.1315 17.0346 76.1315 17.5197C76.1315 18.0049 75.9743 18.4027 75.6597 18.7132C75.3451 19.014 74.8589 19.1644 74.2012 19.1644H65.3931V25.2335H75.2879C75.9552 25.2335 76.4556 25.3936 76.7893 25.7138C77.1325 26.0243 77.304 26.4415 77.304 26.9655C77.304 27.4701 77.1325 27.8824 76.7893 28.2026C76.4556 28.5131 75.9552 28.6684 75.2879 28.6684H63.7487C62.8241 28.6684 62.1568 28.4598 61.7469 28.0425C61.3465 27.6253 61.1464 26.951 61.1464 26.0195V9.98053C61.1464 9.35954 61.2369 8.85499 61.418 8.46688C61.5991 8.06906 61.8804 7.78282 62.2617 7.60817C62.6525 7.42381 63.1482 7.33163 63.7487 7.33163H74.959C75.6358 7.33163 76.1363 7.48688 76.4604 7.79737C76.7941 8.09816 76.9609 8.49598 76.9609 8.99083C76.9609 9.49539 76.7941 9.90291 76.4604 10.2134C76.1363 10.5142 75.6358 10.6646 74.959 10.6646Z" fill="white"/>
<path d="M87.7565 25.4519L84.3963 11.858V26.5871C84.3963 27.4021 84.2151 28.0134 83.8529 28.4209C83.5002 28.8285 83.0283 29.0322 82.4373 29.0322C81.8654 29.0322 81.3983 28.8333 81.036 28.4355C80.6738 28.028 80.4927 27.4118 80.4927 26.5871V9.704C80.4927 8.77252 80.731 8.14668 81.2076 7.82648C81.6843 7.49658 82.3277 7.33163 83.138 7.33163H84.4535C85.2447 7.33163 85.8166 7.40441 86.1693 7.54995C86.5316 7.69549 86.7985 7.95747 86.9701 8.33589C87.1416 8.7143 87.3371 9.33044 87.5563 10.1843L90.602 21.8715L93.6476 10.1843C93.8669 9.33044 94.0623 8.7143 94.2339 8.33589C94.4055 7.95747 94.6676 7.69549 95.0203 7.54995C95.3825 7.40441 95.9593 7.33163 96.7505 7.33163H98.066C98.8762 7.33163 99.5197 7.49658 99.9963 7.82648C100.473 8.14668 100.711 8.77252 100.711 9.704V26.5871C100.711 27.4021 100.53 28.0134 100.168 28.4209C99.8152 28.8285 99.3386 29.0322 98.738 29.0322C98.1756 29.0322 97.7133 28.8285 97.351 28.4209C96.9888 28.0134 96.8077 27.4021 96.8077 26.5871V11.858L93.4474 25.4519C93.2282 26.3348 93.0471 26.9849 92.9041 27.4021C92.7706 27.8097 92.518 28.1832 92.1462 28.5228C91.7745 28.8624 91.2597 29.0322 90.602 29.0322C90.1063 29.0322 89.6868 28.9206 89.3437 28.6975C89.0005 28.484 88.7336 28.2075 88.5429 27.8679C88.3523 27.5283 88.1998 27.1547 88.0854 26.7472C87.9805 26.33 87.8709 25.8982 87.7565 25.4519Z" fill="white"/>
<path d="M121.001 22.2644C121.001 23.5549 120.672 24.7144 120.015 25.7429C119.366 26.7714 118.413 27.5768 117.155 28.159C115.897 28.7411 114.405 29.0322 112.679 29.0322C110.611 29.0322 108.904 28.6344 107.56 27.8388C106.607 27.2663 105.83 26.5046 105.23 25.5537C104.639 24.5931 104.343 23.6617 104.343 22.7593C104.343 22.2353 104.52 21.789 104.872 21.4203C105.234 21.0419 105.692 20.8527 106.245 20.8527C106.693 20.8527 107.069 20.9982 107.375 21.2893C107.689 21.5804 107.956 22.0122 108.175 22.5846C108.442 23.2638 108.728 23.8315 109.033 24.2875C109.348 24.7435 109.786 25.122 110.349 25.4227C110.911 25.7138 111.65 25.8594 112.565 25.8594C113.823 25.8594 114.843 25.5634 115.625 24.9716C116.416 24.37 116.812 23.6228 116.812 22.7302C116.812 22.0219 116.597 21.4494 116.168 21.0128C115.749 20.5664 115.201 20.2268 114.524 19.994C113.857 19.7611 112.961 19.5137 111.836 19.2517C110.33 18.8927 109.067 18.4754 108.047 18C107.036 17.5149 106.231 16.8599 105.63 16.0352C105.039 15.2007 104.744 14.1673 104.744 12.9351C104.744 11.761 105.058 10.718 105.687 9.80588C106.316 8.8938 107.227 8.19519 108.418 7.71005C109.61 7.2152 111.011 6.96777 112.622 6.96777C113.909 6.96777 115.02 7.13272 115.954 7.46262C116.898 7.78282 117.679 8.2146 118.299 8.75796C118.918 9.29162 119.371 9.85439 119.657 10.4463C119.943 11.0382 120.086 11.6155 120.086 12.1782C120.086 12.6925 119.905 13.1582 119.543 13.5755C119.19 13.983 118.747 14.1868 118.213 14.1868C117.727 14.1868 117.355 14.0655 117.098 13.8229C116.85 13.5706 116.578 13.1631 116.283 12.6003C115.901 11.795 115.444 11.1691 114.91 10.7228C114.376 10.2668 113.518 10.0387 112.336 10.0387C111.24 10.0387 110.353 10.2862 109.677 10.781C109.009 11.2662 108.676 11.8532 108.676 12.5421C108.676 12.969 108.79 13.3377 109.019 13.6482C109.248 13.9587 109.562 14.2256 109.963 14.4487C110.363 14.6719 110.768 14.8466 111.178 14.9727C111.588 15.0988 112.265 15.2832 113.208 15.5258C114.39 15.8071 115.458 16.1176 116.411 16.4572C117.374 16.7968 118.189 17.2092 118.856 17.6944C119.533 18.1795 120.058 18.7956 120.429 19.5428C120.811 20.2802 121.001 21.1874 121.001 22.2644Z" fill="white"/>
<path d="M132.741 20.3578H128.851V26.3979C128.851 27.2614 128.651 27.9164 128.251 28.3627C127.85 28.8091 127.345 29.0322 126.735 29.0322C126.096 29.0322 125.582 28.8139 125.191 28.3773C124.8 27.9309 124.605 27.2809 124.605 26.427V9.98053C124.605 9.02965 124.819 8.35044 125.248 7.94292C125.677 7.53539 126.359 7.33163 127.293 7.33163H132.741C134.352 7.33163 135.591 7.45777 136.458 7.71005C137.316 7.95262 138.055 8.35529 138.675 8.91806C139.304 9.48083 139.78 10.1697 140.105 10.9848C140.429 11.7998 140.591 12.7168 140.591 13.7356C140.591 15.909 139.933 17.5585 138.617 18.6841C137.302 19.7999 135.343 20.3578 132.741 20.3578ZM131.711 10.5773H128.851V17.0976H131.711C132.712 17.0976 133.546 16.9909 134.213 16.7774C134.89 16.564 135.405 16.2147 135.758 15.7295C136.11 15.2444 136.287 14.6088 136.287 13.8229C136.287 12.8817 136.015 12.1152 135.472 11.5233C134.862 10.8926 133.608 10.5773 131.711 10.5773Z" fill="white"/>
<path d="M153.36 6.96777C155.533 6.96777 157.397 7.41896 158.95 8.32133C160.514 9.214 161.696 10.4899 162.497 12.1491C163.297 13.7986 163.698 15.7392 163.698 17.9709C163.698 19.6204 163.478 21.1195 163.04 22.4682C162.601 23.8169 161.944 24.9861 161.067 25.9758C160.19 26.9655 159.112 27.7223 157.835 28.2463C156.558 28.7703 155.095 29.0322 153.445 29.0322C151.806 29.0322 150.338 28.7654 149.041 28.2317C147.745 27.6884 146.663 26.9267 145.795 25.9467C144.928 24.9667 144.27 23.7878 143.822 22.41C143.384 21.0322 143.165 19.5428 143.165 17.9418C143.165 16.302 143.393 14.798 143.851 13.4299C144.318 12.0618 144.99 10.8975 145.867 9.93687C146.744 8.97628 147.812 8.24371 149.07 7.73916C150.328 7.2249 151.758 6.96777 153.36 6.96777ZM159.394 17.9418C159.394 16.3796 159.146 15.0261 158.65 13.8811C158.154 12.7362 157.444 11.8726 156.52 11.2904C155.604 10.6985 154.551 10.4026 153.36 10.4026C152.511 10.4026 151.725 10.5676 151 10.8975C150.285 11.2177 149.666 11.6882 149.141 12.3092C148.627 12.9302 148.217 13.7259 147.912 14.6962C147.616 15.6567 147.468 16.7386 147.468 17.9418C147.468 19.1547 147.616 20.2511 147.912 21.2311C148.217 22.2111 148.641 23.0261 149.184 23.6762C149.737 24.3166 150.366 24.7969 151.072 25.1171C151.787 25.4373 152.568 25.5974 153.417 25.5974C154.503 25.5974 155.5 25.3209 156.405 24.7678C157.32 24.2147 158.045 23.3609 158.579 22.2062C159.122 21.0516 159.394 19.6301 159.394 17.9418Z" fill="white"/>
<path d="M179.827 10.8975H175.194V26.3979C175.194 27.2906 174.998 27.9552 174.608 28.3918C174.217 28.8188 173.712 29.0322 173.092 29.0322C172.463 29.0322 171.948 28.8139 171.548 28.3773C171.157 27.9407 170.961 27.2809 170.961 26.3979V10.8975H166.329C165.604 10.8975 165.066 10.7374 164.713 10.4172C164.36 10.0873 164.184 9.65548 164.184 9.12182C164.184 8.56876 164.365 8.13212 164.727 7.81193C165.099 7.49173 165.633 7.33163 166.329 7.33163H179.827C180.561 7.33163 181.104 7.49658 181.457 7.82648C181.819 8.15638 182 8.58816 182 9.12182C182 9.65548 181.819 10.0873 181.457 10.4172C181.095 10.7374 180.551 10.8975 179.827 10.8975Z" fill="white"/>
</svg>
