<svg width="141" height="140" viewBox="0 0 141 140" fill="none" xmlns="http://www.w3.org/2000/svg">
<path d="M56.0407 77.9625C44.6251 75.3109 34.9343 76.5625 26.7919 65.3765C19.0919 54.8037 21.2535 45.4685 29.1439 37.4521C49.7603 16.5193 70.2703 43.1417 95.9799 47.4089C118.38 51.1273 124.909 88.1069 105.609 100.984C99.3903 105.136 87.1711 108.958 79.8939 103.364C69.7075 95.5213 71.7319 81.6025 56.0407 77.9625Z" fill="#FFC100"/>
<path opacity="0.9" d="M56.0407 77.9625C44.6251 75.3109 34.9343 76.5625 26.7919 65.3765C19.0919 54.8037 21.2535 45.4685 29.1439 37.4521C49.7603 16.5193 70.2703 43.1417 95.9799 47.4089C118.38 51.1273 124.909 88.1069 105.609 100.984C99.3903 105.136 87.1711 108.958 79.8939 103.364C69.7075 95.5213 71.7319 81.6025 56.0407 77.9625Z" fill="white"/>
<path d="M70.4997 119.716C100.483 119.716 124.789 118.297 124.789 116.547C124.789 114.796 100.483 113.377 70.4997 113.377C40.5166 113.377 16.2105 114.796 16.2105 116.547C16.2105 118.297 40.5166 119.716 70.4997 119.716Z" fill="#F5F5F5"/>
<path d="M100.034 113.766C100.035 114.325 99.8366 114.867 99.4751 115.294C99.1137 115.721 98.6124 116.006 98.0605 116.098C91.2671 117.244 84.3298 117.244 77.5365 116.098C76.9869 116.004 76.4886 115.718 76.1298 115.291C75.771 114.864 75.575 114.324 75.5765 113.766V91.0859H100.046L100.034 113.766Z" fill="#FFC100"/>
<path opacity="0.3" d="M75.5623 91.4941V94.6778C77.0351 95.2238 81.8707 95.6241 87.7983 95.6241C93.7259 95.6241 98.5699 95.2238 100.034 94.6778V91.4941H75.5623Z" fill="black"/>
<path d="M100.493 93.9217C100.493 94.6413 94.9381 95.2237 87.7981 95.2237C80.6581 95.2237 75.1029 94.6413 75.1029 93.9217L74.8705 91.0938H100.74L100.493 93.9217Z" fill="#FFC100"/>
<path d="M87.7981 92.3933C94.9379 92.3933 100.726 91.8116 100.726 91.0941C100.726 90.3766 94.9379 89.7949 87.7981 89.7949C80.6584 89.7949 74.8705 90.3766 74.8705 91.0941C74.8705 91.8116 80.6584 92.3933 87.7981 92.3933Z" fill="#FFC100"/>
<path opacity="0.3" d="M87.7981 92.3933C94.9379 92.3933 100.726 91.8116 100.726 91.0941C100.726 90.3766 94.9379 89.7949 87.7981 89.7949C80.6584 89.7949 74.8705 90.3766 74.8705 91.0941C74.8705 91.8116 80.6584 92.3933 87.7981 92.3933Z" fill="black"/>
<path opacity="0.2" d="M78.8439 112.169C78.5924 112.168 78.3514 112.068 78.1735 111.89C77.9957 111.712 77.8954 111.471 77.8947 111.22V98.2168C77.8954 97.9653 77.9957 97.7243 78.1735 97.5464C78.3514 97.3686 78.5924 97.2683 78.8439 97.2676C79.0952 97.269 79.3358 97.3695 79.5134 97.5472C79.6911 97.7249 79.7916 97.9655 79.7931 98.2168V111.22C79.7916 111.471 79.6911 111.712 79.5134 111.89C79.3358 112.067 79.0952 112.168 78.8439 112.169Z" fill="black"/>
<path opacity="0.2" d="M96.755 112.169C96.5035 112.168 96.2625 112.068 96.0846 111.89C95.9068 111.712 95.8065 111.471 95.8058 111.22V98.2168C95.8065 97.9653 95.9068 97.7243 96.0846 97.5464C96.2625 97.3686 96.5035 97.2683 96.755 97.2676C97.0063 97.269 97.2469 97.3695 97.4245 97.5472C97.6022 97.7249 97.7027 97.9655 97.7042 98.2168V111.22C97.7027 111.471 97.6022 111.712 97.4245 111.89C97.2469 112.067 97.0063 112.168 96.755 112.169Z" fill="black"/>
<path opacity="0.2" d="M90.7826 112.169C90.5313 112.168 90.2908 112.067 90.1131 111.89C89.9354 111.712 89.8349 111.471 89.8334 111.22V98.2168C89.8349 97.9655 89.9354 97.7249 90.1131 97.5472C90.2908 97.3695 90.5313 97.269 90.7826 97.2676C91.0342 97.2683 91.2752 97.3686 91.453 97.5464C91.6309 97.7243 91.7311 97.9653 91.7318 98.2168V111.22C91.7311 111.471 91.6309 111.712 91.453 111.89C91.2752 112.068 91.0342 112.168 90.7826 112.169Z" fill="black"/>
<path opacity="0.2" d="M84.8133 112.169C84.562 112.168 84.3214 112.067 84.1437 111.89C83.966 111.712 83.8655 111.471 83.8641 111.22V98.2168C83.8655 97.9655 83.966 97.7249 84.1437 97.5472C84.3214 97.3695 84.562 97.269 84.8133 97.2676C85.0648 97.2683 85.3058 97.3686 85.4836 97.5464C85.6615 97.7243 85.7617 97.9653 85.7625 98.2168V111.22C85.7617 111.471 85.6615 111.712 85.4836 111.89C85.3058 112.068 85.0648 112.168 84.8133 112.169Z" fill="black"/>
<path d="M54.5067 38.9633C54.5067 39.2202 54.4305 39.4714 54.2877 39.6851C54.145 39.8987 53.9421 40.0652 53.7047 40.1636C53.4673 40.2619 53.206 40.2876 52.954 40.2375C52.702 40.1874 52.4705 40.0636 52.2888 39.8819C52.1071 39.7002 51.9834 39.4687 51.9333 39.2167C51.8831 38.9647 51.9089 38.7035 52.0072 38.4661C52.1055 38.2287 52.272 38.0258 52.4857 37.883C52.6993 37.7403 52.9505 37.6641 53.2075 37.6641C53.5521 37.6641 53.8825 37.8009 54.1262 38.0446C54.3698 38.2882 54.5067 38.6187 54.5067 38.9633Z" fill="#263238"/>
<path d="M52.1631 39.1516C52.1504 39.1519 52.1379 39.1487 52.127 39.1422C52.1161 39.1358 52.1073 39.1264 52.1015 39.1152C52.0156 38.9574 51.9617 38.7843 51.9427 38.6057C51.9238 38.4271 51.9402 38.2465 51.991 38.0743C52.0418 37.902 52.1261 37.7415 52.239 37.6018C52.3519 37.4621 52.4911 37.346 52.6489 37.2602C52.8066 37.1743 52.9797 37.1203 53.1583 37.1014C53.3369 37.0824 53.5175 37.0988 53.6898 37.1497C53.862 37.2005 54.0226 37.2848 54.1623 37.3976C54.3019 37.5105 54.418 37.6498 54.5039 37.8076C54.5121 37.824 54.5138 37.843 54.5086 37.8607C54.5034 37.8783 54.4917 37.8934 54.4759 37.9028C54.4678 37.9072 54.4589 37.91 54.4498 37.911C54.4406 37.912 54.4313 37.9111 54.4225 37.9085C54.4136 37.9059 54.4054 37.9016 54.3982 37.8958C54.391 37.89 54.3851 37.8829 54.3807 37.8748C54.2251 37.5889 53.9623 37.3765 53.6502 37.2843C53.338 37.1921 53.002 37.2278 52.7161 37.3834C52.4302 37.5389 52.2178 37.8017 52.1256 38.1139C52.0335 38.4261 52.0691 38.7621 52.2247 39.048C52.2291 39.056 52.2319 39.0649 52.2329 39.0741C52.2339 39.0833 52.2331 39.0925 52.2305 39.1014C52.2279 39.1102 52.2235 39.1185 52.2178 39.1256C52.212 39.1328 52.2048 39.1388 52.1967 39.1432C52.1863 39.1485 52.1748 39.1514 52.1631 39.1516Z" fill="#263238"/>
<path d="M50.9 44.8995C50.6469 44.8985 50.399 44.8273 50.1839 44.6939C49.9689 44.5605 49.7949 44.3701 49.6815 44.1439C49.5681 43.9176 49.5196 43.6644 49.5414 43.4122C49.5633 43.1601 49.6546 42.9189 49.8052 42.7155C49.9125 42.5717 50.0472 42.4505 50.2014 42.3587C50.3556 42.2669 50.5264 42.2065 50.704 42.1807C50.713 42.1791 50.7223 42.1794 50.7312 42.1815C50.7402 42.1837 50.7486 42.1876 50.7559 42.1931C50.7633 42.1986 50.7694 42.2056 50.774 42.2136C50.7785 42.2215 50.7814 42.2304 50.7824 42.2395C50.7848 42.2577 50.78 42.276 50.769 42.2907C50.758 42.3054 50.7417 42.3151 50.7236 42.3179C50.4017 42.3651 50.1117 42.5382 49.9174 42.7991C49.7231 43.0601 49.6404 43.3876 49.6876 43.7095C49.7347 44.0314 49.9078 44.3214 50.1688 44.5157C50.4298 44.71 50.7573 44.7927 51.0792 44.7455C51.0978 44.7425 51.1167 44.7471 51.132 44.7581C51.1472 44.7691 51.1574 44.7857 51.1604 44.8043C51.1634 44.8229 51.1588 44.8419 51.1478 44.8571C51.1368 44.8723 51.1202 44.8825 51.1016 44.8855C51.0347 44.8943 50.9674 44.899 50.9 44.8995Z" fill="#263238"/>
<path d="M57.959 47.0177C57.6963 47.0173 57.4395 46.9404 57.2198 46.7965C57.2041 46.7861 57.1931 46.7702 57.1889 46.752C57.1848 46.7337 57.1878 46.7146 57.1974 46.6985C57.2081 46.6833 57.2243 46.6728 57.2425 46.6692C57.2607 46.6656 57.2796 46.669 57.2954 46.6789C57.5683 46.856 57.9004 46.9174 58.2186 46.8497C58.5368 46.782 58.8151 46.5906 58.9922 46.3177C59.1693 46.0448 59.2307 45.7127 59.163 45.3945C59.0952 45.0763 58.9039 44.798 58.631 44.6209C58.6153 44.6106 58.6043 44.5946 58.6001 44.5764C58.596 44.5581 58.599 44.539 58.6086 44.5229C58.6193 44.5077 58.6355 44.4972 58.6537 44.4936C58.6719 44.49 58.6908 44.4934 58.7066 44.5033C59.0101 44.7009 59.2229 45.0108 59.2985 45.365C59.3741 45.7192 59.3062 46.089 59.1098 46.3933C59.0128 46.5447 58.8866 46.6752 58.7385 46.7771C58.5904 46.879 58.4234 46.9504 58.2474 46.9869C58.1525 47.0068 58.0559 47.0171 57.959 47.0177Z" fill="#263238"/>
<path d="M52.4791 43.0154C53.4936 43.0154 54.3159 42.193 54.3159 41.1786C54.3159 40.1642 53.4936 39.3418 52.4791 39.3418C51.4647 39.3418 50.6423 40.1642 50.6423 41.1786C50.6423 42.193 51.4647 43.0154 52.4791 43.0154Z" fill="#263238"/>
<path d="M54.203 45.3729C55.1544 44.4216 55.1544 42.8792 54.203 41.9279C53.2517 40.9766 51.7093 40.9766 50.758 41.9279C49.8067 42.8792 49.8067 44.4216 50.758 45.3729C51.7093 46.3242 53.2517 46.3242 54.203 45.3729Z" fill="#263238"/>
<path d="M52.7372 49.4419C54.2248 49.4419 55.4308 48.2359 55.4308 46.7483C55.4308 45.2607 54.2248 44.0547 52.7372 44.0547C51.2496 44.0547 50.0436 45.2607 50.0436 46.7483C50.0436 48.2359 51.2496 49.4419 52.7372 49.4419Z" fill="#263238"/>
<path d="M58.0534 47.5495C58.3951 46.1017 57.4984 44.6509 56.0506 44.3092C54.6027 43.9675 53.152 44.8642 52.8103 46.312C52.4685 47.7599 53.3652 49.2106 54.8131 49.5523C56.2609 49.8941 57.7117 48.9974 58.0534 47.5495Z" fill="#263238"/>
<path d="M64.3651 52.4871C64.3651 52.7055 64.3651 52.9827 64.3847 53.2347C64.4043 53.4867 64.4042 53.7555 64.421 54.0159C64.4574 54.5367 64.4939 55.0631 64.5499 55.5867C64.6507 56.6377 64.7916 57.6839 64.9726 58.7255C65.0202 58.9831 65.0623 59.2463 65.1155 59.5039L65.2387 60.1395C65.2695 60.2403 65.2387 60.2207 65.1995 60.2179C65.1603 60.2151 65.1995 60.2683 65.3647 60.2683C65.7875 60.2259 66.1992 60.1073 66.5799 59.9183C66.8039 59.8175 67.0335 59.7083 67.2631 59.5907C67.4927 59.4731 67.7251 59.3387 67.9351 59.2211L68.7527 60.1647C68.5576 60.3881 68.3501 60.6003 68.1311 60.8003C67.9154 61.0056 67.6873 61.1973 67.4479 61.3743C67.197 61.5631 66.9321 61.7325 66.6555 61.8811C66.3407 62.0529 66.0032 62.1792 65.6531 62.2563C65.4371 62.3034 65.2159 62.3222 64.9951 62.3123C64.7255 62.2967 64.4614 62.2302 64.2167 62.1163C63.9563 61.9941 63.7245 61.8186 63.5363 61.6011C63.3746 61.4121 63.2424 61.1997 63.1442 60.9711C63.0682 60.7962 63.0064 60.6155 62.9595 60.4307L62.8502 60.0219C62.7718 59.7419 62.7074 59.4759 62.6402 59.2015C62.3783 58.1008 62.1764 56.9866 62.0355 55.8639C61.9655 55.3039 61.9094 54.7439 61.8758 54.1699C61.859 53.8899 61.845 53.6099 61.8366 53.3131C61.8282 53.0163 61.8366 52.7531 61.8366 52.4199L64.3651 52.4871Z" fill="#FFB573"/>
<path d="M63.0076 49.4704C65.396 51.2988 65.3008 54.7456 65.3008 54.7456L61.028 55.7675C61.028 55.7675 59.7176 52.3012 60.2496 51.0328C60.804 49.7112 61.6636 48.44 63.0076 49.4704Z" fill="#FFC100"/>
<path opacity="0.7" d="M63.0076 49.4704C65.396 51.2988 65.3008 54.7456 65.3008 54.7456L61.028 55.7675C61.028 55.7675 59.7176 52.3012 60.2496 51.0328C60.804 49.7112 61.6636 48.44 63.0076 49.4704Z" fill="white"/>
<path d="M67.7757 59.5446L68.4813 58.3574L70.2509 60.2502C70.2509 60.2502 68.9825 61.0622 67.6665 60.4826L67.7757 59.5446Z" fill="#FFB573"/>
<path d="M69.352 57.7871L71.6228 59.1255L70.2508 60.2483L68.4812 58.3555L69.352 57.7871Z" fill="#FFB573"/>
<path d="M49.637 114.48L52.0786 114.715L53.5962 108.995L51.1518 108.76L49.637 114.48Z" fill="#FFB573"/>
<path d="M37.1212 109.673L39.3136 110.821L41.9204 105.652L39.728 104.504L37.1212 109.673Z" fill="#FFB573"/>
<path d="M39.899 109.816L37.939 107.825C37.9064 107.79 37.8621 107.769 37.8145 107.764C37.7669 107.76 37.7195 107.774 37.6814 107.803L35.881 109.127C35.8373 109.162 35.8015 109.206 35.7759 109.256C35.7503 109.306 35.7354 109.36 35.7322 109.416C35.7291 109.472 35.7377 109.528 35.7575 109.581C35.7774 109.633 35.808 109.681 35.8474 109.721C36.5418 110.404 36.9114 110.698 37.7738 111.574C38.3058 112.112 39.3978 113.38 40.1314 114.125C40.865 114.87 41.6378 114.184 41.3998 113.809C40.3302 112.129 40.151 111.073 40.0838 110.219C40.0716 110.067 40.0062 109.924 39.899 109.816Z" fill="#263238"/>
<path d="M52.4597 113.973H49.5001C49.4471 113.973 49.3958 113.991 49.3539 114.024C49.3119 114.056 49.2817 114.101 49.2677 114.152L48.6349 116.479C48.6191 116.534 48.6165 116.592 48.6273 116.649C48.6381 116.705 48.6621 116.759 48.6972 116.804C48.7324 116.85 48.7778 116.886 48.8297 116.911C48.8816 116.936 48.9386 116.948 48.9961 116.947C50.0349 116.947 50.5277 116.947 51.8241 116.947H55.7917C56.8697 116.947 57.0965 115.857 56.6485 115.757C54.6493 115.314 53.4957 114.704 52.8797 114.121C52.763 114.021 52.6132 113.969 52.4597 113.973Z" fill="#263238"/>
<path opacity="0.2" d="M53.5937 108.997L52.8125 111.945H50.3065L51.1493 108.762L53.5937 108.997Z" fill="black"/>
<path opacity="0.2" d="M39.7252 104.504L41.9204 105.655L40.5764 108.318L38.3812 107.167L39.7252 104.504Z" fill="black"/>
<path d="M62.2847 49.1175C62.2847 49.1175 63.3655 49.5907 59.7423 63.9267L49.6791 63.0559C50.2027 58.9763 50.4239 56.4507 49.1947 47.8743C50.6293 47.7063 52.0741 47.6417 53.5179 47.6811C55.0485 47.7043 56.5756 47.8362 58.0875 48.0759C59.5033 48.352 60.9041 48.6996 62.2847 49.1175Z" fill="#FFC100"/>
<path opacity="0.7" d="M62.2847 49.1175C62.2847 49.1175 63.3655 49.5907 59.7423 63.9267L49.6791 63.0559C50.2027 58.9763 50.4239 56.4507 49.1947 47.8743C50.6293 47.7063 52.0741 47.6417 53.5179 47.6811C55.0485 47.7043 56.5756 47.8362 58.0875 48.0759C59.5033 48.352 60.9041 48.6996 62.2847 49.1175Z" fill="white"/>
<path d="M53.5185 47.5996C53.5185 47.5996 52.9585 47.5996 52.2725 47.5996C51.8665 48.224 53.5801 50.0468 55.7585 51.8388C56.2849 50.2064 57.1137 50.212 57.1137 50.212L53.5185 47.5996Z" fill="white"/>
<path d="M58.0847 48.0391C58.0847 48.0391 58.3395 48.0755 58.9499 48.2155C59.3531 48.8399 59.5799 50.4023 58.3899 51.7631C57.9223 50.0831 57.1159 50.2343 57.1159 50.2343L58.0847 48.0391Z" fill="white"/>
<path d="M54.4143 42.5723C54.5767 44.0675 54.6299 46.7723 53.5183 47.6795C53.5183 47.6795 54.7055 48.8947 57.1135 50.2331C58.8607 49.0235 58.0879 48.0743 58.0879 48.0743C56.4807 47.5423 56.6291 46.3299 57.0127 45.2099L54.4143 42.5723Z" fill="#FFB573"/>
<path opacity="0.2" d="M55.4753 43.6504L57.0125 45.21C56.9182 45.4692 56.8469 45.7362 56.7997 46.008C56.1837 45.8652 55.2877 45.2212 55.2765 44.5604C55.2872 44.2475 55.3546 43.9392 55.4753 43.6504Z" fill="black"/>
<path d="M60.1876 37.6953C61.218 38.6081 61.5204 40.8313 60.5404 42.3405C60.2461 40.8106 60.1278 39.2521 60.1876 37.6953Z" fill="#263238"/>
<path d="M54.1003 39.4342C53.9211 41.8954 53.7951 42.9342 54.8591 44.3538C56.4607 46.4902 59.5239 46.1682 60.4339 43.8106C61.2543 41.6854 61.4083 38.0174 59.1487 36.7238C58.6522 36.434 58.0896 36.2764 57.5148 36.2662C56.9399 36.2559 56.3721 36.3933 55.8655 36.6653C55.359 36.9372 54.9307 37.3346 54.6216 37.8194C54.3126 38.3042 54.1331 38.8602 54.1003 39.4342Z" fill="#FFB573"/>
<path d="M53.7731 41.4165C55.5931 41.3465 56.6011 38.9665 56.1447 37.9613C58.2083 39.0365 61.3331 39.8821 60.9859 38.4989C60.5183 36.6313 58.2587 35.2621 55.4783 36.2589C53.8683 36.9589 52.4907 38.4989 53.7731 41.4165Z" fill="#263238"/>
<path d="M53.2184 41.4137C53.2961 41.8844 53.5555 42.3056 53.9408 42.5869C54.456 42.9537 54.9264 42.5449 54.9628 41.9485C54.9964 41.4081 54.7696 40.5681 54.1648 40.4393C54.0323 40.413 53.8954 40.4203 53.7665 40.4604C53.6376 40.5006 53.5208 40.5724 53.4267 40.6692C53.3326 40.7661 53.2643 40.885 53.2279 41.015C53.1915 41.145 53.1882 41.2821 53.2184 41.4137Z" fill="#FFB573"/>
<path d="M59.7424 63.926C59.7424 63.926 62.0188 78.78 60.7504 88.3224C59.79 95.5324 53.5936 111.089 53.5936 111.089L49.57 110.98C49.57 110.98 53.7252 95.902 54.5848 89.98C56.0548 79.8384 52.3728 63.2988 52.3728 63.2988L59.7424 63.926Z" fill="#263238"/>
<path opacity="0.2" d="M55.8171 66.9688L53.6695 70.354C54.3162 74.3677 54.7266 78.416 54.8987 82.478C57.9171 77.074 56.5003 69.8275 55.8171 66.9688Z" fill="black"/>
<path d="M54.221 111.313L49.1642 111.176L49.4722 109.549L54.697 109.58L54.221 111.313Z" fill="#FFC100"/>
<path d="M57.5416 63.7664C57.5416 63.7664 55.8616 80.2136 52.0228 89.1624C48.9176 96.3864 41.5144 107.942 41.5144 107.942L38.5576 106.212C38.5576 106.212 43.3176 93.3624 45.6668 88.5464C51.3984 76.7388 46.0672 67.2664 49.6792 63.0664L57.5416 63.7664Z" fill="#263238"/>
<path d="M41.8363 108.194L38.0647 106.125L38.6779 104.512L42.6959 106.78L41.8363 108.194Z" fill="#FFC100"/>
<path d="M49.5784 62.4524L49.0464 63.3148C49.0072 63.3792 49.0828 63.4604 49.2004 63.4688L59.7536 64.3816C59.8432 64.3816 59.9244 64.3508 59.9328 64.2948L60.1036 63.4016C60.1036 63.34 60.0392 63.2812 59.9412 63.2728L49.7492 62.3908C49.7178 62.3861 49.6858 62.3892 49.656 62.4C49.6261 62.4107 49.5995 62.4288 49.5784 62.4524Z" fill="#FFC100"/>
<path d="M50.8498 63.7099L50.5698 63.6875C50.5166 63.6875 50.4774 63.6511 50.483 63.6176L50.7126 62.4584C50.7126 62.422 50.7714 62.3996 50.8246 62.4052L51.1046 62.4276C51.1606 62.4276 51.1998 62.464 51.1914 62.4976L50.9646 63.6567C50.9534 63.6903 50.9002 63.7155 50.8498 63.7099Z" fill="#263238"/>
<path d="M58.9779 64.413L58.6979 64.3906C58.6419 64.3906 58.6027 64.3542 58.6111 64.3206L58.8407 63.1614C58.8407 63.1278 58.8967 63.1026 58.9499 63.1082L59.2299 63.1306C59.2831 63.1306 59.3223 63.167 59.3167 63.2006L59.0871 64.3598C59.0815 64.399 59.0199 64.4186 58.9779 64.413Z" fill="#263238"/>
<path d="M54.9128 64.0623L54.6328 64.0371C54.5796 64.0371 54.5404 64.0007 54.546 63.9671L54.7756 62.8079C54.7756 62.7743 54.8316 62.7491 54.8876 62.7547L55.1676 62.7799C55.2208 62.7799 55.26 62.8163 55.2544 62.8499L55.0248 64.0091C55.0192 64.0427 54.9688 64.0651 54.9128 64.0623Z" fill="#263238"/>
<path d="M57.9561 40.657C57.9281 40.8559 58.0121 41.0323 58.1409 41.0491C58.2697 41.0659 58.3985 40.9202 58.4209 40.7214C58.4433 40.5226 58.3621 40.3462 58.2333 40.3294C58.1045 40.3126 57.9813 40.4582 57.9561 40.657Z" fill="#263238"/>
<path d="M60.2016 40.9598C60.1764 41.1586 60.2604 41.335 60.3892 41.3518C60.518 41.3686 60.6468 41.223 60.6692 41.0242C60.6916 40.8254 60.6132 40.649 60.4844 40.6322C60.3556 40.6154 60.2296 40.761 60.2016 40.9598Z" fill="#263238"/>
<path d="M60.42 40.6353L60.9184 40.5625C60.9184 40.5625 60.6272 40.9013 60.42 40.6353Z" fill="#263238"/>
<path d="M59.32 41.1777C59.4367 41.6545 59.6176 42.1132 59.8576 42.5413C59.7469 42.6002 59.6246 42.6342 59.4993 42.641C59.3741 42.6478 59.2489 42.6271 59.1324 42.5805L59.32 41.1777Z" fill="#ED893E"/>
<path d="M57.9675 43.1758C57.5737 43.0474 57.2434 42.7742 57.0435 42.4114C57.0385 42.3998 57.038 42.3867 57.0422 42.3748C57.0463 42.3629 57.0548 42.353 57.0659 42.347C57.0778 42.3411 57.0915 42.3402 57.1041 42.3444C57.1167 42.3486 57.1271 42.3576 57.1331 42.3694C57.2575 42.5875 57.4316 42.7732 57.6413 42.9114C57.851 43.0496 58.0904 43.1363 58.3399 43.1646C58.3525 43.1646 58.3646 43.1696 58.3736 43.1785C58.3825 43.1874 58.3875 43.1996 58.3875 43.2122C58.3875 43.2248 58.3825 43.2369 58.3736 43.2458C58.3646 43.2548 58.3525 43.2598 58.3399 43.2598C58.213 43.2458 58.0881 43.2176 57.9675 43.1758Z" fill="#263238"/>
<path d="M56.9339 39.5062C56.9176 39.4995 56.9032 39.4889 56.8919 39.4754C56.8827 39.4666 56.8753 39.4559 56.8703 39.4441C56.8653 39.4323 56.8627 39.4196 56.8627 39.4068C56.8627 39.394 56.8653 39.3813 56.8703 39.3696C56.8753 39.3578 56.8827 39.3471 56.8919 39.3382C57.0291 39.2155 57.194 39.128 57.3725 39.0831C57.5511 39.0383 57.7378 39.0374 57.9167 39.0806C57.9289 39.0842 57.9403 39.0901 57.9502 39.0981C57.9601 39.1061 57.9683 39.116 57.9743 39.1272C57.9803 39.1385 57.984 39.1508 57.9852 39.1634C57.9864 39.1761 57.985 39.1889 57.9811 39.201C57.9739 39.2258 57.9573 39.2468 57.9347 39.2594C57.9122 39.272 57.8856 39.2752 57.8607 39.2682C57.7134 39.2355 57.5604 39.2382 57.4144 39.2761C57.2683 39.3141 57.1334 39.3863 57.0207 39.4866C57.0085 39.496 56.9944 39.5026 56.9794 39.5059C56.9645 39.5093 56.9489 39.5094 56.9339 39.5062Z" fill="#263238"/>
<path d="M61.1452 40.1039C61.1305 40.0982 61.1172 40.0897 61.106 40.0787C61.0078 39.9636 60.8839 39.8731 60.7443 39.8147C60.6047 39.7564 60.4533 39.7317 60.3024 39.7428C60.2896 39.7456 60.2764 39.7457 60.2636 39.743C60.2508 39.7404 60.2387 39.735 60.2281 39.7274C60.2175 39.7197 60.2087 39.7099 60.2022 39.6985C60.1957 39.6872 60.1916 39.6746 60.1904 39.6616C60.1863 39.6359 60.1926 39.6098 60.2078 39.5888C60.223 39.5678 60.246 39.5537 60.2716 39.5496C60.4543 39.5331 60.6384 39.5606 60.8084 39.6298C60.9784 39.6989 61.1294 39.8078 61.2488 39.9472C61.2624 39.9633 61.2704 39.9835 61.2716 40.0046C61.2728 40.0257 61.2672 40.0466 61.2555 40.0642C61.2439 40.0819 61.2268 40.0953 61.2069 40.1024C61.187 40.1096 61.1654 40.1101 61.1452 40.1039Z" fill="#263238"/>
<path d="M63.3605 61.2302C63.5418 60.6655 63.8325 60.1419 64.2161 59.6895C64.5998 59.2371 65.0687 58.8646 65.5963 58.5934C66.1238 58.3223 66.6996 58.1576 67.2908 58.109C67.8819 58.0603 68.4769 58.1286 69.0417 58.3099C69.6065 58.4911 70.13 58.7819 70.5825 59.1655C71.0349 59.5491 71.4073 60.0181 71.6785 60.5456C71.9497 61.0732 72.1143 61.649 72.163 62.2401C72.2116 62.8313 72.1434 63.4263 71.9621 63.9911L70.2205 69.4399L61.6189 66.6763L63.3605 61.2302Z" fill="#FFC100"/>
<path opacity="0.3" d="M63.3605 61.2302C63.5418 60.6655 63.8325 60.1419 64.2161 59.6895C64.5998 59.2371 65.0687 58.8646 65.5963 58.5934C66.1238 58.3223 66.6996 58.1576 67.2908 58.109C67.8819 58.0603 68.4769 58.1286 69.0417 58.3099C69.6065 58.4911 70.13 58.7819 70.5825 59.1655C71.0349 59.5491 71.4073 60.0181 71.6785 60.5456C71.9497 61.0732 72.1143 61.649 72.163 62.2401C72.2116 62.8313 72.1434 63.4263 71.9621 63.9911L70.2205 69.4399L61.6189 66.6763L63.3605 61.2302Z" fill="black"/>
<path d="M54.8732 58.5024L53.2996 63.4024C53.2766 63.4728 53.2677 63.5471 53.2736 63.6209C53.2794 63.6947 53.2999 63.7667 53.3337 63.8326C53.3676 63.8985 53.4142 63.957 53.4708 64.0047C53.5274 64.0525 53.593 64.0885 53.6636 64.1108L61.6156 66.6644L63.3628 61.2268C63.7294 60.0872 64.5334 59.1398 65.5982 58.5927C66.6629 58.0457 67.9013 57.9437 69.0412 58.3092L60.5544 55.582C59.4137 55.2173 58.175 55.3199 57.1099 55.8674C56.0449 56.4149 55.2405 57.3625 54.8732 58.5024Z" fill="#FFC100"/>
<path d="M59.1408 62.2176L61.3332 55.394C61.3407 55.3695 61.3429 55.3437 61.3396 55.3183C61.3363 55.2928 61.3276 55.2684 61.3141 55.2467C61.3005 55.2249 61.2825 55.2063 61.2611 55.1921C61.2398 55.1779 61.2157 55.1685 61.1904 55.1644L58.9504 54.834L58.6704 55.7188L60.3028 56.2424L58.4548 61.9936L59.1408 62.2176Z" fill="#263238"/>
<path d="M57.9758 61.8417C57.9252 61.9999 57.9226 62.1694 57.9683 62.3291C58.014 62.4887 58.106 62.6312 58.2326 62.7385C58.3593 62.8459 58.5149 62.9133 58.6798 62.9323C58.8448 62.9513 59.0116 62.9209 59.1594 62.8451C59.3071 62.7693 59.429 62.6514 59.5098 62.5064C59.5905 62.3613 59.6265 62.1955 59.6131 62.0301C59.5997 61.8646 59.5375 61.7068 59.4345 61.5766C59.3315 61.4464 59.1922 61.3496 59.0342 61.2985C58.929 61.2645 58.8182 61.2516 58.708 61.2606C58.5979 61.2695 58.4906 61.3 58.3923 61.3505C58.2939 61.401 58.2065 61.4703 58.1351 61.5546C58.0636 61.6389 58.0095 61.7365 57.9758 61.8417Z" fill="#263238"/>
<path d="M62.0302 67.4783L73.0622 71.0203C73.1023 71.0333 73.1446 71.0383 73.1866 71.035C73.2286 71.0316 73.2695 71.0199 73.307 71.0007C73.3445 70.9814 73.3778 70.9549 73.405 70.9227C73.4322 70.8905 73.4527 70.8533 73.4654 70.8131C73.4789 70.773 73.4842 70.7307 73.481 70.6885C73.4778 70.6464 73.4662 70.6053 73.4469 70.5678C73.4276 70.5302 73.4009 70.4968 73.3685 70.4697C73.3361 70.4426 73.2986 70.4223 73.2582 70.4099L61.6158 66.6719C61.5639 66.8338 61.5783 67.0097 61.656 67.1609C61.7338 67.3121 61.8683 67.4263 62.0302 67.4783Z" fill="#FFC100"/>
<path opacity="0.2" d="M62.0302 67.4783L66.5382 68.9259C66.5785 68.939 66.6209 68.944 66.6631 68.9407C66.7053 68.9373 66.7465 68.9257 66.7842 68.9065C66.8219 68.8872 66.8554 68.8607 66.8829 68.8285C66.9103 68.7963 66.9312 68.759 66.9442 68.7187C66.9698 68.6377 66.9624 68.5499 66.9236 68.4744C66.8848 68.3989 66.8177 68.3418 66.737 68.3155L61.6158 66.6719C61.5639 66.8338 61.5783 67.0097 61.656 67.1609C61.7338 67.3121 61.8683 67.4263 62.0302 67.4783Z" fill="black"/>
<path d="M50.3795 51.8272L50.2255 51.998L50.0519 52.1968C49.9343 52.3312 49.8167 52.4768 49.7047 52.614C49.4751 52.894 49.2567 53.1936 49.0523 53.496C48.2063 54.6935 47.5403 56.0085 47.0755 57.3992C46.9635 57.7464 46.8599 58.0936 46.7787 58.4492C46.7507 58.5528 46.7479 58.5948 46.7339 58.6424C46.7318 58.6834 46.7318 58.7245 46.7339 58.7656C46.7294 58.8093 46.7294 58.8534 46.7339 58.8972C46.7339 58.9476 46.8291 59.0652 47.0587 59.1772C47.3348 59.3013 47.6255 59.3898 47.9239 59.4404C48.6441 59.5549 49.3733 59.6027 50.1023 59.5832C50.8639 59.5832 51.6367 59.516 52.4095 59.4348C53.1823 59.3536 53.9663 59.2528 54.7251 59.138L55.0303 60.3504C53.4675 60.859 51.8595 61.2163 50.2283 61.4172C49.3695 61.5289 48.5012 61.5477 47.6383 61.4732C47.145 61.4269 46.6606 61.3119 46.1991 61.1316C45.9223 61.0206 45.6622 60.8717 45.4263 60.6892C45.1485 60.4713 44.9196 60.1975 44.7543 59.8856C44.4699 59.3003 44.3938 58.6355 44.5387 58.0012C44.6059 57.5728 44.7039 57.1612 44.8187 56.73C45.0385 55.9022 45.3308 55.0955 45.6923 54.3192C46.0548 53.541 46.477 52.7921 46.9551 52.0792C47.1959 51.7236 47.4535 51.3792 47.7223 51.0404C47.8595 50.8724 48.0023 50.7072 48.1423 50.542L48.3691 50.2984C48.4503 50.2116 48.5147 50.1416 48.6267 50.0352L50.3795 51.8272Z" fill="#FFB573"/>
<path d="M54.1146 59.3962L56.0746 58.3574L56.1614 60.463C56.1614 60.463 54.7614 61.0426 53.9606 60.4042L54.1146 59.3962Z" fill="#FFB573"/>
<path d="M57.6898 58.1973L57.3958 60.1377L56.1638 60.4625L56.077 58.3569L57.6898 58.1973Z" fill="#FFB573"/>
<path d="M49.1947 47.8796C47.9599 48.098 46.2323 51.6372 46.2323 51.6372L49.3431 54.4372C49.3431 54.4372 51.8155 51.738 51.6839 50.1308C51.5719 48.7728 50.7655 47.5996 49.1947 47.8796Z" fill="#FFC100"/>
<path opacity="0.7" d="M49.1947 47.8796C47.9599 48.098 46.2323 51.6372 46.2323 51.6372L49.3431 54.4372C49.3431 54.4372 51.8155 51.738 51.6839 50.1308C51.5719 48.7728 50.7655 47.5996 49.1947 47.8796Z" fill="white"/>
<path d="M40.8619 110.896C40.8294 110.9 40.7964 110.9 40.7639 110.896C40.4531 110.879 40.1227 110.403 39.9519 110.123C39.9466 110.115 39.9438 110.106 39.9438 110.097C39.9438 110.087 39.9466 110.078 39.9519 110.07C39.957 110.062 39.9647 110.055 39.9738 110.052C39.9829 110.048 39.9929 110.048 40.0023 110.051C40.1031 110.07 40.9739 110.266 41.0831 110.56C41.0945 110.592 41.0973 110.626 41.0914 110.66C41.0855 110.693 41.0711 110.724 41.0495 110.751C41.0047 110.818 40.9388 110.87 40.8619 110.896ZM40.0975 110.185C40.3467 110.569 40.5931 110.798 40.7695 110.809C40.8097 110.81 40.8494 110.8 40.8847 110.781C40.9201 110.762 40.9498 110.734 40.9711 110.7C40.9832 110.688 40.9915 110.672 40.9949 110.655C40.9984 110.639 40.997 110.621 40.9907 110.605C40.9235 110.426 40.3999 110.258 40.0975 110.185Z" fill="#FFC100"/>
<path d="M40.7726 110.122C40.5144 110.193 40.2435 110.205 39.9802 110.156C39.9719 110.153 39.9645 110.148 39.9586 110.142C39.9527 110.136 39.9486 110.128 39.9466 110.119C39.9427 110.112 39.9406 110.104 39.9406 110.096C39.9406 110.087 39.9427 110.079 39.9466 110.072C39.969 110.052 40.4786 109.554 40.8342 109.579C40.8781 109.58 40.9213 109.591 40.9602 109.611C40.9991 109.632 41.0327 109.661 41.0582 109.697C41.0888 109.729 41.1076 109.771 41.1116 109.816C41.1157 109.861 41.1048 109.905 41.0806 109.943C41.0002 110.035 40.892 110.098 40.7726 110.122ZM40.0978 110.077C40.3778 110.117 40.9014 110.047 41.0106 109.887C41.0274 109.862 41.0414 109.823 40.991 109.758C40.9741 109.734 40.9515 109.713 40.9252 109.699C40.8989 109.685 40.8696 109.678 40.8398 109.677C40.5962 109.66 40.2434 109.946 40.0978 110.077Z" fill="#FFC100"/>
<path d="M53.5041 114.348C53.2333 114.341 52.964 114.307 52.7004 114.244C52.6912 114.241 52.6832 114.235 52.6776 114.227C52.672 114.219 52.6689 114.209 52.6689 114.2C52.6689 114.19 52.672 114.18 52.6776 114.172C52.6832 114.164 52.6912 114.158 52.7004 114.155C52.8208 114.096 53.8933 113.595 54.1621 113.785C54.1863 113.802 54.2056 113.824 54.2179 113.851C54.2302 113.878 54.2351 113.907 54.2321 113.936C54.2308 113.991 54.217 114.045 54.1917 114.093C54.1665 114.142 54.1305 114.184 54.0865 114.216C53.9108 114.32 53.7072 114.366 53.5041 114.348ZM52.8684 114.18C53.1848 114.239 53.7729 114.317 54.0165 114.135C54.0477 114.111 54.0733 114.08 54.0917 114.044C54.11 114.009 54.1206 113.97 54.1229 113.931C54.1253 113.918 54.1239 113.906 54.1189 113.894C54.1139 113.883 54.1055 113.873 54.0949 113.866C53.9437 113.763 53.3108 113.984 52.86 114.18H52.8684Z" fill="#FFC100"/>
<path d="M52.7087 114.239C52.6987 114.242 52.688 114.242 52.6779 114.239C52.6712 114.233 52.6661 114.225 52.6632 114.216C52.6603 114.207 52.6595 114.198 52.6611 114.189C52.6611 114.144 52.9159 113.088 53.5011 113.155C53.6467 113.175 53.6859 113.245 53.6943 113.304C53.7307 113.584 53.0559 114.113 52.7339 114.247L52.7087 114.239ZM53.4423 113.239C53.0727 113.239 52.8571 113.855 52.7843 114.102C53.1343 113.917 53.6243 113.477 53.5935 113.307C53.5935 113.293 53.5935 113.253 53.4843 113.242L53.4423 113.239Z" fill="#FFC100"/>
<path d="M58.18 40.3326L58.6756 40.2598C58.6756 40.2598 58.3816 40.5986 58.18 40.3326Z" fill="#263238"/>
<path d="M75.4087 63.7576L64.5671 65.9976C64.3817 66.0324 64.19 65.9933 64.033 65.8887C63.8761 65.784 63.7663 65.6221 63.7271 65.4376L63.2203 63.0856L63.0383 62.2176L63.3575 61.2264C63.4019 61.0841 63.4552 60.9448 63.5171 60.8092C63.5241 60.7877 63.5335 60.767 63.5451 60.7476C63.7239 60.3397 63.9648 59.9619 64.2591 59.6276L64.8191 59.51L74.1151 57.5808C74.3005 57.546 74.4922 57.585 74.6491 57.6897C74.8061 57.7943 74.9159 57.9562 74.9551 58.1408L75.9435 62.9008C75.984 63.0852 75.9507 63.278 75.8507 63.4382C75.7508 63.5983 75.5921 63.713 75.4087 63.7576Z" fill="#FFC100"/>
<path opacity="0.3" d="M74.871 57.889L69.6406 63.209L68.5206 62.7554L64.1638 60.9886L63.5506 60.7394C63.7295 60.3315 63.9703 59.9537 64.2646 59.6194L64.8246 59.5018L74.1206 57.5726C74.263 57.5442 74.4106 57.5592 74.5444 57.6156C74.6782 57.672 74.792 57.7672 74.871 57.889Z" fill="black"/>
<path d="M74.8707 57.8889L68.5203 62.7637L68.1059 63.0829L64.1159 61.1033L63.5223 60.8233C63.5293 60.8018 63.5387 60.7811 63.5503 60.7617C63.7292 60.3538 63.97 59.976 64.2643 59.6417L64.8243 59.5241L74.1203 57.5949C74.2605 57.5642 74.4066 57.5758 74.5401 57.6281C74.6737 57.6804 74.7887 57.7712 74.8707 57.8889Z" fill="#FFC100"/>
<path opacity="0.2" d="M74.8707 57.8889L68.5203 62.7637L68.1059 63.0829L64.1159 61.1033L63.5223 60.8233C63.5293 60.8018 63.5387 60.7811 63.5503 60.7617C63.7292 60.3538 63.97 59.976 64.2643 59.6417L64.8243 59.5241L74.1203 57.5949C74.2605 57.5642 74.4066 57.5758 74.5401 57.6281C74.6737 57.6804 74.7887 57.7712 74.8707 57.8889Z" fill="white"/>
<path d="M88.6446 73.5779L85.3406 77.1395C85.2102 77.2783 85.0303 77.36 84.8399 77.3669C84.6496 77.3737 84.4642 77.305 84.3242 77.1759L76.221 69.6299C76.0815 69.4999 75.9993 69.3198 75.9925 69.1292C75.9857 68.9386 76.0548 68.7531 76.1846 68.6135L79.4998 65.0519C79.5641 64.982 79.6415 64.9257 79.7277 64.886C79.8138 64.8463 79.907 64.8242 80.0018 64.8208C80.0966 64.8174 80.1912 64.8328 80.2799 64.8663C80.3687 64.8997 80.45 64.9504 80.519 65.0155L88.6194 72.5615C88.7244 72.6592 88.7979 72.786 88.8303 72.9257C88.8627 73.0653 88.8527 73.2115 88.8014 73.3455C88.7664 73.4333 88.7129 73.5125 88.6446 73.5779Z" fill="#FFC100"/>
<path opacity="0.3" d="M88.7899 73.3585L81.4203 72.1573L79.7095 64.8773C79.84 64.8172 79.9855 64.797 80.1275 64.8195C80.2696 64.8419 80.4017 64.9059 80.5075 65.0033L88.6079 72.5493C88.718 72.6489 88.7946 72.7802 88.8272 72.925C88.8598 73.0699 88.8467 73.2213 88.7899 73.3585Z" fill="black"/>
<path d="M88.7899 73.3587L81.6135 71.2195L79.7095 64.9027C79.84 64.8426 79.9855 64.8224 80.1275 64.8448C80.2696 64.8673 80.4017 64.9312 80.5075 65.0287L88.6079 72.5747C88.7129 72.6724 88.7863 72.7992 88.8187 72.9389C88.8512 73.0786 88.8411 73.2248 88.7899 73.3587Z" fill="#FFC100"/>
<path opacity="0.2" d="M88.7899 73.3587L81.6135 71.2195L79.7095 64.9027C79.84 64.8426 79.9855 64.8224 80.1275 64.8448C80.2696 64.8673 80.4017 64.9312 80.5075 65.0287L88.6079 72.5747C88.7129 72.6724 88.7863 72.7992 88.8187 72.9389C88.8512 73.0786 88.8411 73.2248 88.7899 73.3587Z" fill="white"/>
<path d="M91.5253 79.4429L95.1653 83.6933C95.2349 83.7746 95.2871 83.8692 95.3189 83.9714C95.3506 84.0736 95.3612 84.1812 95.3499 84.2876C95.3386 84.394 95.3058 84.497 95.2533 84.5903C95.2009 84.6835 95.13 84.7652 95.045 84.8301L87.1378 90.9901C87.0049 91.0701 86.847 91.0978 86.6948 91.0678C86.5426 91.0378 86.4071 90.9522 86.3146 90.8277L83.4669 87.5797C83.4134 87.5173 83.3691 87.4475 83.3353 87.3725C83.2825 87.2695 83.2604 87.1534 83.2719 87.0382C83.2833 86.923 83.3277 86.8135 83.3998 86.7229L90.3998 79.4121C90.5091 79.2937 90.6534 79.2135 90.8117 79.1833C90.9699 79.1531 91.1337 79.1744 91.2789 79.2441C91.3729 79.2941 91.4566 79.3616 91.5253 79.4429Z" fill="#FFC100"/>
<path opacity="0.3" d="M91.2789 79.2521L89.5401 86.9857L83.3465 87.3805C83.2936 87.2775 83.2716 87.1614 83.283 87.0462C83.2944 86.931 83.3388 86.8215 83.4109 86.7309L90.4109 79.4201C90.5194 79.3042 90.6618 79.2255 90.8177 79.1954C90.9735 79.1652 91.135 79.1851 91.2789 79.2521Z" fill="black"/>
<path d="M91.2793 79.2539L88.3645 87.4607L83.3413 87.3823C83.2884 87.2793 83.2664 87.1633 83.2778 87.0481C83.2892 86.9328 83.3336 86.8234 83.4057 86.7327L90.4057 79.4219C90.5146 79.3048 90.658 79.2254 90.815 79.1952C90.9721 79.165 91.1347 79.1856 91.2793 79.2539Z" fill="#FFC100"/>
<path opacity="0.2" d="M91.2793 79.2539L88.3645 87.4607L83.3413 87.3823C83.2884 87.2793 83.2664 87.1633 83.2778 87.0481C83.2892 86.9328 83.3336 86.8234 83.4057 86.7327L90.4057 79.4219C90.5146 79.3048 90.658 79.2254 90.815 79.1952C90.9721 79.165 91.1347 79.1856 91.2793 79.2539Z" fill="white"/>
</svg>
