<svg width="135" height="160" viewBox="0 0 135 160" fill="none" xmlns="http://www.w3.org/2000/svg">
<path d="M33.9158 32.7898L20.114 18.4083C14.7814 23.4251 0.979528 42.1545 0.0384922 67.2384C-0.714337 87.3055 9.76253 105.477 15.0951 112.055C24.8191 122.089 45.5219 144.497 54.6186 154.196C63.7153 163.895 69.9889 158.209 73.753 154.196L110.453 115.065C98.5114 101.758 71.5573 73.2585 71.5573 73.2585C71.5573 73.2585 64.3427 65.5995 57.4417 72.5896C52.4228 77.6733 55.3505 84.2955 57.4417 86.9711L83.477 115.065C83.477 115.065 77.2619 122.089 71.8709 127.44C66.48 132.791 59.6375 130.45 56.5007 127.44C53.3638 124.43 53.3639 124.764 31.7201 100.684C10.0762 76.6031 21.6824 42.1545 33.9158 32.7898Z" fill="white"/>
<path d="M66.2721 0C52.5498 0 40.1662 4.69123 36.8193 7.03685L52.5498 22.786C52.5498 22.786 77.9862 12.7333 101.415 36.1895C116.409 51.2015 114.802 73.2726 112.125 82.4317L127.855 98.1808C127.855 98.1808 136.067 88.1186 134.884 67.6878C132.206 21.4456 96.0595 0 66.2721 0Z" fill="white"/>
</svg>
