<svg width="141" height="140" viewBox="0 0 141 140" fill="none" xmlns="http://www.w3.org/2000/svg">
<path d="M39.1654 78.0914C17.8182 66.2026 16.3734 22.321 47.5122 26.1766C58.407 27.5262 66.3282 37.4018 76.4698 40.7366C88.1878 44.5754 96.6886 38.2894 107.83 38.9586C134.312 40.549 135.225 73.5386 112.59 82.1066C100.399 86.7238 88.6302 85.8586 76.3858 84.1058C65.7402 82.563 49.2202 83.6858 39.1654 78.0914Z" fill="#FFC100"/>
<path opacity="0.9" d="M39.1654 78.0914C17.8182 66.2026 16.3734 22.321 47.5122 26.1766C58.407 27.5262 66.3282 37.4018 76.4698 40.7366C88.1878 44.5754 96.6886 38.2894 107.83 38.9586C134.312 40.549 135.225 73.5386 112.59 82.1066C100.399 86.7238 88.6302 85.8586 76.3858 84.1058C65.7402 82.563 49.2202 83.6858 39.1654 78.0914Z" fill="#FAFAFA"/>
<path d="M70.5001 119.718C100.483 119.718 124.789 118.299 124.789 116.548C124.789 114.798 100.483 113.379 70.5001 113.379C40.517 113.379 16.2109 114.798 16.2109 116.548C16.2109 118.299 40.517 119.718 70.5001 119.718Z" fill="#F5F5F5"/>
<path d="M51.0261 76.2847C50.8601 76.2738 50.7045 76.2002 50.5908 76.0788C50.477 75.9574 50.4137 75.7972 50.4137 75.6309C50.4137 75.4645 50.477 75.3044 50.5908 75.183C50.7045 75.0616 50.8601 74.9879 51.0261 74.9771C52.6277 74.9771 53.9773 72.6839 53.9773 69.9679C53.9882 69.8019 54.0618 69.6462 54.1832 69.5325C54.3046 69.4188 54.4648 69.3555 54.6311 69.3555C54.7975 69.3555 54.9576 69.4188 55.079 69.5325C55.2005 69.6462 55.2741 69.8019 55.2849 69.9679C55.2849 73.5099 53.4201 76.2847 51.0261 76.2847Z" fill="#FFC100"/>
<path d="M60.9073 76.2847C60.7413 76.2738 60.5856 76.2002 60.4719 76.0788C60.3582 75.9574 60.2949 75.7972 60.2949 75.6309C60.2949 75.4645 60.3582 75.3044 60.4719 75.183C60.5856 75.0616 60.7413 74.9879 60.9073 74.9771C62.5089 74.9771 63.8585 72.6839 63.8585 69.9679C63.8694 69.8019 63.943 69.6462 64.0644 69.5325C64.1858 69.4188 64.3459 69.3555 64.5123 69.3555C64.6787 69.3555 64.8388 69.4188 64.9602 69.5325C65.0816 69.6462 65.1552 69.8019 65.1661 69.9679C65.1801 73.5099 63.2957 76.2847 60.9073 76.2847Z" fill="#FFC100"/>
<path d="M70.7799 76.2817C70.6139 76.2708 70.4582 76.1972 70.3445 76.0758C70.2308 75.9544 70.1675 75.7943 70.1675 75.6279C70.1675 75.4615 70.2308 75.3014 70.3445 75.18C70.4582 75.0586 70.6139 74.985 70.7799 74.9741C72.3787 74.9741 73.7311 72.6809 73.7311 69.9649C73.7311 69.7919 73.7998 69.6259 73.9222 69.5036C74.0445 69.3812 74.2105 69.3125 74.3835 69.3125C74.5565 69.3125 74.7225 69.3812 74.8448 69.5036C74.9672 69.6259 75.0359 69.7919 75.0359 69.9649C75.0443 73.5069 73.1767 76.2817 70.7799 76.2817Z" fill="#FFC100"/>
<path d="M80.6696 76.2817C80.5801 76.2875 80.4904 76.275 80.406 76.2448C80.3216 76.2146 80.2443 76.1674 80.1788 76.1061C80.1134 76.0448 80.0613 75.9707 80.0256 75.8885C79.99 75.8062 79.9716 75.7175 79.9716 75.6279C79.9716 75.5382 79.99 75.4496 80.0256 75.3673C80.0613 75.285 80.1134 75.211 80.1788 75.1497C80.2443 75.0884 80.3216 75.0412 80.406 75.011C80.4904 74.9808 80.5801 74.9682 80.6696 74.9741C82.2684 74.9741 83.6208 72.6809 83.6208 69.9649C83.6208 69.7919 83.6895 69.6259 83.8118 69.5036C83.9342 69.3812 84.1001 69.3125 84.2732 69.3125C84.4462 69.3125 84.6121 69.3812 84.7345 69.5036C84.8568 69.6259 84.9256 69.7919 84.9256 69.9649C84.9256 73.5069 83.0552 76.2817 80.6696 76.2817Z" fill="#FFC100"/>
<path d="M90.5479 76.2847C90.3819 76.2738 90.2262 76.2002 90.1125 76.0788C89.9988 75.9574 89.9355 75.7972 89.9355 75.6309C89.9355 75.4645 89.9988 75.3044 90.1125 75.183C90.2262 75.0616 90.3819 74.9879 90.5479 74.9771C92.1495 74.9771 93.4991 72.6839 93.4991 69.9679C93.5099 69.8019 93.5835 69.6462 93.705 69.5325C93.8264 69.4188 93.9865 69.3555 94.1529 69.3555C94.3192 69.3555 94.4794 69.4188 94.6008 69.5325C94.7222 69.6462 94.7958 69.8019 94.8067 69.9679C94.8067 73.5099 92.9363 76.2847 90.5479 76.2847Z" fill="#FFC100"/>
<path d="M100.429 76.2847C100.263 76.2738 100.108 76.2002 99.994 76.0788C99.8803 75.9574 99.817 75.7972 99.817 75.6309C99.817 75.4645 99.8803 75.3044 99.994 75.183C100.108 75.0616 100.263 74.9879 100.429 74.9771C102.028 74.9771 103.381 72.6839 103.381 69.9679C103.391 69.8019 103.465 69.6462 103.586 69.5325C103.708 69.4188 103.868 69.3555 104.034 69.3555C104.201 69.3555 104.361 69.4188 104.482 69.5325C104.604 69.6462 104.677 69.8019 104.688 69.9679C104.688 73.5099 102.818 76.2847 100.429 76.2847Z" fill="#FFC100"/>
<g opacity="0.3">
<path opacity="0.3" d="M51.0261 76.2807C50.8601 76.2699 50.7045 76.1963 50.5908 76.0748C50.477 75.9534 50.4137 75.7933 50.4137 75.6269C50.4137 75.4606 50.477 75.3005 50.5908 75.179C50.7045 75.0576 50.8601 74.984 51.0261 74.9731C52.6277 74.9731 53.9773 72.68 53.9773 69.964C53.9882 69.798 54.0618 69.6423 54.1832 69.5286C54.3046 69.4148 54.4648 69.3516 54.6311 69.3516C54.7975 69.3516 54.9576 69.4148 55.079 69.5286C55.2005 69.6423 55.2741 69.798 55.2849 69.964C55.2849 73.506 53.4201 76.2807 51.0261 76.2807Z" fill="black"/>
<path opacity="0.3" d="M60.9073 76.2807C60.7413 76.2699 60.5856 76.1963 60.4719 76.0748C60.3582 75.9534 60.2949 75.7933 60.2949 75.6269C60.2949 75.4606 60.3582 75.3005 60.4719 75.179C60.5856 75.0576 60.7413 74.984 60.9073 74.9731C62.5089 74.9731 63.8585 72.68 63.8585 69.964C63.8694 69.798 63.943 69.6423 64.0644 69.5286C64.1858 69.4148 64.3459 69.3516 64.5123 69.3516C64.6787 69.3516 64.8388 69.4148 64.9602 69.5286C65.0816 69.6423 65.1552 69.798 65.1661 69.964C65.1801 73.506 63.2957 76.2807 60.9073 76.2807Z" fill="black"/>
<path opacity="0.3" d="M70.7803 76.2817C70.6143 76.2708 70.4586 76.1972 70.3449 76.0758C70.2311 75.9544 70.1679 75.7943 70.1679 75.6279C70.1679 75.4615 70.2311 75.3014 70.3449 75.18C70.4586 75.0586 70.6143 74.985 70.7803 74.9741C72.3791 74.9741 73.7315 72.6809 73.7315 69.9649C73.7315 69.7919 73.8002 69.6259 73.9225 69.5036C74.0449 69.3812 74.2108 69.3125 74.3839 69.3125C74.5569 69.3125 74.7228 69.3812 74.8452 69.5036C74.9675 69.6259 75.0363 69.7919 75.0363 69.9649C75.0447 73.5069 73.1771 76.2817 70.7803 76.2817Z" fill="black"/>
<path opacity="0.3" d="M80.6696 76.2817C80.5801 76.2875 80.4904 76.275 80.406 76.2448C80.3216 76.2146 80.2443 76.1674 80.1788 76.1061C80.1134 76.0448 80.0613 75.9707 80.0256 75.8885C79.99 75.8062 79.9716 75.7175 79.9716 75.6279C79.9716 75.5382 79.99 75.4496 80.0256 75.3673C80.0613 75.285 80.1134 75.211 80.1788 75.1497C80.2443 75.0884 80.3216 75.0412 80.406 75.011C80.4904 74.9808 80.5801 74.9682 80.6696 74.9741C82.2684 74.9741 83.6208 72.6809 83.6208 69.9649C83.6208 69.7919 83.6895 69.6259 83.8118 69.5036C83.9342 69.3812 84.1001 69.3125 84.2732 69.3125C84.4462 69.3125 84.6121 69.3812 84.7345 69.5036C84.8568 69.6259 84.9256 69.7919 84.9256 69.9649C84.9256 73.5069 83.0552 76.2817 80.6696 76.2817Z" fill="black"/>
<path opacity="0.3" d="M90.5482 76.2807C90.3822 76.2699 90.2266 76.1963 90.1128 76.0748C89.9991 75.9534 89.9358 75.7933 89.9358 75.6269C89.9358 75.4606 89.9991 75.3005 90.1128 75.179C90.2266 75.0576 90.3822 74.984 90.5482 74.9731C92.1498 74.9731 93.4994 72.68 93.4994 69.964C93.5103 69.798 93.5839 69.6423 93.7053 69.5286C93.8267 69.4148 93.9869 69.3516 94.1532 69.3516C94.3196 69.3516 94.4797 69.4148 94.6011 69.5286C94.7225 69.6423 94.7961 69.798 94.807 69.964C94.807 73.506 92.9366 76.2807 90.5482 76.2807Z" fill="black"/>
<path opacity="0.3" d="M100.429 76.2807C100.263 76.2699 100.108 76.1963 99.994 76.0748C99.8803 75.9534 99.817 75.7933 99.817 75.6269C99.817 75.4606 99.8803 75.3005 99.994 75.179C100.108 75.0576 100.263 74.984 100.429 74.9731C102.028 74.9731 103.381 72.68 103.381 69.964C103.391 69.798 103.465 69.6423 103.586 69.5286C103.708 69.4148 103.868 69.3516 104.034 69.3516C104.201 69.3516 104.361 69.4148 104.482 69.5286C104.604 69.6423 104.677 69.798 104.688 69.964C104.688 73.506 102.818 76.2807 100.429 76.2807Z" fill="black"/>
</g>
<path d="M44.835 70.6371H108.445C109.298 70.6541 110.116 70.9819 110.744 71.5587C111.373 72.1356 111.769 72.922 111.859 73.7703L115.381 113.483C115.424 113.881 115.382 114.284 115.257 114.665C115.133 115.046 114.929 115.396 114.659 115.692C114.389 115.989 114.059 116.224 113.691 116.383C113.323 116.542 112.926 116.622 112.525 116.616H48.9118C48.0593 116.598 47.2427 116.269 46.6145 115.693C45.9863 115.116 45.5896 114.331 45.4987 113.483L41.979 73.7703C41.9357 73.3717 41.9777 72.9685 42.102 72.5874C42.2264 72.2062 42.4304 71.8559 42.7005 71.5596C42.9706 71.2633 43.3005 71.0278 43.6686 70.8688C44.0366 70.7097 44.4342 70.6308 44.835 70.6371Z" fill="#FFC100"/>
<path opacity="0.4" d="M44.835 70.6371H108.445C109.298 70.6541 110.116 70.9819 110.744 71.5587C111.373 72.1356 111.769 72.922 111.859 73.7703L115.381 113.483C115.424 113.881 115.382 114.284 115.257 114.665C115.133 115.046 114.929 115.396 114.659 115.692C114.389 115.989 114.059 116.224 113.691 116.383C113.323 116.542 112.926 116.622 112.525 116.616H48.9118C48.0593 116.598 47.2427 116.269 46.6145 115.693C45.9863 115.116 45.5896 114.331 45.4987 113.483L41.979 73.7703C41.9357 73.3717 41.9777 72.9685 42.102 72.5874C42.2264 72.2062 42.4304 71.8559 42.7005 71.5596C42.9706 71.2633 43.3005 71.0278 43.6686 70.8688C44.0366 70.7097 44.4342 70.6308 44.835 70.6371Z" fill="#FAFAFA"/>
<path d="M107.916 70.6368H44.3032C43.4618 70.6468 42.6556 70.9758 42.0475 71.5575C41.4393 72.1391 41.0747 72.9298 41.0272 73.77L39.2352 113.482C39.2139 113.887 39.2753 114.292 39.4159 114.672C39.5564 115.052 39.773 115.399 40.0524 115.692C40.3319 115.986 40.6682 116.219 41.041 116.377C41.4137 116.536 41.8149 116.617 42.22 116.616H105.839C106.68 116.606 107.486 116.277 108.095 115.695C108.703 115.113 109.067 114.323 109.115 113.482L110.91 73.77C110.931 73.3648 110.869 72.9596 110.727 72.5792C110.586 72.1989 110.369 71.8514 110.089 71.558C109.808 71.2646 109.471 71.0316 109.098 70.8732C108.724 70.7148 108.322 70.6343 107.916 70.6368Z" fill="#FFC100"/>
<path opacity="0.2" d="M107.916 70.6368H44.3032C43.4618 70.6468 42.6556 70.9758 42.0475 71.5575C41.4393 72.1391 41.0747 72.9298 41.0272 73.77L39.2352 113.482C39.2139 113.887 39.2753 114.292 39.4159 114.672C39.5564 115.052 39.773 115.399 40.0524 115.692C40.3319 115.986 40.6682 116.219 41.041 116.377C41.4137 116.536 41.8149 116.617 42.22 116.616H105.839C106.68 116.606 107.486 116.277 108.095 115.695C108.703 115.113 109.067 114.323 109.115 113.482L110.91 73.77C110.931 73.3648 110.869 72.9596 110.727 72.5792C110.586 72.1989 110.369 71.8514 110.089 71.558C109.808 71.2646 109.471 71.0316 109.098 70.8732C108.724 70.7148 108.322 70.6343 107.916 70.6368Z" fill="#FAFAFA"/>
<path d="M45.4708 106.12L46.952 73.3234C46.9698 73.0017 47.1094 72.6988 47.3423 72.4762C47.5753 72.2537 47.8843 72.1281 48.2065 72.125H103.879C104.034 72.1241 104.188 72.1548 104.331 72.2154C104.474 72.2759 104.603 72.3651 104.71 72.4773C104.817 72.5895 104.9 72.7224 104.954 72.8679C105.008 73.0134 105.032 73.1684 105.024 73.3234L103.54 106.12C103.522 106.442 103.383 106.744 103.15 106.967C102.917 107.19 102.608 107.315 102.286 107.318H46.616C46.4608 107.319 46.3071 107.288 46.1642 107.228C46.0213 107.167 45.8923 107.078 45.785 106.966C45.6778 106.854 45.5946 106.721 45.5406 106.575C45.4866 106.43 45.4628 106.275 45.4708 106.12Z" fill="#FFC100"/>
<path opacity="0.1" d="M45.4708 106.12L46.952 73.3234C46.9698 73.0017 47.1094 72.6988 47.3423 72.4762C47.5753 72.2537 47.8843 72.1281 48.2065 72.125H103.879C104.034 72.1241 104.188 72.1548 104.331 72.2154C104.474 72.2759 104.603 72.3651 104.71 72.4773C104.817 72.5895 104.9 72.7224 104.954 72.8679C105.008 73.0134 105.032 73.1684 105.024 73.3234L103.54 106.12C103.522 106.442 103.383 106.744 103.15 106.967C102.917 107.19 102.608 107.315 102.286 107.318H46.616C46.4608 107.319 46.3071 107.288 46.1642 107.228C46.0213 107.167 45.8923 107.078 45.785 106.966C45.6778 106.854 45.5946 106.721 45.5406 106.575C45.4866 106.43 45.4628 106.275 45.4708 106.12Z" fill="#FAFAFA"/>
<path opacity="0.1" d="M43.9 108.795L45.454 74.3549C45.4718 74.0171 45.6179 73.6989 45.8625 73.4652C46.1071 73.2315 46.4317 73.1001 46.77 73.0977H105.234C105.397 73.0963 105.558 73.1283 105.708 73.1917C105.858 73.2552 105.994 73.3487 106.107 73.4664C106.219 73.5842 106.306 73.7238 106.363 73.8766C106.419 74.0294 106.444 74.1922 106.435 74.3549L104.878 108.795C104.861 109.132 104.715 109.451 104.471 109.685C104.227 109.919 103.903 110.051 103.565 110.055H45.0956C44.9327 110.056 44.7714 110.024 44.6216 109.96C44.4718 109.896 44.3367 109.802 44.2247 109.684C44.1126 109.566 44.0259 109.426 43.9701 109.273C43.9142 109.12 43.8904 108.957 43.9 108.795Z" fill="black"/>
<path d="M42.4551 111.573L44.0763 75.6492C44.0981 75.2979 44.2514 74.9677 44.5056 74.7244C44.7599 74.481 45.0964 74.3423 45.4483 74.336H106.435C106.605 74.3346 106.774 74.3681 106.931 74.4343C107.087 74.5006 107.229 74.5982 107.346 74.7213C107.464 74.8443 107.555 74.9901 107.614 75.1497C107.673 75.3093 107.699 75.4793 107.69 75.6492L106.06 111.573C106.038 111.924 105.885 112.255 105.631 112.498C105.376 112.741 105.04 112.88 104.688 112.886H43.7095C43.5393 112.888 43.3705 112.855 43.2135 112.789C43.0566 112.723 42.915 112.625 42.7974 112.502C42.6798 112.379 42.5887 112.233 42.5298 112.073C42.471 111.913 42.4455 111.743 42.4551 111.573Z" fill="#FAFAFA"/>
<path d="M100.421 76.4921C100.306 76.4923 100.193 76.469 100.087 76.4237C99.982 76.3784 99.887 76.312 99.8083 76.2285C99.7296 76.1451 99.6689 76.0465 99.6297 75.9387C99.5906 75.8309 99.574 75.7162 99.5809 75.6017C99.5916 75.3771 99.6877 75.165 99.8495 75.0089C100.011 74.8527 100.227 74.7643 100.452 74.7617C100.566 74.7615 100.68 74.7848 100.785 74.8301C100.891 74.8755 100.985 74.9419 101.064 75.0253C101.143 75.1087 101.204 75.2074 101.243 75.3152C101.282 75.423 101.299 75.5376 101.292 75.6521C101.281 75.8768 101.185 76.0888 101.023 76.245C100.861 76.4011 100.646 76.4895 100.421 76.4921Z" fill="#FFC100"/>
<path d="M90.5397 76.4921C90.425 76.4923 90.3115 76.469 90.2062 76.4237C90.1008 76.3784 90.0059 76.312 89.9272 76.2285C89.8485 76.1451 89.7877 76.0465 89.7486 75.9387C89.7094 75.8309 89.6928 75.7162 89.6997 75.6017C89.7104 75.3771 89.8065 75.165 89.9684 75.0089C90.1302 74.8527 90.3456 74.7643 90.5705 74.7617C90.6852 74.7615 90.7987 74.7848 90.904 74.8301C91.0094 74.8755 91.1043 74.9419 91.183 75.0253C91.2617 75.1087 91.3225 75.2074 91.3616 75.3152C91.4007 75.423 91.4174 75.5376 91.4105 75.6521C91.4005 75.877 91.3046 76.0895 91.1426 76.2457C90.9806 76.402 90.7648 76.4902 90.5397 76.4921Z" fill="#FFC100"/>
<path d="M80.6585 76.4921C80.5439 76.4923 80.4303 76.469 80.325 76.4237C80.2197 76.3784 80.1247 76.312 80.046 76.2285C79.9673 76.1451 79.9065 76.0465 79.8674 75.9387C79.8283 75.8309 79.8116 75.7162 79.8185 75.6017C79.8299 75.3773 79.9262 75.1656 80.0879 75.0096C80.2496 74.8536 80.4647 74.765 80.6893 74.7617C80.804 74.7615 80.9175 74.7848 81.0229 74.8301C81.1282 74.8755 81.2232 74.9419 81.3019 75.0253C81.3806 75.1087 81.4413 75.2074 81.4805 75.3152C81.5196 75.423 81.5362 75.5376 81.5293 75.6521C81.5193 75.877 81.4234 76.0895 81.2614 76.2457C81.0994 76.402 80.8836 76.4902 80.6585 76.4921Z" fill="#FFC100"/>
<path d="M70.78 76.4921C70.6653 76.4923 70.5518 76.469 70.4464 76.4237C70.3411 76.3784 70.2461 76.312 70.1674 76.2285C70.0888 76.1451 70.028 76.0465 69.9888 75.9387C69.9497 75.8309 69.9331 75.7162 69.94 75.6017C69.952 75.3771 70.0489 75.1654 70.2111 75.0094C70.3733 74.8535 70.5886 74.7649 70.8136 74.7617C70.9283 74.7615 71.0418 74.7848 71.1471 74.8301C71.2525 74.8755 71.3474 74.9419 71.4261 75.0253C71.5048 75.1087 71.5656 75.2074 71.6047 75.3152C71.6438 75.423 71.6605 75.5376 71.6536 75.6521C71.6435 75.8775 71.5472 76.0903 71.3846 76.2467C71.222 76.403 71.0055 76.4909 70.78 76.4921Z" fill="#FFC100"/>
<path d="M60.8988 76.4921C60.7841 76.4923 60.6706 76.469 60.5653 76.4237C60.4599 76.3784 60.365 76.312 60.2863 76.2285C60.2076 76.1451 60.1468 76.0465 60.1077 75.9387C60.0686 75.8309 60.0519 75.7162 60.0588 75.6017C60.0695 75.3771 60.1656 75.165 60.3275 75.0089C60.4893 74.8527 60.7047 74.7643 60.9296 74.7617C61.0443 74.7615 61.1578 74.7848 61.2631 74.8301C61.3685 74.8755 61.4634 74.9419 61.5421 75.0253C61.6208 75.1087 61.6816 75.2074 61.7207 75.3152C61.7599 75.423 61.7765 75.5376 61.7696 75.6521C61.7589 75.8768 61.6628 76.0888 61.501 76.245C61.3391 76.4011 61.1237 76.4895 60.8988 76.4921Z" fill="#FFC100"/>
<path d="M51.0176 76.4921C50.9029 76.4923 50.7894 76.469 50.6841 76.4237C50.5787 76.3784 50.4838 76.312 50.4051 76.2285C50.3264 76.1451 50.2656 76.0465 50.2265 75.9387C50.1874 75.8309 50.1707 75.7162 50.1776 75.6017C50.1883 75.3771 50.2844 75.165 50.4463 75.0089C50.6082 74.8527 50.8235 74.7643 51.0484 74.7617C51.1631 74.7615 51.2766 74.7848 51.382 74.8301C51.4873 74.8755 51.5823 74.9419 51.661 75.0253C51.7396 75.1087 51.8004 75.2074 51.8396 75.3152C51.8787 75.423 51.8953 75.5376 51.8884 75.6521C51.8784 75.877 51.7825 76.0895 51.6205 76.2457C51.4585 76.402 51.2427 76.4902 51.0176 76.4921Z" fill="#FFC100"/>
<g opacity="0.1">
<path opacity="0.1" d="M100.421 76.4921C100.306 76.4923 100.193 76.469 100.087 76.4237C99.982 76.3784 99.887 76.312 99.8083 76.2285C99.7296 76.1451 99.6689 76.0465 99.6297 75.9387C99.5906 75.8309 99.574 75.7162 99.5809 75.6017C99.5916 75.3771 99.6877 75.165 99.8495 75.0089C100.011 74.8527 100.227 74.7643 100.452 74.7617C100.566 74.7615 100.68 74.7848 100.785 74.8301C100.891 74.8755 100.985 74.9419 101.064 75.0253C101.143 75.1087 101.204 75.2074 101.243 75.3152C101.282 75.423 101.299 75.5376 101.292 75.6521C101.281 75.8768 101.185 76.0888 101.023 76.245C100.861 76.4011 100.646 76.4895 100.421 76.4921Z" fill="#FAFAFA"/>
<path opacity="0.1" d="M90.5397 76.4921C90.425 76.4923 90.3115 76.469 90.2062 76.4237C90.1008 76.3784 90.0059 76.312 89.9272 76.2285C89.8485 76.1451 89.7877 76.0465 89.7486 75.9387C89.7095 75.8309 89.6928 75.7162 89.6997 75.6017C89.7104 75.3771 89.8065 75.165 89.9684 75.0089C90.1302 74.8527 90.3456 74.7643 90.5705 74.7617C90.6852 74.7615 90.7987 74.7848 90.9041 74.8301C91.0094 74.8755 91.1043 74.9419 91.183 75.0253C91.2617 75.1087 91.3225 75.2074 91.3616 75.3152C91.4008 75.423 91.4174 75.5376 91.4105 75.6521C91.4005 75.877 91.3046 76.0895 91.1426 76.2457C90.9806 76.402 90.7648 76.4902 90.5397 76.4921Z" fill="#FAFAFA"/>
<path opacity="0.1" d="M80.6585 76.4921C80.5439 76.4923 80.4303 76.469 80.325 76.4237C80.2197 76.3784 80.1247 76.312 80.046 76.2285C79.9673 76.1451 79.9065 76.0465 79.8674 75.9387C79.8283 75.8309 79.8116 75.7162 79.8185 75.6017C79.8299 75.3773 79.9262 75.1656 80.0879 75.0096C80.2496 74.8536 80.4647 74.765 80.6893 74.7617C80.804 74.7615 80.9175 74.7848 81.0229 74.8301C81.1282 74.8755 81.2232 74.9419 81.3019 75.0253C81.3806 75.1087 81.4413 75.2074 81.4805 75.3152C81.5196 75.423 81.5362 75.5376 81.5293 75.6521C81.5193 75.877 81.4234 76.0895 81.2614 76.2457C81.0994 76.402 80.8836 76.4902 80.6585 76.4921Z" fill="#FAFAFA"/>
<path opacity="0.1" d="M70.78 76.4921C70.6653 76.4923 70.5518 76.469 70.4464 76.4237C70.3411 76.3784 70.2461 76.312 70.1674 76.2285C70.0888 76.1451 70.028 76.0465 69.9888 75.9387C69.9497 75.8309 69.9331 75.7162 69.94 75.6017C69.952 75.3771 70.0489 75.1654 70.2111 75.0094C70.3733 74.8535 70.5886 74.7649 70.8136 74.7617C70.9283 74.7615 71.0418 74.7848 71.1471 74.8301C71.2525 74.8755 71.3474 74.9419 71.4261 75.0253C71.5048 75.1087 71.5656 75.2074 71.6047 75.3152C71.6438 75.423 71.6605 75.5376 71.6536 75.6521C71.6435 75.8775 71.5472 76.0903 71.3846 76.2467C71.222 76.403 71.0055 76.4909 70.78 76.4921Z" fill="#FAFAFA"/>
<path opacity="0.1" d="M60.8988 76.4921C60.7841 76.4923 60.6706 76.469 60.5653 76.4237C60.4599 76.3784 60.365 76.312 60.2863 76.2285C60.2076 76.1451 60.1468 76.0465 60.1077 75.9387C60.0686 75.8309 60.0519 75.7162 60.0588 75.6017C60.0695 75.3771 60.1656 75.165 60.3275 75.0089C60.4893 74.8527 60.7047 74.7643 60.9296 74.7617C61.0443 74.7615 61.1578 74.7848 61.2631 74.8301C61.3685 74.8755 61.4634 74.9419 61.5421 75.0253C61.6208 75.1087 61.6816 75.2074 61.7207 75.3152C61.7599 75.423 61.7765 75.5376 61.7696 75.6521C61.7589 75.8768 61.6628 76.0888 61.501 76.245C61.3391 76.4011 61.1237 76.4895 60.8988 76.4921Z" fill="#FAFAFA"/>
<path opacity="0.1" d="M51.0176 76.4921C50.9029 76.4923 50.7894 76.469 50.6841 76.4237C50.5787 76.3784 50.4838 76.312 50.4051 76.2285C50.3264 76.1451 50.2656 76.0465 50.2265 75.9387C50.1874 75.8309 50.1707 75.7162 50.1776 75.6017C50.1883 75.3771 50.2844 75.165 50.4463 75.0089C50.6082 74.8527 50.8235 74.7643 51.0484 74.7617C51.1631 74.7615 51.2766 74.7848 51.382 74.8301C51.4873 74.8755 51.5823 74.9419 51.661 75.0253C51.7396 75.1087 51.8004 75.2074 51.8396 75.3152C51.8787 75.423 51.8953 75.5376 51.8884 75.6521C51.8784 75.877 51.7825 76.0895 51.6205 76.2457C51.4585 76.402 51.2427 76.4902 51.0176 76.4921Z" fill="#FAFAFA"/>
</g>
<path d="M53.4872 79.62H48.5172C48.4451 79.6206 48.3737 79.6063 48.3075 79.5778C48.2413 79.5494 48.1817 79.5076 48.1325 79.4549C48.0833 79.4023 48.0455 79.34 48.0216 79.272C47.9977 79.2041 47.9881 79.1319 47.9936 79.06C47.9991 78.9133 48.0599 78.774 48.1637 78.6702C48.2676 78.5663 48.4068 78.5056 48.5536 78.5H53.5236C53.5956 78.4994 53.667 78.5138 53.7332 78.5422C53.7995 78.5706 53.8591 78.6125 53.9083 78.6651C53.9575 78.7177 53.9952 78.78 54.0192 78.848C54.0431 78.916 54.0526 78.9882 54.0472 79.06C54.0416 79.2068 53.9809 79.346 53.877 79.4499C53.7732 79.5537 53.6339 79.6145 53.4872 79.62Z" fill="#FFC100"/>
<path d="M63.3683 79.62H58.3983C58.3263 79.6206 58.2549 79.6063 58.1887 79.5778C58.1225 79.5494 58.0629 79.5076 58.0136 79.4549C57.9644 79.4023 57.9267 79.34 57.9028 79.272C57.8789 79.2041 57.8693 79.1319 57.8747 79.06C57.8805 78.9109 57.9432 78.7697 58.05 78.6655C58.1568 78.5613 58.2995 78.5021 58.4487 78.5H63.4159C63.4881 78.4995 63.5596 78.5138 63.626 78.5422C63.6923 78.5706 63.7521 78.6124 63.8015 78.665C63.8509 78.7176 63.889 78.7798 63.9132 78.8478C63.9374 78.9158 63.9474 78.988 63.9423 79.06C63.9366 79.2091 63.8739 79.3503 63.7671 79.4545C63.6603 79.5588 63.5175 79.618 63.3683 79.62Z" fill="#FFC100"/>
<path d="M73.2495 79.62H68.2795C68.2074 79.6206 68.1359 79.6062 68.0695 79.5778C68.0031 79.5494 67.9434 79.5077 67.8939 79.4551C67.8445 79.4025 67.8065 79.3402 67.7823 79.2723C67.758 79.2043 67.7481 79.132 67.7531 79.06C67.7589 78.9109 67.8216 78.7697 67.9284 78.6655C68.0352 78.5613 68.1779 78.5021 68.3271 78.5H73.2999C73.372 78.4994 73.4434 78.5138 73.5096 78.5422C73.5758 78.5706 73.6354 78.6125 73.6846 78.6651C73.7338 78.7177 73.7716 78.78 73.7955 78.848C73.8194 78.916 73.8289 78.9882 73.8235 79.06C73.8185 79.2094 73.7559 79.351 73.649 79.4553C73.542 79.5597 73.3989 79.6187 73.2495 79.62Z" fill="#FFC100"/>
<path d="M83.1281 79.62H78.1581C78.086 79.6206 78.0146 79.6063 77.9484 79.5778C77.8822 79.5494 77.8226 79.5076 77.7734 79.4549C77.7242 79.4023 77.6864 79.34 77.6625 79.272C77.6386 79.2041 77.629 79.1319 77.6345 79.06C77.64 78.9133 77.7008 78.774 77.8046 78.6702C77.9085 78.5663 78.0477 78.5056 78.1945 78.5H83.1645C83.2365 78.4994 83.3079 78.5138 83.3741 78.5422C83.4404 78.5706 83.5 78.6125 83.5492 78.6651C83.5984 78.7177 83.6361 78.78 83.6601 78.848C83.684 78.916 83.6935 78.9882 83.6881 79.06C83.6825 79.2068 83.6218 79.346 83.5179 79.4499C83.4141 79.5537 83.2748 79.6145 83.1281 79.62Z" fill="#FFC100"/>
<path d="M93.0093 79.62H88.0392C87.9672 79.6206 87.8958 79.6063 87.8296 79.5778C87.7634 79.5494 87.7038 79.5076 87.6545 79.4549C87.6053 79.4023 87.5676 79.34 87.5437 79.272C87.5198 79.2041 87.5102 79.1319 87.5156 79.06C87.5214 78.9109 87.5841 78.7697 87.6909 78.6655C87.7977 78.5613 87.9404 78.5021 88.0896 78.5H93.0597C93.1317 78.4994 93.2031 78.5138 93.2693 78.5422C93.3355 78.5706 93.3951 78.6125 93.4443 78.6651C93.4936 78.7177 93.5313 78.78 93.5552 78.848C93.5791 78.916 93.5887 78.9882 93.5833 79.06C93.5775 79.2091 93.5148 79.3503 93.408 79.4546C93.3012 79.5588 93.1585 79.618 93.0093 79.62Z" fill="#FFC100"/>
<path d="M102.89 79.62H97.9204C97.8483 79.6206 97.777 79.6063 97.7107 79.5778C97.6445 79.5494 97.5849 79.5076 97.5357 79.4549C97.4865 79.4023 97.4487 79.34 97.4248 79.272C97.4009 79.2041 97.3914 79.1319 97.3968 79.06C97.4025 78.9109 97.4653 78.7697 97.5721 78.6655C97.6789 78.5613 97.8216 78.5021 97.9708 78.5H102.938C103.01 78.4995 103.082 78.5138 103.148 78.5422C103.214 78.5706 103.274 78.6124 103.324 78.665C103.373 78.7176 103.411 78.7798 103.435 78.8478C103.459 78.9158 103.469 78.988 103.464 79.06C103.459 79.2091 103.396 79.3503 103.289 79.4545C103.182 79.5588 103.04 79.618 102.89 79.62Z" fill="#FFC100"/>
<g opacity="0.3">
<path opacity="0.3" d="M53.4872 79.62H48.5172C48.4451 79.6206 48.3737 79.6063 48.3075 79.5778C48.2413 79.5494 48.1817 79.5076 48.1325 79.4549C48.0833 79.4023 48.0455 79.34 48.0216 79.272C47.9977 79.2041 47.9881 79.1319 47.9936 79.06C47.9991 78.9133 48.0599 78.774 48.1637 78.6702C48.2676 78.5663 48.4068 78.5056 48.5536 78.5H53.5236C53.5956 78.4994 53.667 78.5138 53.7332 78.5422C53.7995 78.5706 53.8591 78.6125 53.9083 78.6651C53.9575 78.7177 53.9952 78.78 54.0192 78.848C54.0431 78.916 54.0526 78.9882 54.0472 79.06C54.0416 79.2068 53.9809 79.346 53.877 79.4499C53.7732 79.5537 53.6339 79.6145 53.4872 79.62Z" fill="black"/>
<path opacity="0.3" d="M63.3684 79.62H58.3984C58.3263 79.6206 58.2549 79.6063 58.1887 79.5778C58.1225 79.5494 58.0629 79.5076 58.0137 79.4549C57.9644 79.4023 57.9267 79.34 57.9028 79.272C57.8789 79.2041 57.8693 79.1319 57.8748 79.06C57.8805 78.9109 57.9432 78.7697 58.05 78.6655C58.1568 78.5613 58.2996 78.5021 58.4488 78.5H63.416C63.4881 78.4995 63.5596 78.5138 63.626 78.5422C63.6923 78.5706 63.7521 78.6124 63.8015 78.665C63.851 78.7176 63.889 78.7798 63.9132 78.8478C63.9375 78.9158 63.9474 78.988 63.9424 79.06C63.9366 79.2091 63.8739 79.3503 63.7671 79.4545C63.6603 79.5588 63.5176 79.618 63.3684 79.62Z" fill="black"/>
<path opacity="0.3" d="M73.2495 79.62H68.2795C68.2074 79.6206 68.1359 79.6062 68.0695 79.5778C68.0032 79.5494 67.9434 79.5077 67.894 79.4551C67.8445 79.4025 67.8065 79.3402 67.7823 79.2723C67.758 79.2043 67.7481 79.132 67.7531 79.06C67.7589 78.9109 67.8216 78.7697 67.9284 78.6655C68.0352 78.5613 68.1779 78.5021 68.3271 78.5H73.2999C73.372 78.4994 73.4434 78.5138 73.5096 78.5422C73.5758 78.5706 73.6354 78.6125 73.6846 78.6651C73.7338 78.7177 73.7716 78.78 73.7955 78.848C73.8194 78.916 73.829 78.9882 73.8235 79.06C73.8185 79.2094 73.756 79.351 73.649 79.4553C73.5421 79.5597 73.399 79.6187 73.2495 79.62Z" fill="black"/>
<path opacity="0.3" d="M83.1281 79.62H78.1581C78.086 79.6206 78.0146 79.6063 77.9484 79.5778C77.8822 79.5494 77.8226 79.5076 77.7734 79.4549C77.7242 79.4023 77.6864 79.34 77.6625 79.272C77.6386 79.2041 77.6291 79.1319 77.6345 79.06C77.64 78.9133 77.7008 78.774 77.8047 78.6702C77.9085 78.5663 78.0477 78.5056 78.1945 78.5H83.1645C83.2366 78.4994 83.3079 78.5138 83.3742 78.5422C83.4404 78.5706 83.5 78.6125 83.5492 78.6651C83.5984 78.7177 83.6362 78.78 83.6601 78.848C83.684 78.916 83.6935 78.9882 83.6881 79.06C83.6826 79.2068 83.6218 79.346 83.5179 79.4499C83.4141 79.5537 83.2748 79.6145 83.1281 79.62Z" fill="black"/>
<path opacity="0.3" d="M93.0093 79.62H88.0392C87.9672 79.6206 87.8958 79.6063 87.8296 79.5778C87.7634 79.5494 87.7038 79.5076 87.6545 79.4549C87.6053 79.4023 87.5676 79.34 87.5437 79.272C87.5198 79.2041 87.5102 79.1319 87.5156 79.06C87.5214 78.9109 87.5841 78.7697 87.6909 78.6655C87.7977 78.5613 87.9404 78.5021 88.0896 78.5H93.0597C93.1317 78.4994 93.2031 78.5138 93.2693 78.5422C93.3355 78.5706 93.3951 78.6125 93.4443 78.6651C93.4936 78.7177 93.5313 78.78 93.5552 78.848C93.5791 78.916 93.5887 78.9882 93.5833 79.06C93.5775 79.2091 93.5148 79.3503 93.408 79.4546C93.3012 79.5588 93.1585 79.618 93.0093 79.62Z" fill="black"/>
<path opacity="0.3" d="M102.89 79.62H97.9204C97.8484 79.6206 97.777 79.6063 97.7108 79.5778C97.6445 79.5494 97.5849 79.5076 97.5357 79.4549C97.4865 79.4023 97.4488 79.34 97.4248 79.272C97.4009 79.2041 97.3914 79.1319 97.3968 79.06C97.4025 78.9109 97.4653 78.7697 97.5721 78.6655C97.6789 78.5613 97.8216 78.5021 97.9708 78.5H102.938C103.01 78.4995 103.082 78.5138 103.148 78.5422C103.214 78.5706 103.274 78.6124 103.324 78.665C103.373 78.7176 103.411 78.7798 103.435 78.8478C103.46 78.9158 103.469 78.988 103.464 79.06C103.459 79.2091 103.396 79.3503 103.289 79.4545C103.182 79.5588 103.04 79.618 102.89 79.62Z" fill="black"/>
</g>
<path d="M53.7617 90.1962H47.2881C47.1461 90.1967 47.0055 90.1683 46.8749 90.1127C46.7443 90.0571 46.6263 89.9754 46.5283 89.8727C46.4303 89.77 46.3543 89.6483 46.3049 89.5152C46.2554 89.3821 46.2337 89.2403 46.2409 89.0985L46.5209 82.6249C46.5379 82.3307 46.6658 82.0538 46.8788 81.8501C47.0919 81.6465 47.3742 81.5311 47.6689 81.5274H54.1425C54.2845 81.5268 54.4251 81.5552 54.5557 81.6108C54.6864 81.6664 54.8043 81.7481 54.9023 81.8508C55.0003 81.9535 55.0764 82.0752 55.1258 82.2083C55.1752 82.3414 55.197 82.4831 55.1897 82.6249L54.9097 89.0985C54.8921 89.3926 54.764 89.6691 54.5511 89.8726C54.3382 90.0762 54.0562 90.1917 53.7617 90.1962Z" fill="#FFC100"/>
<path d="M63.6429 90.1961H57.1693C57.0272 90.1971 56.8864 90.169 56.7555 90.1135C56.6247 90.0581 56.5066 89.9764 56.4085 89.8736C56.3104 89.7708 56.2344 89.649 56.1851 89.5157C56.1359 89.3824 56.1144 89.2404 56.1221 89.0985L56.4021 82.6249C56.419 82.3307 56.5469 82.0538 56.76 81.8501C56.973 81.6465 57.2553 81.5311 57.5501 81.5274H64.0321C64.1742 81.5268 64.3149 81.5552 64.4457 81.6108C64.5764 81.6663 64.6945 81.748 64.7928 81.8506C64.891 81.9533 64.9673 82.0749 65.017 82.208C65.0668 82.3412 65.0889 82.483 65.0821 82.6249L64.7881 89.0985C64.7718 89.3925 64.6445 89.6694 64.4319 89.8732C64.2193 90.0769 63.9373 90.1923 63.6429 90.1961Z" fill="#FFC100"/>
<path d="M73.5211 90.1962H67.0503C66.9082 90.1967 66.7675 90.1683 66.6367 90.1127C66.5059 90.0572 66.3878 89.9755 66.2896 89.8729C66.1913 89.7702 66.115 89.6486 66.0653 89.5155C66.0156 89.3823 65.9935 89.2405 66.0003 89.0986L66.2803 82.625C66.2973 82.3307 66.4252 82.0538 66.6382 81.8502C66.8513 81.6465 67.1336 81.5311 67.4283 81.5274H73.8991C74.0412 81.5264 74.182 81.5545 74.3128 81.61C74.4437 81.6655 74.5618 81.7471 74.6598 81.8499C74.7579 81.9527 74.834 82.0745 74.8832 82.2078C74.9325 82.3411 74.954 82.4831 74.9463 82.625L74.6663 89.0986C74.6494 89.3923 74.5219 89.6688 74.3094 89.8724C74.097 90.076 73.8153 90.1917 73.5211 90.1962Z" fill="#FFC100"/>
<path d="M83.4024 90.1962H76.94C76.7978 90.1971 76.6569 90.169 76.5259 90.1135C76.3949 90.0581 76.2767 89.9765 76.1784 89.8737C76.0801 89.771 76.0038 89.6492 75.9542 89.5159C75.9046 89.3826 75.8828 89.2406 75.89 89.0985L76.17 82.6249C76.1863 82.3309 76.3136 82.0541 76.5262 81.8503C76.7388 81.6466 77.0208 81.5312 77.3152 81.5274H83.7888C83.9308 81.5268 84.0714 81.5552 84.202 81.6108C84.3327 81.6664 84.4506 81.7481 84.5486 81.8508C84.6466 81.9535 84.7226 82.0752 84.7721 82.2083C84.8215 82.3414 84.8432 82.4831 84.836 82.6249L84.556 89.0985C84.539 89.3938 84.4103 89.6714 84.196 89.8753C83.9818 90.0791 83.6981 90.1938 83.4024 90.1962Z" fill="#FFC100"/>
<path d="M93.2838 90.1962H86.8102C86.6682 90.1967 86.5276 90.1683 86.397 90.1127C86.2663 90.0571 86.1484 89.9755 86.0504 89.8727C85.9524 89.77 85.8763 89.6484 85.8269 89.5153C85.7775 89.3821 85.7558 89.2404 85.763 89.0986L86.043 82.625C86.06 82.3307 86.1879 82.0538 86.4009 81.8502C86.6139 81.6465 86.8963 81.5311 87.191 81.5274H93.6618C93.804 81.5264 93.9449 81.5545 94.0759 81.61C94.2068 81.6654 94.3251 81.747 94.4234 81.8498C94.5217 81.9526 94.598 82.0743 94.6476 82.2076C94.6972 82.3409 94.719 82.4829 94.7118 82.625L94.4318 89.0986C94.4141 89.3926 94.286 89.6691 94.0731 89.8726C93.8602 90.0762 93.5783 90.1917 93.2838 90.1962Z" fill="#FFC100"/>
<path d="M103.162 90.1961H96.6913C96.5492 90.1971 96.4084 90.169 96.2776 90.1135C96.1468 90.0581 96.0287 89.9764 95.9306 89.8736C95.8325 89.7708 95.7565 89.649 95.7072 89.5157C95.6579 89.3824 95.6365 89.2404 95.6441 89.0985L95.9241 82.6249C95.9411 82.3307 96.069 82.0538 96.282 81.8501C96.4951 81.6465 96.7774 81.5311 97.0721 81.5274H103.543C103.685 81.5268 103.826 81.5552 103.957 81.6108C104.087 81.6663 104.205 81.748 104.304 81.8506C104.402 81.9533 104.478 82.0749 104.528 82.208C104.578 82.3412 104.6 82.483 104.593 82.6249L104.299 89.0985C104.283 89.3911 104.157 89.6668 103.946 89.8703C103.735 90.0739 103.455 90.1902 103.162 90.1961Z" fill="#FFC100"/>
<g opacity="0.8">
<path opacity="0.8" d="M53.7617 90.1962H47.2881C47.1461 90.1967 47.0055 90.1683 46.8749 90.1127C46.7443 90.0571 46.6263 89.9754 46.5283 89.8727C46.4303 89.77 46.3543 89.6483 46.3049 89.5152C46.2554 89.3821 46.2337 89.2403 46.2409 89.0985L46.5209 82.6249C46.5379 82.3307 46.6658 82.0538 46.8788 81.8501C47.0919 81.6465 47.3742 81.5311 47.6689 81.5274H54.1425C54.2845 81.5268 54.4251 81.5552 54.5557 81.6108C54.6864 81.6664 54.8043 81.7481 54.9023 81.8508C55.0003 81.9535 55.0764 82.0752 55.1258 82.2083C55.1752 82.3414 55.197 82.4831 55.1897 82.6249L54.9097 89.0985C54.8921 89.3926 54.764 89.6691 54.5511 89.8726C54.3382 90.0762 54.0562 90.1917 53.7617 90.1962Z" fill="#FAFAFA"/>
<path opacity="0.8" d="M63.6428 90.1961H57.1692C57.0271 90.1971 56.8863 90.169 56.7555 90.1135C56.6247 90.0581 56.5066 89.9764 56.4085 89.8736C56.3104 89.7708 56.2344 89.649 56.1851 89.5157C56.1359 89.3824 56.1144 89.2404 56.122 89.0985L56.402 82.6249C56.419 82.3307 56.5469 82.0538 56.76 81.8501C56.973 81.6465 57.2553 81.5311 57.55 81.5274H64.032C64.1741 81.5268 64.3149 81.5552 64.4457 81.6108C64.5764 81.6663 64.6945 81.748 64.7928 81.8506C64.891 81.9533 64.9673 82.0749 65.017 82.208C65.0668 82.3412 65.0889 82.483 65.082 82.6249L64.788 89.0985C64.7717 89.3925 64.6444 89.6694 64.4319 89.8732C64.2193 90.0769 63.9373 90.1923 63.6428 90.1961Z" fill="#FAFAFA"/>
<path opacity="0.8" d="M73.5214 90.1962H67.0506C66.9085 90.1967 66.7678 90.1683 66.637 90.1127C66.5063 90.0572 66.3882 89.9755 66.2899 89.8729C66.1917 89.7702 66.1154 89.6486 66.0657 89.5155C66.0159 89.3823 65.9938 89.2405 66.0006 89.0986L66.2806 82.625C66.2976 82.3307 66.4255 82.0538 66.6386 81.8502C66.8516 81.6465 67.1339 81.5311 67.4286 81.5274H73.8994C74.0415 81.5264 74.1823 81.5545 74.3132 81.61C74.444 81.6655 74.5621 81.7471 74.6602 81.8499C74.7583 81.9527 74.8343 82.0745 74.8835 82.2078C74.9328 82.3411 74.9543 82.4831 74.9466 82.625L74.6666 89.0986C74.6497 89.3923 74.5222 89.6688 74.3097 89.8724C74.0973 90.076 73.8157 90.1917 73.5214 90.1962Z" fill="#FAFAFA"/>
<path opacity="0.8" d="M83.4024 90.1962H76.94C76.7978 90.1971 76.6569 90.169 76.5259 90.1135C76.3949 90.0581 76.2767 89.9765 76.1784 89.8737C76.08 89.771 76.0038 89.6492 75.9542 89.5159C75.9046 89.3826 75.8828 89.2406 75.89 89.0985L76.17 82.6249C76.1863 82.3309 76.3136 82.0541 76.5262 81.8503C76.7388 81.6466 77.0208 81.5312 77.3152 81.5274H83.7888C83.9308 81.5268 84.0714 81.5552 84.202 81.6108C84.3327 81.6664 84.4506 81.7481 84.5486 81.8508C84.6466 81.9535 84.7226 82.0752 84.772 82.2083C84.8215 82.3414 84.8432 82.4831 84.836 82.6249L84.556 89.0985C84.5389 89.3938 84.4102 89.6714 84.196 89.8753C83.9818 90.0791 83.6981 90.1938 83.4024 90.1962Z" fill="#FAFAFA"/>
<path opacity="0.8" d="M93.2838 90.1962H86.8102C86.6682 90.1967 86.5276 90.1683 86.397 90.1127C86.2663 90.0571 86.1484 89.9755 86.0504 89.8727C85.9524 89.77 85.8763 89.6484 85.8269 89.5153C85.7775 89.3821 85.7558 89.2404 85.763 89.0986L86.043 82.625C86.06 82.3307 86.1879 82.0538 86.4009 81.8502C86.6139 81.6465 86.8963 81.5311 87.191 81.5274H93.6618C93.804 81.5264 93.9449 81.5545 94.0759 81.61C94.2068 81.6654 94.3251 81.747 94.4234 81.8498C94.5217 81.9526 94.598 82.0743 94.6476 82.2076C94.6972 82.3409 94.719 82.4829 94.7118 82.625L94.4318 89.0986C94.4141 89.3926 94.286 89.6691 94.0731 89.8726C93.8602 90.0762 93.5783 90.1917 93.2838 90.1962Z" fill="#FAFAFA"/>
<path opacity="0.8" d="M103.162 90.1961H96.6913C96.5492 90.1971 96.4084 90.169 96.2776 90.1135C96.1468 90.0581 96.0287 89.9764 95.9306 89.8736C95.8325 89.7708 95.7565 89.649 95.7072 89.5157C95.6579 89.3824 95.6365 89.2404 95.6441 89.0985L95.9241 82.6249C95.9411 82.3307 96.069 82.0538 96.282 81.8501C96.4951 81.6465 96.7774 81.5311 97.0721 81.5274H103.543C103.685 81.5268 103.826 81.5552 103.957 81.6108C104.087 81.6663 104.205 81.748 104.304 81.8506C104.402 81.9533 104.478 82.0749 104.528 82.208C104.578 82.3412 104.6 82.483 104.593 82.6249L104.299 89.0985C104.283 89.3911 104.157 89.6668 103.946 89.8703C103.735 90.0739 103.455 90.1902 103.162 90.1961Z" fill="#FAFAFA"/>
</g>
<path d="M53.3079 100.239H46.8343C46.6923 100.24 46.5517 100.211 46.421 100.156C46.2904 100.1 46.1725 100.018 46.0745 99.9157C45.9764 99.8129 45.9004 99.6913 45.851 99.5582C45.8016 99.4251 45.7798 99.2833 45.7871 99.1415L46.0671 92.6679C46.0847 92.3739 46.2128 92.0974 46.4257 91.8938C46.6386 91.6903 46.9205 91.5747 47.2151 91.5703H53.6999C53.8418 91.5698 53.9824 91.5981 54.1131 91.6538C54.2437 91.7094 54.3617 91.791 54.4597 91.8938C54.5577 91.9965 54.6337 92.1181 54.6831 92.2512C54.7325 92.3843 54.7543 92.5261 54.7471 92.6679L54.4671 99.1415C54.4493 99.4374 54.3196 99.7155 54.1043 99.9194C53.8891 100.123 53.6043 100.238 53.3079 100.239Z" fill="#FFC100"/>
<path d="M63.1894 100.239H56.7158C56.5738 100.24 56.4332 100.211 56.3026 100.156C56.1719 100.1 56.054 100.018 55.956 99.9157C55.858 99.813 55.7819 99.6913 55.7325 99.5582C55.6831 99.4251 55.6613 99.2833 55.6686 99.1415L55.9486 92.6679C55.9656 92.3737 56.0935 92.0968 56.3065 91.8931C56.5195 91.6894 56.8019 91.5741 57.0966 91.5703H63.5674C63.7107 91.5693 63.8527 91.5977 63.9846 91.6538C64.1165 91.7099 64.2355 91.7925 64.3342 91.8965C64.4329 92.0004 64.5092 92.1235 64.5584 92.2581C64.6076 92.3928 64.6286 92.536 64.6202 92.6791L64.3402 99.1415C64.3238 99.4365 64.1957 99.7141 63.982 99.918C63.7682 100.122 63.4848 100.237 63.1894 100.239Z" fill="#FFC100"/>
<path d="M73.0677 100.239H66.5969C66.4548 100.24 66.314 100.212 66.1832 100.157C66.0524 100.101 65.9343 100.019 65.8362 99.9166C65.7381 99.8138 65.6621 99.692 65.6128 99.5587C65.5636 99.4254 65.5421 99.2834 65.5497 99.1415L65.8297 92.6679C65.8467 92.3737 65.9746 92.0968 66.1876 91.8931C66.4007 91.6894 66.683 91.5741 66.9777 91.5703H73.4485C73.5906 91.5694 73.7314 91.5975 73.8622 91.6529C73.9931 91.7084 74.1112 91.7901 74.2092 91.8929C74.3073 91.9957 74.3834 92.1175 74.4326 92.2508C74.4819 92.3841 74.5034 92.526 74.4957 92.6679L74.2157 99.1415C74.1987 99.4358 74.0708 99.7127 73.8578 99.9163C73.6448 100.12 73.3624 100.235 73.0677 100.239Z" fill="#FFC100"/>
<path d="M82.9488 100.239H76.478C76.3359 100.24 76.1951 100.211 76.0644 100.156C75.9336 100.1 75.8155 100.019 75.7173 99.916C75.619 99.8133 75.5427 99.6917 75.493 99.5586C75.4432 99.4255 75.4211 99.2836 75.428 99.1417L75.708 92.6681C75.7243 92.3741 75.8516 92.0972 76.0642 91.8935C76.2767 91.6897 76.5587 91.5743 76.8532 91.5705H83.3268C83.4709 91.5679 83.6141 91.5952 83.7471 91.6506C83.8802 91.706 84.0004 91.7884 84.1001 91.8926C84.1998 91.9967 84.2768 92.1204 84.3264 92.2558C84.3759 92.3912 84.3969 92.5354 84.388 92.6793L84.108 99.1529C84.0881 99.4471 83.9575 99.7228 83.7423 99.9244C83.5272 100.126 83.2436 100.239 82.9488 100.239Z" fill="#FFC100"/>
<path d="M92.8299 100.239H86.3563C86.2143 100.239 86.0737 100.211 85.9431 100.155C85.8125 100.1 85.6945 100.018 85.5965 99.9152C85.4985 99.8124 85.4225 99.6908 85.3731 99.5577C85.3236 99.4246 85.3019 99.2828 85.3091 99.141L85.5891 92.6674C85.604 92.3709 85.7313 92.0913 85.9451 91.8853C86.1589 91.6793 86.4431 91.5625 86.7399 91.5586H93.2135C93.3555 91.558 93.4961 91.5864 93.6267 91.642C93.7574 91.6977 93.8753 91.7793 93.9733 91.882C94.0713 91.9848 94.1474 92.1064 94.1968 92.2395C94.2462 92.3726 94.2679 92.5144 94.2607 92.6562L93.9807 99.1298C93.9658 99.4263 93.8385 99.706 93.6247 99.9119C93.4109 100.118 93.1267 100.235 92.8299 100.239Z" fill="#FFC100"/>
<path d="M102.7 100.239H96.2375C96.0954 100.24 95.9546 100.212 95.8237 100.156C95.6929 100.101 95.5748 100.019 95.4767 99.9166C95.3786 99.8137 95.3026 99.6919 95.2534 99.5587C95.2041 99.4254 95.1826 99.2834 95.1903 99.1415L95.4703 92.6679C95.4872 92.3737 95.6151 92.0968 95.8282 91.8931C96.0412 91.6894 96.3235 91.5741 96.6183 91.5703H103.089C103.231 91.5698 103.372 91.5982 103.503 91.6537C103.633 91.7093 103.752 91.7909 103.85 91.8936C103.948 91.9963 104.024 92.1179 104.074 92.251C104.124 92.3841 104.146 92.526 104.139 92.6679L103.845 99.1415C103.829 99.4355 103.701 99.7124 103.489 99.9161C103.276 100.12 102.994 100.235 102.7 100.239Z" fill="#FFC100"/>
<g opacity="0.8">
<path opacity="0.8" d="M53.3079 100.239H46.8343C46.6923 100.24 46.5517 100.211 46.421 100.156C46.2904 100.1 46.1725 100.018 46.0745 99.9157C45.9764 99.8129 45.9004 99.6913 45.851 99.5582C45.8016 99.4251 45.7798 99.2833 45.7871 99.1415L46.0671 92.6679C46.0847 92.3739 46.2128 92.0974 46.4257 91.8938C46.6386 91.6903 46.9205 91.5747 47.2151 91.5703H53.6999C53.8418 91.5698 53.9824 91.5981 54.1131 91.6538C54.2437 91.7094 54.3617 91.791 54.4597 91.8938C54.5577 91.9965 54.6337 92.1181 54.6831 92.2512C54.7325 92.3843 54.7543 92.5261 54.7471 92.6679L54.4671 99.1415C54.4493 99.4374 54.3196 99.7155 54.1043 99.9194C53.8891 100.123 53.6043 100.238 53.3079 100.239Z" fill="#FAFAFA"/>
<path opacity="0.8" d="M63.189 100.239H56.7154C56.5734 100.24 56.4328 100.211 56.3022 100.156C56.1716 100.1 56.0536 100.018 55.9556 99.9157C55.8576 99.813 55.7816 99.6913 55.7322 99.5582C55.6827 99.4251 55.661 99.2833 55.6682 99.1415L55.9482 92.6679C55.9652 92.3737 56.0931 92.0968 56.3061 91.8931C56.5192 91.6894 56.8015 91.5741 57.0962 91.5703H63.567C63.7104 91.5693 63.8524 91.5977 63.9843 91.6538C64.1162 91.7099 64.2351 91.7925 64.3338 91.8965C64.4325 92.0004 64.5088 92.1235 64.558 92.2581C64.6072 92.3928 64.6283 92.536 64.6198 92.6791L64.3398 99.1415C64.3235 99.4365 64.1954 99.7141 63.9816 99.918C63.7678 100.122 63.4844 100.237 63.189 100.239Z" fill="#FAFAFA"/>
<path opacity="0.8" d="M73.0674 100.239H66.5966C66.4545 100.24 66.3137 100.212 66.1828 100.157C66.052 100.101 65.9339 100.019 65.8358 99.9166C65.7377 99.8138 65.6617 99.692 65.6125 99.5587C65.5632 99.4254 65.5417 99.2834 65.5494 99.1415L65.8294 92.6679C65.8463 92.3737 65.9742 92.0968 66.1873 91.8931C66.4003 91.6894 66.6826 91.5741 66.9774 91.5703H73.4482C73.5903 91.5694 73.731 91.5975 73.8619 91.6529C73.9927 91.7084 74.1108 91.7901 74.2089 91.8929C74.307 91.9957 74.383 92.1175 74.4323 92.2508C74.4815 92.3841 74.503 92.526 74.4953 92.6679L74.2153 99.1415C74.1984 99.4358 74.0705 99.7127 73.8574 99.9163C73.6444 100.12 73.3621 100.235 73.0674 100.239Z" fill="#FAFAFA"/>
<path opacity="0.8" d="M82.9488 100.239H76.478C76.3359 100.24 76.1951 100.211 76.0644 100.156C75.9336 100.1 75.8155 100.019 75.7173 99.916C75.619 99.8133 75.5427 99.6917 75.493 99.5586C75.4432 99.4255 75.4211 99.2836 75.428 99.1417L75.708 92.6681C75.7243 92.3741 75.8516 92.0972 76.0642 91.8935C76.2767 91.6897 76.5587 91.5743 76.8532 91.5705H83.3268C83.4709 91.5679 83.6141 91.5952 83.7471 91.6506C83.8802 91.706 84.0004 91.7884 84.1001 91.8926C84.1998 91.9967 84.2768 92.1204 84.3264 92.2558C84.3759 92.3912 84.3969 92.5354 84.388 92.6793L84.108 99.1529C84.0881 99.4471 83.9575 99.7228 83.7423 99.9244C83.5272 100.126 83.2436 100.239 82.9488 100.239Z" fill="#FAFAFA"/>
<path opacity="0.8" d="M92.8299 100.239H86.3563C86.2143 100.239 86.0737 100.211 85.9431 100.155C85.8125 100.1 85.6945 100.018 85.5965 99.9152C85.4985 99.8124 85.4225 99.6908 85.3731 99.5577C85.3236 99.4246 85.3019 99.2828 85.3091 99.141L85.5891 92.6674C85.604 92.3709 85.7313 92.0913 85.9451 91.8853C86.1589 91.6793 86.4431 91.5625 86.7399 91.5586H93.2135C93.3555 91.558 93.4961 91.5864 93.6267 91.642C93.7574 91.6977 93.8753 91.7793 93.9733 91.882C94.0713 91.9848 94.1474 92.1064 94.1968 92.2395C94.2462 92.3726 94.2679 92.5144 94.2607 92.6562L93.9807 99.1298C93.9658 99.4263 93.8385 99.706 93.6247 99.9119C93.4109 100.118 93.1267 100.235 92.8299 100.239Z" fill="#FAFAFA"/>
<path opacity="0.8" d="M102.7 100.239H96.2375C96.0954 100.24 95.9546 100.212 95.8237 100.156C95.6929 100.101 95.5748 100.019 95.4767 99.9166C95.3786 99.8137 95.3026 99.6919 95.2534 99.5587C95.2041 99.4254 95.1826 99.2834 95.1903 99.1415L95.4703 92.6679C95.4872 92.3737 95.6151 92.0968 95.8282 91.8931C96.0412 91.6894 96.3235 91.5741 96.6183 91.5703H103.089C103.231 91.5698 103.372 91.5982 103.503 91.6537C103.633 91.7093 103.752 91.7909 103.85 91.8936C103.948 91.9963 104.024 92.1179 104.074 92.251C104.124 92.3841 104.146 92.526 104.139 92.6679L103.845 99.1415C103.829 99.4355 103.701 99.7124 103.489 99.9161C103.276 100.12 102.994 100.235 102.7 100.239Z" fill="#FAFAFA"/>
</g>
<path d="M52.8599 110.279H46.3807C46.2386 110.28 46.0978 110.252 45.967 110.197C45.8361 110.141 45.7181 110.06 45.62 109.957C45.5219 109.854 45.4459 109.732 45.3966 109.599C45.3473 109.466 45.3259 109.324 45.3335 109.182L45.6135 102.711C45.6305 102.417 45.7584 102.14 45.9714 101.936C46.1844 101.732 46.4668 101.617 46.7615 101.613H53.2351C53.3772 101.612 53.518 101.64 53.6488 101.696C53.7796 101.751 53.8977 101.833 53.9958 101.936C54.0939 102.039 54.1699 102.16 54.2192 102.294C54.2685 102.427 54.2899 102.569 54.2823 102.711L54.0023 109.182C53.986 109.475 53.8591 109.752 53.6471 109.955C53.4351 110.159 53.1538 110.275 52.8599 110.279Z" fill="#FFC100"/>
<path d="M62.7355 110.279H56.2619C56.1198 110.28 55.979 110.252 55.8482 110.197C55.7173 110.141 55.5992 110.06 55.5011 109.957C55.403 109.854 55.327 109.732 55.2778 109.599C55.2285 109.466 55.207 109.324 55.2147 109.182L55.4947 102.711C55.511 102.416 55.6387 102.139 55.8519 101.935C56.0651 101.732 56.3478 101.616 56.6427 101.613H63.1135C63.2558 101.612 63.3969 101.64 63.5281 101.695C63.6592 101.75 63.7776 101.832 63.876 101.935C63.9744 102.038 64.0507 102.16 64.1001 102.293C64.1496 102.427 64.1711 102.569 64.1635 102.711L63.8835 109.182C63.8678 109.476 63.7403 109.754 63.527 109.958C63.3137 110.162 63.0306 110.277 62.7355 110.279Z" fill="#FFC100"/>
<path d="M72.6142 110.279H66.1434C66.0013 110.28 65.8605 110.252 65.7297 110.197C65.5988 110.141 65.4808 110.06 65.3827 109.957C65.2846 109.854 65.2086 109.732 65.1593 109.599C65.11 109.466 65.0885 109.324 65.0962 109.182L65.3762 102.711C65.3925 102.416 65.5202 102.139 65.7334 101.935C65.9466 101.732 66.2293 101.616 66.5242 101.613H73.0202C73.1624 101.612 73.3033 101.64 73.4343 101.696C73.5653 101.751 73.6835 101.833 73.7818 101.936C73.8802 102.038 73.9564 102.16 74.006 102.294C74.0556 102.427 74.0775 102.569 74.0702 102.711L73.7762 109.182C73.7597 109.479 73.6301 109.758 73.4139 109.962C73.1977 110.166 72.9115 110.28 72.6142 110.279Z" fill="#FFC100"/>
<path d="M82.4952 110.279H76.0244C75.8822 110.28 75.7413 110.252 75.6103 110.197C75.4794 110.141 75.3611 110.06 75.2628 109.957C75.1645 109.854 75.0882 109.732 75.0386 109.599C74.989 109.466 74.9672 109.324 74.9744 109.182L75.2544 102.711C75.2701 102.417 75.3972 102.139 75.6099 101.936C75.8226 101.732 76.105 101.616 76.3996 101.613H82.8732C83.0153 101.612 83.1561 101.64 83.287 101.696C83.4178 101.751 83.5359 101.833 83.634 101.936C83.7321 102.039 83.8081 102.16 83.8573 102.294C83.9066 102.427 83.9281 102.569 83.9204 102.711L83.6404 109.182C83.6241 109.476 83.4968 109.753 83.2843 109.956C83.0717 110.16 82.7897 110.275 82.4952 110.279Z" fill="#FFC100"/>
<path d="M92.3766 110.279H85.9002C85.7581 110.28 85.6173 110.252 85.4865 110.197C85.3556 110.141 85.2375 110.06 85.1394 109.957C85.0414 109.854 84.9653 109.732 84.9161 109.599C84.8668 109.466 84.8453 109.324 84.853 109.182L85.133 102.711C85.15 102.417 85.2779 102.14 85.4909 101.936C85.7039 101.732 85.9863 101.617 86.281 101.613H92.7546C92.8967 101.612 93.0375 101.64 93.1683 101.696C93.2991 101.751 93.4172 101.833 93.5153 101.936C93.6134 102.039 93.6894 102.16 93.7387 102.294C93.788 102.427 93.8094 102.569 93.8018 102.711L93.5218 109.182C93.5048 109.475 93.3773 109.752 93.1649 109.956C92.9524 110.159 92.6708 110.275 92.3766 110.279Z" fill="#FFC100"/>
<path d="M102.258 110.279H95.7839C95.6418 110.28 95.5011 110.252 95.3702 110.197C95.2394 110.141 95.1213 110.06 95.0232 109.957C94.9251 109.854 94.8491 109.732 94.7998 109.599C94.7506 109.466 94.7291 109.324 94.7367 109.182L95.0167 102.711C95.0331 102.416 95.1608 102.139 95.3739 101.935C95.5871 101.732 95.8698 101.616 96.1647 101.613H102.636C102.778 101.612 102.919 101.64 103.05 101.696C103.181 101.751 103.299 101.833 103.397 101.936C103.496 102.038 103.572 102.16 103.621 102.294C103.671 102.427 103.693 102.569 103.686 102.711L103.392 109.182C103.376 109.474 103.251 109.75 103.04 109.953C102.83 110.157 102.55 110.273 102.258 110.279Z" fill="#FFC100"/>
<g opacity="0.8">
<path opacity="0.8" d="M52.8599 110.279H46.3807C46.2386 110.28 46.0978 110.252 45.967 110.197C45.8361 110.141 45.7181 110.06 45.62 109.957C45.5219 109.854 45.4459 109.732 45.3966 109.599C45.3473 109.466 45.3259 109.324 45.3335 109.182L45.6135 102.711C45.6305 102.417 45.7584 102.14 45.9714 101.936C46.1844 101.732 46.4668 101.617 46.7615 101.613H53.2351C53.3772 101.612 53.518 101.64 53.6488 101.696C53.7796 101.751 53.8977 101.833 53.9958 101.936C54.0939 102.039 54.1699 102.16 54.2192 102.294C54.2685 102.427 54.2899 102.569 54.2823 102.711L54.0023 109.182C53.986 109.475 53.8591 109.752 53.6471 109.955C53.4351 110.159 53.1538 110.275 52.8599 110.279Z" fill="#FAFAFA"/>
<path opacity="0.8" d="M62.7355 110.279H56.2619C56.1198 110.28 55.979 110.252 55.8482 110.197C55.7173 110.141 55.5992 110.06 55.5011 109.957C55.403 109.854 55.327 109.732 55.2778 109.599C55.2285 109.466 55.207 109.324 55.2147 109.182L55.4947 102.711C55.511 102.416 55.6387 102.139 55.8519 101.935C56.0651 101.732 56.3478 101.616 56.6427 101.613H63.1135C63.2558 101.612 63.3969 101.64 63.5281 101.695C63.6592 101.75 63.7776 101.832 63.876 101.935C63.9744 102.038 64.0507 102.16 64.1001 102.293C64.1496 102.427 64.1711 102.569 64.1635 102.711L63.8835 109.182C63.8678 109.476 63.7403 109.754 63.527 109.958C63.3137 110.162 63.0306 110.277 62.7355 110.279Z" fill="#FAFAFA"/>
<path opacity="0.8" d="M72.6138 110.279H66.143C66.0009 110.28 65.8601 110.252 65.7293 110.197C65.5985 110.141 65.4804 110.06 65.3823 109.957C65.2842 109.854 65.2082 109.732 65.1589 109.599C65.1097 109.466 65.0882 109.324 65.0958 109.182L65.3758 102.711C65.3922 102.416 65.5199 102.139 65.733 101.935C65.9462 101.732 66.2289 101.616 66.5238 101.613H73.0198C73.1621 101.612 73.303 101.64 73.4339 101.696C73.5649 101.751 73.6832 101.833 73.7815 101.936C73.8798 102.038 73.9561 102.16 74.0057 102.294C74.0552 102.427 74.0771 102.569 74.0698 102.711L73.7758 109.182C73.7594 109.479 73.6297 109.758 73.4135 109.962C73.1974 110.166 72.9112 110.28 72.6138 110.279Z" fill="#FAFAFA"/>
<path opacity="0.8" d="M82.4952 110.279H76.0244C75.8822 110.28 75.7413 110.252 75.6103 110.197C75.4794 110.141 75.3611 110.06 75.2628 109.957C75.1645 109.854 75.0882 109.732 75.0386 109.599C74.989 109.466 74.9672 109.324 74.9744 109.182L75.2544 102.711C75.2701 102.417 75.3972 102.139 75.6099 101.936C75.8226 101.732 76.105 101.616 76.3996 101.613H82.8732C83.0153 101.612 83.1561 101.64 83.287 101.696C83.4178 101.751 83.5359 101.833 83.634 101.936C83.7321 102.039 83.8081 102.16 83.8573 102.294C83.9066 102.427 83.9281 102.569 83.9204 102.711L83.6404 109.182C83.6241 109.476 83.4968 109.753 83.2843 109.956C83.0717 110.16 82.7897 110.275 82.4952 110.279Z" fill="#FAFAFA"/>
<path opacity="0.8" d="M92.3762 110.279H85.8998C85.7577 110.28 85.6169 110.252 85.4861 110.197C85.3553 110.141 85.2372 110.06 85.1391 109.957C85.041 109.854 84.965 109.732 84.9157 109.599C84.8664 109.466 84.845 109.324 84.8526 109.182L85.1326 102.711C85.1496 102.417 85.2775 102.14 85.4905 101.936C85.7036 101.732 85.9859 101.617 86.2806 101.613H92.7542C92.8963 101.612 93.0371 101.64 93.1679 101.696C93.2987 101.751 93.4168 101.833 93.5149 101.936C93.613 102.039 93.689 102.16 93.7383 102.294C93.7876 102.427 93.8091 102.569 93.8014 102.711L93.5214 109.182C93.5045 109.475 93.377 109.752 93.1645 109.956C92.9521 110.159 92.6704 110.275 92.3762 110.279Z" fill="#FAFAFA"/>
<path opacity="0.8" d="M102.258 110.279H95.7839C95.6418 110.28 95.5011 110.252 95.3702 110.197C95.2394 110.141 95.1213 110.06 95.0232 109.957C94.9251 109.854 94.8491 109.732 94.7998 109.599C94.7506 109.466 94.7291 109.324 94.7367 109.182L95.0167 102.711C95.0331 102.416 95.1608 102.139 95.3739 101.935C95.5871 101.732 95.8698 101.616 96.1647 101.613H102.636C102.778 101.612 102.919 101.64 103.05 101.696C103.181 101.751 103.299 101.833 103.397 101.936C103.496 102.038 103.572 102.16 103.621 102.294C103.671 102.427 103.693 102.569 103.686 102.711L103.392 109.182C103.376 109.474 103.251 109.75 103.04 109.953C102.83 110.157 102.55 110.273 102.258 110.279Z" fill="#FAFAFA"/>
</g>
<path d="M51.026 76.2832C48.6404 76.2832 46.77 73.5084 46.77 69.9664C46.77 66.4243 48.6404 63.6523 51.026 63.6523C53.4116 63.6523 55.2848 66.4271 55.2848 69.9664C55.2739 70.1324 55.2003 70.288 55.0789 70.4017C54.9575 70.5155 54.7973 70.5787 54.631 70.5787C54.4646 70.5787 54.3045 70.5155 54.1831 70.4017C54.0617 70.288 53.9881 70.1324 53.9772 69.9664C53.9772 67.2531 52.6276 64.9571 51.026 64.9571C49.4244 64.9571 48.0748 67.2531 48.0748 69.9664C48.0748 72.6796 49.4272 74.9756 51.026 74.9756C51.1154 74.9697 51.2052 74.9823 51.2896 75.0125C51.374 75.0427 51.4513 75.0899 51.5167 75.1512C51.5821 75.2124 51.6343 75.2865 51.6699 75.3688C51.7056 75.451 51.724 75.5397 51.724 75.6294C51.724 75.719 51.7056 75.8077 51.6699 75.89C51.6343 75.9722 51.5821 76.0463 51.5167 76.1076C51.4513 76.1688 51.374 76.216 51.2896 76.2462C51.2052 76.2765 51.1154 76.289 51.026 76.2832Z" fill="#FFC100"/>
<path d="M60.9072 76.2832C58.5216 76.2832 56.6512 73.5084 56.6512 69.9664C56.6512 66.4243 58.5216 63.6523 60.9072 63.6523C63.2928 63.6523 65.18 66.4271 65.18 69.9664C65.1691 70.1324 65.0955 70.288 64.9741 70.4017C64.8526 70.5155 64.6925 70.5787 64.5262 70.5787C64.3598 70.5787 64.1997 70.5155 64.0783 70.4017C63.9568 70.288 63.8832 70.1324 63.8724 69.9664C63.8724 67.2531 62.5228 64.9571 60.9212 64.9571C59.3196 64.9571 57.97 67.2531 57.97 69.9664C57.97 72.6796 59.3224 74.9756 60.9212 74.9756C61.0872 74.9864 61.2428 75.06 61.3565 75.1815C61.4703 75.3029 61.5335 75.463 61.5335 75.6294C61.5335 75.7957 61.4703 75.9558 61.3565 76.0773C61.2428 76.1987 61.0872 76.2723 60.9212 76.2832H60.9072Z" fill="#FFC100"/>
<path d="M70.7799 76.2832C68.3915 76.2832 66.5211 73.5084 66.5211 69.9664C66.5211 66.4243 68.3915 63.6523 70.7799 63.6523C73.1683 63.6523 75.0359 66.4271 75.0359 69.9664C75.0359 70.1394 74.9672 70.3053 74.8449 70.4277C74.7225 70.55 74.5566 70.6188 74.3835 70.6188C74.2105 70.6188 74.0446 70.55 73.9222 70.4277C73.7999 70.3053 73.7311 70.1394 73.7311 69.9664C73.7311 67.2531 72.3787 64.9571 70.7799 64.9571C69.1811 64.9571 67.8288 67.2531 67.8288 69.9664C67.8288 72.6796 69.1811 74.9756 70.7799 74.9756C70.9459 74.9864 71.1016 75.06 71.2153 75.1815C71.3291 75.3029 71.3923 75.463 71.3923 75.6294C71.3923 75.7957 71.3291 75.9558 71.2153 76.0773C71.1016 76.1987 70.9459 76.2723 70.7799 76.2832Z" fill="#FFC100"/>
<path d="M80.6697 76.2832C78.2813 76.2832 76.4109 73.5084 76.4109 69.9664C76.4109 66.4243 78.2813 63.6523 80.6697 63.6523C83.0581 63.6523 84.9257 66.4271 84.9257 69.9664C84.9257 70.1394 84.8569 70.3053 84.7346 70.4277C84.6123 70.55 84.4463 70.6188 84.2733 70.6188C84.1003 70.6188 83.9343 70.55 83.812 70.4277C83.6896 70.3053 83.6209 70.1394 83.6209 69.9664C83.6209 67.2531 82.2685 64.9571 80.6697 64.9571C79.0709 64.9571 77.7185 67.2531 77.7185 69.9664C77.7185 72.6796 79.0681 74.9756 80.6697 74.9756C80.8357 74.9864 80.9913 75.06 81.1051 75.1815C81.2188 75.3029 81.2821 75.463 81.2821 75.6294C81.2821 75.7957 81.2188 75.9558 81.1051 76.0773C80.9913 76.1987 80.8357 76.2723 80.6697 76.2832Z" fill="#FFC100"/>
<path d="M90.5481 76.2832C88.1625 76.2832 86.2921 73.5084 86.2921 69.9664C86.2921 66.4243 88.1625 63.6523 90.5481 63.6523C92.9337 63.6523 94.8068 66.4271 94.8068 69.9664C94.796 70.1324 94.7224 70.288 94.601 70.4017C94.4795 70.5155 94.3194 70.5787 94.153 70.5787C93.9867 70.5787 93.8266 70.5155 93.7051 70.4017C93.5837 70.288 93.5101 70.1324 93.4993 69.9664C93.4993 67.2531 92.1497 64.9571 90.5481 64.9571C88.9465 64.9571 87.5969 67.2531 87.5969 69.9664C87.5969 72.6796 88.9493 74.9756 90.5481 74.9756C90.6375 74.9697 90.7272 74.9823 90.8116 75.0125C90.896 75.0427 90.9733 75.0899 91.0388 75.1512C91.1042 75.2124 91.1564 75.2865 91.192 75.3688C91.2277 75.451 91.2461 75.5397 91.2461 75.6294C91.2461 75.719 91.2277 75.8077 91.192 75.89C91.1564 75.9722 91.1042 76.0463 91.0388 76.1076C90.9733 76.1688 90.896 76.216 90.8116 76.2462C90.7272 76.2765 90.6375 76.289 90.5481 76.2832Z" fill="#FFC100"/>
<path d="M100.429 76.2832C98.0437 76.2832 96.1732 73.5084 96.1732 69.9664C96.1732 66.4243 98.0437 63.6523 100.429 63.6523C102.815 63.6523 104.688 66.4271 104.688 69.9664C104.677 70.1324 104.604 70.288 104.482 70.4017C104.361 70.5155 104.201 70.5787 104.034 70.5787C103.868 70.5787 103.708 70.5155 103.586 70.4017C103.465 70.288 103.391 70.1324 103.38 69.9664C103.38 67.2531 102.028 64.9571 100.429 64.9571C98.8304 64.9571 97.478 67.2531 97.478 69.9664C97.478 72.6796 98.8304 74.9756 100.429 74.9756C100.595 74.9864 100.751 75.06 100.865 75.1815C100.978 75.3029 101.042 75.463 101.042 75.6294C101.042 75.7957 100.978 75.9558 100.865 76.0773C100.751 76.1987 100.595 76.2723 100.429 76.2832Z" fill="#FFC100"/>
<g opacity="0.3">
<path opacity="0.3" d="M51.026 76.2832C48.6404 76.2832 46.77 73.5084 46.77 69.9664C46.77 66.4243 48.6404 63.6523 51.026 63.6523C53.4116 63.6523 55.2848 66.4271 55.2848 69.9664C55.2739 70.1324 55.2003 70.288 55.0789 70.4017C54.9575 70.5155 54.7973 70.5787 54.631 70.5787C54.4646 70.5787 54.3045 70.5155 54.1831 70.4017C54.0617 70.288 53.9881 70.1324 53.9772 69.9664C53.9772 67.2531 52.6276 64.9571 51.026 64.9571C49.4244 64.9571 48.0748 67.2531 48.0748 69.9664C48.0748 72.6796 49.4272 74.9756 51.026 74.9756C51.1154 74.9697 51.2052 74.9823 51.2896 75.0125C51.374 75.0427 51.4513 75.0899 51.5167 75.1512C51.5821 75.2124 51.6343 75.2865 51.6699 75.3688C51.7056 75.451 51.724 75.5397 51.724 75.6294C51.724 75.719 51.7056 75.8077 51.6699 75.89C51.6343 75.9722 51.5821 76.0463 51.5167 76.1076C51.4513 76.1688 51.374 76.216 51.2896 76.2462C51.2052 76.2765 51.1154 76.289 51.026 76.2832Z" fill="black"/>
<path opacity="0.3" d="M60.9072 76.2832C58.5216 76.2832 56.6512 73.5084 56.6512 69.9664C56.6512 66.4243 58.5216 63.6523 60.9072 63.6523C63.2928 63.6523 65.18 66.4271 65.18 69.9664C65.1691 70.1324 65.0955 70.288 64.9741 70.4017C64.8526 70.5155 64.6925 70.5787 64.5262 70.5787C64.3598 70.5787 64.1997 70.5155 64.0783 70.4017C63.9568 70.288 63.8832 70.1324 63.8724 69.9664C63.8724 67.2531 62.5228 64.9571 60.9212 64.9571C59.3196 64.9571 57.97 67.2531 57.97 69.9664C57.97 72.6796 59.3224 74.9756 60.9212 74.9756C61.0872 74.9864 61.2428 75.06 61.3565 75.1815C61.4703 75.3029 61.5335 75.463 61.5335 75.6294C61.5335 75.7957 61.4703 75.9558 61.3565 76.0773C61.2428 76.1987 61.0872 76.2723 60.9212 76.2832H60.9072Z" fill="black"/>
<path opacity="0.3" d="M70.7799 76.2832C68.3915 76.2832 66.5211 73.5084 66.5211 69.9664C66.5211 66.4243 68.3915 63.6523 70.7799 63.6523C73.1683 63.6523 75.0359 66.4271 75.0359 69.9664C75.0359 70.1394 74.9672 70.3053 74.8449 70.4277C74.7225 70.55 74.5566 70.6188 74.3835 70.6188C74.2105 70.6188 74.0446 70.55 73.9222 70.4277C73.7999 70.3053 73.7311 70.1394 73.7311 69.9664C73.7311 67.2531 72.3787 64.9571 70.7799 64.9571C69.1811 64.9571 67.8288 67.2531 67.8288 69.9664C67.8288 72.6796 69.1811 74.9756 70.7799 74.9756C70.9459 74.9864 71.1016 75.06 71.2153 75.1815C71.3291 75.3029 71.3923 75.463 71.3923 75.6294C71.3923 75.7957 71.3291 75.9558 71.2153 76.0773C71.1016 76.1987 70.9459 76.2723 70.7799 76.2832Z" fill="black"/>
<path opacity="0.3" d="M80.6697 76.2832C78.2813 76.2832 76.4109 73.5084 76.4109 69.9664C76.4109 66.4243 78.2813 63.6523 80.6697 63.6523C83.0581 63.6523 84.9257 66.4271 84.9257 69.9664C84.9257 70.1394 84.8569 70.3053 84.7346 70.4277C84.6123 70.55 84.4463 70.6188 84.2733 70.6188C84.1003 70.6188 83.9343 70.55 83.812 70.4277C83.6896 70.3053 83.6209 70.1394 83.6209 69.9664C83.6209 67.2531 82.2685 64.9571 80.6697 64.9571C79.0709 64.9571 77.7185 67.2531 77.7185 69.9664C77.7185 72.6796 79.0681 74.9756 80.6697 74.9756C80.8357 74.9864 80.9913 75.06 81.1051 75.1815C81.2188 75.3029 81.2821 75.463 81.2821 75.6294C81.2821 75.7957 81.2188 75.9558 81.1051 76.0773C80.9913 76.1987 80.8357 76.2723 80.6697 76.2832Z" fill="black"/>
<path opacity="0.3" d="M90.5481 76.2832C88.1625 76.2832 86.2921 73.5084 86.2921 69.9664C86.2921 66.4243 88.1625 63.6523 90.5481 63.6523C92.9337 63.6523 94.8068 66.4271 94.8068 69.9664C94.796 70.1324 94.7224 70.288 94.601 70.4017C94.4795 70.5155 94.3194 70.5787 94.153 70.5787C93.9867 70.5787 93.8266 70.5155 93.7051 70.4017C93.5837 70.288 93.5101 70.1324 93.4993 69.9664C93.4993 67.2531 92.1497 64.9571 90.5481 64.9571C88.9465 64.9571 87.5969 67.2531 87.5969 69.9664C87.5969 72.6796 88.9493 74.9756 90.5481 74.9756C90.6375 74.9697 90.7272 74.9823 90.8116 75.0125C90.896 75.0427 90.9733 75.0899 91.0388 75.1512C91.1042 75.2124 91.1564 75.2865 91.192 75.3688C91.2277 75.451 91.2461 75.5397 91.2461 75.6294C91.2461 75.719 91.2277 75.8077 91.192 75.89C91.1564 75.9722 91.1042 76.0463 91.0388 76.1076C90.9733 76.1688 90.896 76.216 90.8116 76.2462C90.7272 76.2765 90.6375 76.289 90.5481 76.2832Z" fill="black"/>
<path opacity="0.3" d="M100.429 76.2832C98.0436 76.2832 96.1732 73.5084 96.1732 69.9664C96.1732 66.4243 98.0436 63.6523 100.429 63.6523C102.815 63.6523 104.688 66.4271 104.688 69.9664C104.677 70.1324 104.604 70.288 104.482 70.4017C104.361 70.5155 104.201 70.5787 104.034 70.5787C103.868 70.5787 103.708 70.5155 103.586 70.4017C103.465 70.288 103.391 70.1324 103.38 69.9664C103.38 67.2531 102.028 64.9571 100.429 64.9571C98.8304 64.9571 97.478 67.2531 97.478 69.9664C97.478 72.6796 98.8304 74.9756 100.429 74.9756C100.595 74.9864 100.751 75.06 100.865 75.1815C100.978 75.3029 101.042 75.463 101.042 75.6294C101.042 75.7957 100.978 75.9558 100.865 76.0773C100.751 76.1987 100.595 76.2723 100.429 76.2832Z" fill="black"/>
</g>
<path d="M81.3305 90.5576C79.0457 90.104 76.4809 90.6332 75.5653 93.0412C74.8289 94.9788 75.7725 97.0788 77.8053 97.5912C79.5973 98.042 82.6885 97.4904 83.3269 95.424C84.0577 93.0608 81.0869 92.2936 79.4209 92.1536C78.9197 92.1116 78.9225 92.8956 79.4209 92.9376C80.1797 93.002 81.0477 93.044 81.7197 93.4612C83.1197 94.3376 82.5429 95.7432 81.3501 96.4152C80.1573 97.0872 78.3289 97.2552 77.1501 96.5104C75.8621 95.69 75.8201 93.8868 76.5901 92.7108C77.6009 91.1568 79.4461 90.9832 81.1093 91.3108C81.6021 91.4088 81.8121 90.6528 81.3165 90.5548L81.3305 90.5576Z" fill="#FFC100"/>
<path opacity="0.1" d="M81.3305 90.5576C79.0457 90.104 76.4809 90.6332 75.5653 93.0412C74.8289 94.9788 75.7725 97.0788 77.8053 97.5912C79.5973 98.042 82.6885 97.4904 83.3269 95.424C84.0577 93.0608 81.0869 92.2936 79.4209 92.1536C78.9197 92.1116 78.9225 92.8956 79.4209 92.9376C80.1797 93.002 81.0477 93.044 81.7197 93.4612C83.1197 94.3376 82.5429 95.7432 81.3501 96.4152C80.1573 97.0872 78.3289 97.2552 77.1501 96.5104C75.8621 95.69 75.8201 93.8868 76.5901 92.7108C77.6009 91.1568 79.4461 90.9832 81.1093 91.3108C81.6021 91.4088 81.8121 90.6528 81.3165 90.5548L81.3305 90.5576Z" fill="#FAFAFA"/>
<path d="M56.122 81.5378C58.307 84.4345 60.7431 87.1329 63.402 89.6018C63.7716 89.9462 64.3288 89.3918 63.962 89.0418C61.3486 86.6217 58.9529 83.9767 56.8024 81.1374C56.5028 80.7398 55.8224 81.1374 56.1276 81.5322L56.122 81.5378Z" fill="#FFC100"/>
<path d="M56.931 89.2732C58.583 86.336 61.4754 83.83 64.211 81.912C64.6198 81.632 64.2306 80.9432 63.8162 81.2344C60.9714 83.2336 57.981 85.8152 56.2562 88.8756C56.2089 88.9648 56.1978 89.0688 56.2252 89.1659C56.2527 89.2631 56.3165 89.3459 56.4035 89.3972C56.4905 89.4484 56.5939 89.4641 56.6921 89.441C56.7904 89.4179 56.876 89.3578 56.931 89.2732Z" fill="#FFC100"/>
<g opacity="0.2">
<path opacity="0.2" d="M56.122 81.5378C58.307 84.4345 60.7431 87.1329 63.402 89.6018C63.7716 89.9462 64.3288 89.3918 63.962 89.0418C61.3486 86.6217 58.9529 83.9767 56.8024 81.1374C56.5028 80.7398 55.8224 81.1374 56.1276 81.5322L56.122 81.5378Z" fill="black"/>
<path opacity="0.2" d="M56.931 89.2732C58.583 86.336 61.4754 83.83 64.211 81.912C64.6198 81.632 64.2306 80.9432 63.8162 81.2344C60.9714 83.2336 57.981 85.8152 56.2562 88.8756C56.2089 88.9648 56.1978 89.0688 56.2252 89.1659C56.2527 89.2631 56.3165 89.3459 56.4035 89.3972C56.4905 89.4484 56.5939 89.4641 56.6921 89.441C56.7904 89.4179 56.876 89.3578 56.931 89.2732Z" fill="black"/>
</g>
<path d="M87.2635 84.0429H92.3735C92.4714 84.0346 92.5626 83.9899 92.629 83.9175C92.6955 83.8452 92.7324 83.7506 92.7324 83.6523C92.7324 83.5541 92.6955 83.4594 92.629 83.3871C92.5626 83.3148 92.4714 83.27 92.3735 83.2617H87.2635C87.1656 83.27 87.0744 83.3148 87.0079 83.3871C86.9415 83.4594 86.9046 83.5541 86.9046 83.6523C86.9046 83.7506 86.9415 83.8452 87.0079 83.9175C87.0744 83.9899 87.1656 84.0346 87.2635 84.0429Z" fill="#FFC100"/>
<path d="M87.205 85.4989H90.1674C90.2713 85.4989 90.371 85.4576 90.4445 85.384C90.5181 85.3105 90.5594 85.2108 90.5594 85.1069C90.5594 85.0029 90.5181 84.9032 90.4445 84.8297C90.371 84.7561 90.2713 84.7148 90.1674 84.7148H87.205C87.101 84.7148 87.0013 84.7561 86.9278 84.8297C86.8543 84.9032 86.813 85.0029 86.813 85.1069C86.813 85.2108 86.8543 85.3105 86.9278 85.384C87.0013 85.4576 87.101 85.4989 87.205 85.4989Z" fill="#FFC100"/>
<g opacity="0.1">
<path opacity="0.1" d="M87.2638 84.0429H92.3738C92.4717 84.0346 92.5629 83.9899 92.6294 83.9175C92.6958 83.8452 92.7327 83.7506 92.7327 83.6523C92.7327 83.5541 92.6958 83.4594 92.6294 83.3871C92.5629 83.3148 92.4717 83.27 92.3738 83.2617H87.2638C87.1659 83.27 87.0747 83.3148 87.0083 83.3871C86.9418 83.4594 86.9049 83.5541 86.9049 83.6523C86.9049 83.7506 86.9418 83.8452 87.0083 83.9175C87.0747 83.9899 87.1659 84.0346 87.2638 84.0429Z" fill="#FAFAFA"/>
<path opacity="0.1" d="M87.205 85.4949H90.1674C90.2713 85.4949 90.371 85.4536 90.4445 85.3801C90.5181 85.3066 90.5594 85.2069 90.5594 85.1029C90.5594 84.999 90.5181 84.8993 90.4445 84.8258C90.371 84.7522 90.2713 84.7109 90.1674 84.7109H87.205C87.101 84.7109 87.0013 84.7522 86.9278 84.8258C86.8543 84.8993 86.813 84.999 86.813 85.1029C86.813 85.2069 86.8543 85.3066 86.9278 85.3801C87.0013 85.4536 87.101 85.4949 87.205 85.4949Z" fill="#FAFAFA"/>
</g>
<path d="M56.6567 104.104H61.0387C61.1426 104.104 61.2424 104.063 61.3159 103.989C61.3894 103.916 61.4307 103.816 61.4307 103.712C61.4307 103.608 61.3894 103.509 61.3159 103.435C61.2424 103.362 61.1426 103.32 61.0387 103.32H56.6567C56.5527 103.32 56.453 103.362 56.3795 103.435C56.306 103.509 56.2647 103.608 56.2647 103.712C56.2647 103.816 56.306 103.916 56.3795 103.989C56.453 104.063 56.5527 104.104 56.6567 104.104Z" fill="#FFC100"/>
<path d="M56.4999 105.788H62.1839C62.2879 105.788 62.3876 105.747 62.4611 105.673C62.5346 105.6 62.5759 105.5 62.5759 105.396C62.5759 105.292 62.5346 105.192 62.4611 105.119C62.3876 105.045 62.2879 105.004 62.1839 105.004H56.4999C56.396 105.004 56.2963 105.045 56.2227 105.119C56.1492 105.192 56.1079 105.292 56.1079 105.396C56.1079 105.5 56.1492 105.6 56.2227 105.673C56.2963 105.747 56.396 105.788 56.4999 105.788Z" fill="#FFC100"/>
<path d="M56.4999 107.518H59.3419C59.4459 107.518 59.5456 107.477 59.6191 107.404C59.6926 107.33 59.7339 107.23 59.7339 107.126C59.7339 107.022 59.6926 106.923 59.6191 106.849C59.5456 106.776 59.4459 106.734 59.3419 106.734H56.4999C56.396 106.734 56.2963 106.776 56.2227 106.849C56.1492 106.923 56.1079 107.022 56.1079 107.126C56.1079 107.23 56.1492 107.33 56.2227 107.404C56.2963 107.477 56.396 107.518 56.4999 107.518Z" fill="#FFC100"/>
<g opacity="0.1">
<path opacity="0.1" d="M56.6567 104.104H61.0387C61.1426 104.104 61.2424 104.063 61.3159 103.989C61.3894 103.916 61.4307 103.816 61.4307 103.712C61.4307 103.608 61.3894 103.509 61.3159 103.435C61.2424 103.362 61.1426 103.32 61.0387 103.32H56.6567C56.5527 103.32 56.453 103.362 56.3795 103.435C56.306 103.509 56.2647 103.608 56.2647 103.712C56.2647 103.816 56.306 103.916 56.3795 103.989C56.453 104.063 56.5527 104.104 56.6567 104.104Z" fill="#FAFAFA"/>
<path opacity="0.1" d="M56.4999 105.788H62.1839C62.2879 105.788 62.3876 105.747 62.4611 105.673C62.5346 105.6 62.5759 105.5 62.5759 105.396C62.5759 105.292 62.5346 105.192 62.4611 105.119C62.3876 105.045 62.2879 105.004 62.1839 105.004H56.4999C56.396 105.004 56.2963 105.045 56.2227 105.119C56.1492 105.192 56.1079 105.292 56.1079 105.396C56.1079 105.5 56.1492 105.6 56.2227 105.673C56.2963 105.747 56.396 105.788 56.4999 105.788Z" fill="#FAFAFA"/>
<path opacity="0.1" d="M56.4999 107.518H59.3419C59.4459 107.518 59.5456 107.477 59.6191 107.404C59.6926 107.33 59.7339 107.23 59.7339 107.126C59.7339 107.022 59.6926 106.923 59.6191 106.849C59.5456 106.776 59.4459 106.734 59.3419 106.734H56.4999C56.396 106.734 56.2963 106.776 56.2227 106.849C56.1492 106.923 56.1079 107.022 56.1079 107.126C56.1079 107.23 56.1492 107.33 56.2227 107.404C56.2963 107.477 56.396 107.518 56.4999 107.518Z" fill="#FAFAFA"/>
</g>
<path d="M25.7533 60.1408L27.0777 60.082L26.4785 62.602C26.0059 62.2784 25.5751 61.8975 25.1961 61.468C25.0868 61.3395 25.0326 61.1731 25.0452 61.0048C25.0577 60.8366 25.1361 60.6801 25.2633 60.5692L25.7533 60.1408Z" fill="#E4897B"/>
<path d="M28.615 61.44L28.0214 63.4896L26.4786 62.5964L27.0778 60.082L28.615 61.44Z" fill="#E4897B"/>
<path d="M28.3539 49.2725L25.6439 49.5234L31.8594 116.652L34.5694 116.401L28.3539 49.2725Z" fill="#FFC100"/>
<path opacity="0.3" d="M28.3539 49.2725L25.6439 49.5234L31.8594 116.652L34.5694 116.401L28.3539 49.2725Z" fill="black"/>
<path d="M33.775 48.7686L31.0649 49.0195L37.2804 116.148L39.9905 115.897L33.775 48.7686Z" fill="#FFC100"/>
<path opacity="0.3" d="M33.775 48.7686L31.0649 49.0195L37.2804 116.148L39.9905 115.897L33.775 48.7686Z" fill="black"/>
<path d="M31.0657 49.0186L28.3557 49.2695L34.5712 116.398L37.2812 116.147L31.0657 49.0186Z" fill="#FFC100"/>
<path opacity="0.1" d="M31.0657 49.0186L28.3557 49.2695L34.5712 116.398L37.2812 116.147L31.0657 49.0186Z" fill="black"/>
<path d="M30.4937 44.3281L28.0549 44.5549L25.6441 49.5249L33.7753 48.7717L30.4937 44.3281Z" fill="#FFC100"/>
<g opacity="0.8">
<path opacity="0.8" d="M30.4937 44.3281L28.0549 44.5549L25.6441 49.5249L33.7753 48.7717L30.4937 44.3281Z" fill="#FAFAFA"/>
</g>
<path d="M29.0882 42.4219L28.055 44.5527L30.4938 44.3259L29.0882 42.4219Z" fill="#263238"/>
<path d="M49.5786 46.2148C49.8586 46.4948 50.091 46.7608 50.3318 47.0548C50.5726 47.3488 50.8022 47.6148 51.0318 47.8948C51.4938 48.4548 51.925 49.0456 52.345 49.6476C53.2108 50.8717 53.9412 52.186 54.5234 53.5676C54.5934 53.7468 54.6578 53.9344 54.725 54.1276L54.8258 54.4076C54.8813 54.5752 54.9207 54.7478 54.9434 54.9228C55.0042 55.4801 54.9302 56.0437 54.7278 56.5664C54.4256 57.338 54.0021 58.0564 53.4734 58.6944C52.5386 59.8386 51.4622 60.8594 50.2702 61.7324L49.2146 60.6124C50.0454 59.5739 50.805 58.4803 51.4882 57.3392C51.7875 56.8518 52.0174 56.325 52.1714 55.774C52.214 55.6388 52.2188 55.4946 52.1854 55.3568L52.0902 55.1496C52.0258 55.0124 51.9698 54.8696 51.8998 54.7352C51.3071 53.5851 50.6137 52.4898 49.8278 51.462C49.4358 50.9272 49.0214 50.4064 48.6014 49.8856C48.3914 49.628 48.1786 49.3704 47.9602 49.1184L47.3218 48.382L49.5786 46.2148Z" fill="#E4897B"/>
<path d="M47.5206 61.4665L48.7134 63.8269L49.881 62.8217L48.9234 61.1445L47.5206 61.4665Z" fill="#E4897B"/>
<path d="M38.5353 47.5996C37.8092 48.9828 37.055 50.3501 36.2729 51.7016C35.8893 52.382 35.4861 53.0512 35.0941 53.726L34.4921 54.734L34.3409 54.986C34.2653 55.1064 34.1813 55.2492 34.1057 55.3444C34.0301 55.4396 33.9545 55.5544 33.8817 55.6412C33.8089 55.728 33.7305 55.826 33.6577 55.9072C33.0921 56.5233 32.4899 57.1049 31.8545 57.6488C31.2413 58.1724 30.6281 58.682 29.9953 59.1664C28.7437 60.1436 27.4585 61.0536 26.1257 61.9216L25.1653 60.712L28.4833 57.4444C29.0265 56.8844 29.5753 56.358 30.0933 55.8036C30.6023 55.2818 31.0818 54.7322 31.5297 54.1572C31.5838 54.09 31.6314 54.0256 31.6725 53.964C31.7201 53.8968 31.7537 53.8408 31.7873 53.7848C31.8163 53.7397 31.8425 53.693 31.8657 53.6448L31.9945 53.3844L32.5125 52.3288C32.8681 51.6316 33.2153 50.9288 33.5765 50.2372C34.2914 48.8428 35.0381 47.4642 35.8165 46.1016L38.5353 47.5996Z" fill="#E4897B"/>
<path d="M46.395 38.1413C46.3586 38.3037 46.4174 38.4577 46.521 38.4857C46.6246 38.5137 46.7394 38.4017 46.7758 38.2393C46.8122 38.0769 46.7506 37.9229 46.647 37.8949C46.5434 37.8669 46.4202 37.9789 46.395 38.1413Z" fill="#263238"/>
<path d="M46.4004 38.4531C46.4881 38.9993 46.6482 39.5313 46.8764 40.0351C46.7475 40.0861 46.6091 40.1083 46.4707 40.1001C46.3324 40.0919 46.1975 40.0534 46.0756 39.9875L46.4004 38.4531Z" fill="#DE5753"/>
<path d="M46.8232 37.157C46.8033 37.1571 46.7838 37.1512 46.7672 37.1402C46.6638 37.077 46.5465 37.0399 46.4256 37.0321C46.3046 37.0243 46.1835 37.046 46.0728 37.0954C46.0486 37.1048 46.0217 37.1046 45.9978 37.0946C45.9738 37.0847 45.9545 37.0659 45.944 37.0422C45.9346 37.018 45.9349 36.9911 45.9448 36.9671C45.9547 36.9431 45.9735 36.9239 45.9972 36.9134C46.1388 36.8526 46.2929 36.827 46.4465 36.8387C46.6001 36.8504 46.7485 36.8991 46.8792 36.9806C46.8899 36.9876 46.899 36.9967 46.906 37.0074C46.9131 37.018 46.9179 37.0299 46.9203 37.0425C46.9226 37.055 46.9225 37.0679 46.9197 37.0803C46.917 37.0928 46.9118 37.1046 46.9044 37.115C46.8953 37.1281 46.8832 37.1387 46.869 37.1461C46.8549 37.1534 46.8392 37.1571 46.8232 37.157Z" fill="#263238"/>
<path d="M40.7304 38.7617C41.0832 40.2681 41.4836 43.0233 40.47 44.0285C40.47 44.0285 40.9404 45.5545 43.7376 45.5545C46.8176 45.5545 45.1376 44.0285 45.1376 44.0285C43.4436 43.6281 43.438 42.3821 43.6844 41.2145L40.7304 38.7617Z" fill="#E4897B"/>
<path d="M40.0894 44.5495C39.8486 44.0679 39.5854 43.5135 40.0894 43.3399C40.6326 43.1495 43.6482 42.9563 44.7038 43.3119C44.9851 43.3872 45.226 43.569 45.3755 43.8188C45.5249 44.0687 45.5713 44.3669 45.5046 44.6503L40.0894 44.5495Z" fill="#FFC100"/>
<path opacity="0.6" d="M40.0894 44.5495C39.8486 44.0679 39.5854 43.5135 40.0894 43.3399C40.6326 43.1495 43.6482 42.9563 44.7038 43.3119C44.9851 43.3872 45.226 43.569 45.3755 43.8188C45.5249 44.0687 45.5713 44.3669 45.5046 44.6503L40.0894 44.5495Z" fill="#FAFAFA"/>
<path d="M36.0602 114.798C35.8795 114.797 35.6993 114.777 35.5226 114.739C35.5135 114.738 35.5052 114.733 35.4987 114.727C35.4921 114.72 35.4878 114.712 35.4862 114.703C35.4843 114.693 35.4852 114.684 35.4887 114.675C35.4921 114.666 35.4981 114.658 35.5058 114.652C35.5282 114.636 36.0658 114.249 36.3794 114.316C36.4133 114.322 36.4454 114.336 36.4735 114.356C36.5016 114.375 36.5249 114.401 36.5418 114.431C36.567 114.465 36.5807 114.506 36.5807 114.547C36.5807 114.589 36.567 114.63 36.5418 114.664C36.4746 114.773 36.2702 114.798 36.0602 114.798ZM35.6598 114.669C35.9678 114.72 36.3878 114.72 36.4718 114.605C36.4718 114.605 36.5054 114.56 36.4578 114.479C36.4476 114.461 36.4334 114.446 36.4165 114.434C36.3995 114.422 36.3801 114.415 36.3598 114.412C36.1055 114.428 35.8619 114.52 35.6598 114.675V114.669Z" fill="#FAFAFA"/>
<path d="M35.5339 114.748H35.5087C35.5014 114.743 35.4954 114.737 35.4914 114.73C35.4875 114.722 35.4857 114.714 35.4863 114.706C35.4863 114.68 35.5115 114.087 35.7439 113.891C35.7717 113.866 35.8047 113.847 35.8404 113.836C35.8762 113.825 35.9139 113.822 35.9511 113.826C35.9888 113.826 36.0254 113.839 36.0545 113.863C36.0837 113.887 36.1035 113.921 36.1107 113.958C36.1555 114.188 35.7635 114.636 35.5507 114.75L35.5339 114.748ZM35.9175 113.908C35.8772 113.908 35.8385 113.923 35.8083 113.95C35.6709 114.138 35.5947 114.363 35.5899 114.596C35.7915 114.437 36.0407 114.098 36.0155 113.964C36.0155 113.95 36.0155 113.916 35.9399 113.908H35.9175Z" fill="#FAFAFA"/>
<path d="M48.4139 114.8C48.2016 114.8 47.9898 114.781 47.7811 114.742C47.7713 114.74 47.7622 114.735 47.7552 114.728C47.7482 114.721 47.7435 114.712 47.7419 114.702C47.7403 114.693 47.7416 114.683 47.7456 114.674C47.7496 114.665 47.7561 114.657 47.7643 114.652C47.8679 114.593 48.7807 114.07 49.0019 114.431C49.0241 114.462 49.036 114.5 49.036 114.539C49.036 114.577 49.0241 114.615 49.0019 114.646C48.9403 114.77 48.6771 114.8 48.4139 114.8ZM47.9351 114.669C48.3215 114.725 48.8423 114.716 48.9319 114.59C48.9319 114.59 48.9599 114.551 48.9179 114.481C48.7947 114.282 48.2403 114.52 47.9351 114.674V114.669Z" fill="#FAFAFA"/>
<path d="M47.7895 114.75C47.7803 114.752 47.7706 114.752 47.7615 114.75C47.7545 114.745 47.7489 114.738 47.7455 114.73C47.742 114.722 47.7408 114.713 47.7419 114.705C47.7419 114.682 47.7755 114.128 48.0219 113.912C48.0592 113.878 48.1038 113.853 48.1523 113.838C48.2007 113.824 48.2519 113.82 48.3019 113.828C48.4391 113.842 48.4783 113.912 48.4867 113.968C48.5259 114.206 48.0583 114.64 47.8119 114.752L47.7895 114.75ZM48.2599 113.91C48.1977 113.909 48.1376 113.932 48.0919 113.974C47.9447 114.154 47.8593 114.377 47.8483 114.61C48.0947 114.458 48.4083 114.114 48.3887 113.971C48.3887 113.957 48.3887 113.921 48.2879 113.91H48.2599Z" fill="#FAFAFA"/>
<path d="M45.5267 114.7H47.5848L47.6044 109.938H45.5491L45.5267 114.7Z" fill="#E4897B"/>
<path d="M33.1762 114.7H35.2342L36.0854 109.938H34.0274L33.1762 114.7Z" fill="#E4897B"/>
<path d="M35.3714 114.461H33.0614C33.0206 114.46 32.9809 114.474 32.9496 114.501C32.9182 114.527 32.8973 114.563 32.8906 114.604L32.5546 116.432C32.5477 116.478 32.5508 116.524 32.5636 116.568C32.5763 116.612 32.5985 116.653 32.6286 116.687C32.6587 116.722 32.696 116.75 32.7379 116.768C32.7797 116.787 32.8252 116.797 32.871 116.796C33.6774 116.782 34.0666 116.735 35.083 116.735C35.7074 116.735 36.9982 116.802 37.8634 116.802C38.7286 116.802 38.8042 115.962 38.4486 115.869C36.8498 115.522 36.2338 115.043 35.7102 114.59C35.6168 114.507 35.4963 114.461 35.3714 114.461Z" fill="#263238"/>
<path d="M47.5625 114.461H45.3225C45.2817 114.46 45.242 114.474 45.2107 114.501C45.1793 114.527 45.1584 114.563 45.1517 114.604L44.8157 116.432C44.8079 116.477 44.8101 116.523 44.8222 116.567C44.8343 116.612 44.8559 116.652 44.8856 116.687C44.9153 116.722 44.9522 116.75 44.9939 116.769C45.0355 116.787 45.0808 116.797 45.1265 116.796C45.9357 116.782 47.1033 116.735 48.1225 116.735C49.3153 116.735 50.3457 116.802 51.7429 116.802C52.5829 116.802 52.7873 115.962 52.4317 115.869C50.8077 115.517 49.4917 115.48 48.0693 114.623C47.9189 114.523 47.7433 114.467 47.5625 114.461Z" fill="#263238"/>
<path d="M36.5474 44.4923C34.635 44.9347 32.6274 50.1903 32.6274 50.1903L36.6006 52.8447C37.5128 51.4616 38.3124 50.0075 38.9918 48.4963C40.0418 46.0911 38.499 44.0415 36.5474 44.4923Z" fill="#FFC100"/>
<path opacity="0.7" d="M36.5474 44.4923C34.635 44.9347 32.6274 50.1903 32.6274 50.1903L36.6006 52.8447C37.5128 51.4616 38.3124 50.0075 38.9918 48.4963C40.0418 46.0911 38.499 44.0415 36.5474 44.4923Z" fill="black"/>
<path d="M38.0566 47.8438L36.413 52.7186L36.6006 52.8446C36.6006 52.8446 37.351 51.7246 38.149 50.2322L38.0566 47.8438Z" fill="#FFC100"/>
<path opacity="0.8" d="M38.0566 47.8438L36.413 52.7186L36.6006 52.8446C36.6006 52.8446 37.351 51.7246 38.149 50.2322L38.0566 47.8438Z" fill="black"/>
<path d="M49.3798 53.6826C49.363 55.9786 49.2258 58.8346 48.8842 62.3794H37.8802C37.7374 60.6994 38.4822 52.4506 36.5474 44.493C37.7577 44.2584 38.982 44.1031 40.2126 44.0282C41.77 43.9385 43.3312 43.9385 44.8886 44.0282C45.9626 44.1326 47.027 44.3198 48.0722 44.5882C48.0722 44.5882 49.013 45.6074 49.2986 50.387C49.3546 51.3418 49.3854 52.4282 49.3798 53.6826Z" fill="#FFC100"/>
<path opacity="0.7" d="M49.3798 53.6826C49.363 55.9786 49.2258 58.8346 48.8842 62.3794H37.8802C37.7374 60.6994 38.4822 52.4506 36.5474 44.493C37.7577 44.2584 38.982 44.1031 40.2126 44.0282C41.77 43.9385 43.3312 43.9385 44.8886 44.0282C45.9626 44.1326 47.027 44.3198 48.0722 44.5882C48.0722 44.5882 49.013 45.6074 49.2986 50.387C49.3546 51.3418 49.3854 52.4282 49.3798 53.6826Z" fill="black"/>
<path d="M49.3798 53.6806C48.7134 52.4654 47.5038 50.0266 47.6746 48.6406L49.2986 50.399C49.3546 51.3398 49.3854 52.4262 49.3798 53.6806Z" fill="#FFC100"/>
<path opacity="0.8" d="M49.3798 53.6806C48.7134 52.4654 47.5038 50.0266 47.6746 48.6406L49.2986 50.399C49.3546 51.3398 49.3854 52.4262 49.3798 53.6806Z" fill="black"/>
<path d="M45.9161 46.459C45.7425 48.419 50.1861 53.1342 50.1861 53.1342L53.7477 50.2334C52.8149 48.6593 51.6972 47.2023 50.4185 45.8934C48.3353 43.8802 46.1121 44.2638 45.9161 46.459Z" fill="#FFC100"/>
<path opacity="0.7" d="M45.9161 46.459C45.7425 48.419 50.1861 53.1342 50.1861 53.1342L53.7477 50.2334C52.8149 48.6593 51.6972 47.2023 50.4185 45.8934C48.3353 43.8802 46.1121 44.2638 45.9161 46.459Z" fill="black"/>
<path d="M47.6047 109.938L47.5935 112.39H45.5383L45.5467 109.938H47.6047Z" fill="#CE6F64"/>
<path d="M34.0273 109.938H36.0853L35.6457 112.39H33.5877L34.0273 109.938Z" fill="#CE6F64"/>
<path d="M41.1 36.4432C40.8004 38.4704 40.5232 39.6352 41.3016 40.9232C41.549 41.3404 41.9059 41.6818 42.3335 41.9106C42.7612 42.1393 43.2433 42.2467 43.7276 42.221C44.2119 42.1954 44.6799 42.0376 45.081 41.7649C45.482 41.4922 45.8008 41.115 46.0028 40.674C46.8064 38.994 47.1648 35.9588 45.398 34.6764C45.0252 34.3886 44.5831 34.204 44.1163 34.1411C43.6495 34.0783 43.1744 34.1395 42.7387 34.3186C42.3031 34.4977 41.9223 34.7883 41.6346 35.1613C41.3469 35.5343 41.1625 35.9764 41.1 36.4432Z" fill="#E4897B"/>
<path d="M47.1902 35.4812C46.5842 35.8121 45.9175 36.0169 45.2302 36.0832C44.7178 38.4268 43.3542 41.1232 41.1478 40.3476C40.3078 40.0676 39.4678 38.032 39.381 36.226C39.2354 36.4024 39.1374 36.632 39.0618 36.7272C38.9359 35.9246 39.0268 35.1029 39.325 34.3472C39.9354 32.6168 40.3414 33.7648 41.005 32.7148C41.4334 32.0204 42.195 31.662 43.525 31.6172C43.1526 31.8104 43.0826 32.1212 43.6342 32.0764C44.1858 32.0316 46.5406 31.9028 47.9126 32.8296C46.9858 33.0396 47.5514 34.5096 48.789 33.7256C48.3382 34.4564 47.7782 35.1508 47.1902 35.4812Z" fill="#263238"/>
<path d="M43.6453 37.6979C43.6531 38.2134 43.8258 38.7128 44.1381 39.1231C44.5553 39.6607 45.0341 39.4031 45.1489 38.7983C45.2497 38.2607 45.1489 37.3311 44.6281 37.0063C44.1073 36.6815 43.6425 37.0819 43.6453 37.6979Z" fill="#E4897B"/>
<path d="M41.1364 32.9338C40.8569 32.916 40.5861 32.8302 40.3474 32.6838C40.1088 32.5374 39.9096 32.3348 39.7672 32.0938C39.7672 32.0938 39.7308 33.7346 41.1364 32.9338Z" fill="#1E2A4C"/>
<path d="M44.9781 62.3784C44.9781 62.3784 43.2533 78.0976 42.1977 83.986C41.0441 90.426 36.5977 111.919 36.5977 111.919H32.8177C32.8177 111.919 35.5001 90.9552 36.0601 84.56C36.6621 77.63 37.8913 62.3672 37.8913 62.3672L44.9781 62.3784Z" fill="#FFC100"/>
<path opacity="0.6" d="M44.9781 62.3784C44.9781 62.3784 43.2533 78.0976 42.1977 83.986C41.0441 90.426 36.5977 111.919 36.5977 111.919H32.8177C32.8177 111.919 35.5001 90.9552 36.0601 84.56C36.6621 77.63 37.8913 62.3672 37.8913 62.3672L44.9781 62.3784Z" fill="#FAFAFA"/>
<path d="M37.1326 110.531C37.1494 110.531 36.7994 111.979 36.7994 111.979H32.563L32.591 110.688L37.1326 110.531Z" fill="#FFC100"/>
<path opacity="0.1" d="M37.1326 110.531C37.1494 110.531 36.7994 111.979 36.7994 111.979H32.563L32.591 110.688L37.1326 110.531Z" fill="#FAFAFA"/>
<path d="M43.7208 67.9788C41.0412 68.508 41.716 78.574 42.2396 83.7512C42.878 80.0916 43.746 73.0496 44.3312 68.0516C44.1418 67.9592 43.9267 67.9336 43.7208 67.9788Z" fill="#FFC100"/>
<path opacity="0.4" d="M43.7208 67.9788C41.0412 68.508 41.716 78.574 42.2396 83.7512C42.878 80.0916 43.746 73.0496 44.3312 68.0516C44.1418 67.9592 43.9267 67.9336 43.7208 67.9788Z" fill="#FAFAFA"/>
<path d="M48.8812 62.3789C48.8812 62.3789 49.7604 77.7565 49.7772 84.0313C49.7968 90.5553 48.3436 111.919 48.3436 111.919H44.8576C44.8576 111.919 43.9196 90.9361 43.5164 84.5297C43.0796 77.5437 41.6488 62.3789 41.6488 62.3789H48.8812Z" fill="#FFC100"/>
<path opacity="0.6" d="M48.8812 62.3789C48.8812 62.3789 49.7604 77.7565 49.7772 84.0313C49.7968 90.5553 48.3436 111.919 48.3436 111.919H44.8576C44.8576 111.919 43.9196 90.9361 43.5164 84.5297C43.0796 77.5437 41.6488 62.3789 41.6488 62.3789H48.8812Z" fill="#FAFAFA"/>
<path d="M49.7242 60.4023L48.747 60.4807C48.6674 60.4874 48.5902 60.5118 48.5212 60.552C48.4522 60.5922 48.393 60.6473 48.348 60.7133C48.3029 60.7792 48.2731 60.8544 48.2608 60.9334C48.2484 61.0123 48.2538 61.093 48.2766 61.1695L48.6798 62.5275C48.7138 62.6379 48.774 62.7384 48.8552 62.8204C48.9364 62.9025 49.0363 62.9638 49.1463 62.999C49.2562 63.0342 49.3731 63.0423 49.4869 63.0226C49.6006 63.0029 49.708 62.956 49.7998 62.8859C50.3045 62.4161 50.6665 61.8135 50.8442 61.1471L49.7242 60.4023Z" fill="#E4897B"/>
<path d="M47.5177 109.417C47.5083 109.415 47.4998 109.41 47.4936 109.403C47.4874 109.396 47.4841 109.387 47.4841 109.377C47.8705 103.467 48.7666 89.1613 48.7498 84.0317C48.7498 78.7817 48.1114 67.0385 47.9098 63.5637C47.9094 63.5591 47.9099 63.5544 47.9115 63.55C47.913 63.5456 47.9154 63.5416 47.9185 63.5382C47.9217 63.5347 47.9255 63.532 47.9298 63.5301C47.9341 63.5283 47.9387 63.5273 47.9433 63.5273C47.9525 63.5273 47.9614 63.5308 47.9681 63.537C47.9749 63.5432 47.979 63.5518 47.9798 63.5609C48.1702 67.0357 48.7946 78.7789 48.8198 84.0317C48.8366 89.1641 47.9405 103.469 47.5541 109.383C47.5542 109.388 47.5532 109.392 47.5513 109.396C47.5495 109.401 47.5468 109.405 47.5433 109.408C47.5399 109.411 47.5359 109.413 47.5315 109.415C47.5271 109.416 47.5224 109.417 47.5177 109.417Z" fill="#FFC100"/>
<path opacity="0.3" d="M47.5177 109.417C47.5083 109.415 47.4998 109.41 47.4936 109.403C47.4874 109.396 47.4841 109.387 47.4841 109.377C47.8705 103.467 48.7666 89.1613 48.7498 84.0317C48.7498 78.7817 48.1114 67.0385 47.9098 63.5637C47.9094 63.5591 47.9099 63.5544 47.9115 63.55C47.913 63.5456 47.9154 63.5416 47.9185 63.5382C47.9217 63.5347 47.9255 63.532 47.9298 63.5301C47.9341 63.5283 47.9387 63.5273 47.9433 63.5273C47.9525 63.5273 47.9614 63.5308 47.9681 63.537C47.9749 63.5432 47.979 63.5518 47.9798 63.5609C48.1702 67.0357 48.7946 78.7789 48.8198 84.0317C48.8366 89.1641 47.9405 103.469 47.5541 109.383C47.5542 109.388 47.5532 109.392 47.5513 109.396C47.5495 109.401 47.5468 109.405 47.5433 109.408C47.5399 109.411 47.5359 109.413 47.5315 109.415C47.5271 109.416 47.5224 109.417 47.5177 109.417Z" fill="#FAFAFA"/>
<path d="M48.9597 110.531C48.9765 110.531 48.8197 111.979 48.8197 111.979H44.5805L44.4153 110.688L48.9597 110.531Z" fill="#FFC100"/>
<path opacity="0.1" d="M48.9597 110.531C48.9765 110.531 48.8197 111.979 48.8197 111.979H44.5805L44.4153 110.688L48.9597 110.531Z" fill="#FAFAFA"/>
</svg>
