<svg width="16" height="16" viewBox="0 0 16 16" fill="none" xmlns="http://www.w3.org/2000/svg">
<path d="M11.6341 8.67917L9.86967 10.4436C9.48361 10.8297 8.85541 10.8297 8.46935 10.4436L5.55669 7.53092C5.17062 7.14485 5.17062 6.51666 5.55669 6.13059L7.32113 4.36617L3.62189 0.666992L2.04587 2.2669C1.1565 3.15699 0.666626 4.34012 0.666626 5.59845C0.666626 6.85742 1.15688 8.04102 2.04712 8.93123L7.06904 13.9532C7.95925 14.8434 9.14285 15.3337 10.4018 15.3337C11.6601 15.3337 12.8433 14.8438 13.7334 13.9544L15.3333 12.3784L11.6341 8.67917ZM3.62654 1.90392L6.08879 4.36615L5.47266 4.98228L3.01505 2.5247L3.62654 1.90392ZM7.68518 13.337L2.66326 8.31509C1.25357 6.9054 1.17071 4.66389 2.41422 3.15615L4.85948 5.60141C4.21622 6.3317 4.24297 7.44945 4.94052 8.14703L7.85321 11.0597C8.55082 11.7573 9.66859 11.7841 10.3988 11.1408L12.8441 13.586C11.3364 14.8296 9.09486 14.7467 7.68518 13.337ZM13.4756 12.9852L11.0179 10.5276L11.6341 9.91148L14.0963 12.3737L13.4756 12.9852Z" fill="#FDC400"/>
</svg>
