<svg width="20" height="12" viewBox="0 0 20 12" fill="none" xmlns="http://www.w3.org/2000/svg">
<path d="M14.1382 10.7362C13.7812 11.1001 13.4323 11.4476 13.0938 11.8049C12.9643 11.9418 12.824 12 12.637 12C8.59368 11.9965 4.55033 11.9974 0.506984 11.9974C0.0976836 11.9974 0.00356195 11.9007 0.00226669 11.4763C0.00140319 11.0869 0.000539689 10.6978 0.00269844 10.3083C0.00442545 10.0196 0.10416 9.90783 0.378754 9.8778C0.771647 9.83453 1.03717 9.54794 1.03458 9.16862C1.03242 8.79239 0.765171 8.51331 0.366664 8.47136C0.120135 8.44531 0.00528895 8.32343 0.00269844 8.07261C-0.000755564 7.74938 -0.00118732 7.42614 0.00313019 7.1029C0.00615245 6.85032 0.117544 6.73374 0.368391 6.70592C0.767329 6.66132 1.03286 6.38268 1.03545 6.00601C1.03804 5.63066 0.769056 5.34054 0.37789 5.29683C0.112363 5.26724 0.0057207 5.1542 0.00313019 4.8866C-0.000323813 4.57087 -0.000323813 4.25469 0.00226669 3.93896C0.00442545 3.67755 0.117544 3.55788 0.379185 3.53006C0.771215 3.48855 1.03631 3.20108 1.03372 2.81999C1.03113 2.44951 0.772079 2.17043 0.387389 2.12406C0.0994106 2.08962 0.00356195 1.98054 0.00226669 1.6785C0.000539689 1.26695 0.000539689 0.855835 0.00226669 0.44428C0.00356195 0.128107 0.123589 0.00446382 0.433586 0.00446382C3.30646 0.00402224 6.1789 0.00490541 9.05177 0.00490541C10.2222 0.00490541 11.3932 0.00887965 12.5636 4.80002e-05C12.7959 -0.00171833 12.9725 0.0583369 13.1344 0.235853C13.4522 0.58382 13.7898 0.913682 14.1356 1.26783C14.4668 0.93002 14.8001 0.609432 15.1097 0.266322C15.2854 0.0715844 15.4741 -0.00215991 15.7327 4.80002e-05C17.0038 0.0115291 18.2748 0.00490541 19.5463 0.00446382C19.8805 0.00446382 19.9967 0.123249 19.9975 0.469008C19.9984 0.873056 19.9992 1.2771 19.9975 1.68115C19.9962 1.98054 19.8974 2.09138 19.6094 2.1245C19.2208 2.1691 18.9587 2.46187 18.9652 2.84472C18.9712 3.20991 19.2398 3.48943 19.6236 3.53006C19.8853 3.55788 19.9954 3.67622 19.9975 3.94073C20.0001 4.24939 19.9997 4.55762 19.9975 4.86629C19.9954 5.15243 19.8943 5.26548 19.6197 5.29595C19.2286 5.33922 18.9609 5.63022 18.9648 6.00733C18.9682 6.37561 19.2337 6.66088 19.6128 6.70371C19.8909 6.73506 19.9954 6.84722 19.9975 7.1263C20.0001 7.43497 20.0001 7.74364 19.9975 8.05186C19.9954 8.32388 19.89 8.44134 19.631 8.46916C19.2346 8.51155 18.9652 8.79504 18.9648 9.16995C18.9648 9.54927 19.232 9.83629 19.6232 9.87736C19.8853 9.90474 19.9949 10.0209 19.9967 10.2885C19.9997 10.7217 20.0001 11.1553 19.9967 11.5889C19.9945 11.864 19.8693 11.9943 19.5977 11.9948C18.2545 11.997 16.9118 11.9996 15.5686 11.9881C15.4486 11.9872 15.3048 11.9126 15.2146 11.8261C14.8541 11.4803 14.51 11.1156 14.1382 10.7362ZM0.691341 0.710554C0.691341 0.907941 0.701271 1.08325 0.688319 1.25679C0.677525 1.40428 0.72545 1.47096 0.864905 1.52748C1.39337 1.74165 1.72538 2.2636 1.7215 2.83633C1.71804 3.40862 1.38301 3.92969 0.847203 4.13149C0.66889 4.19861 0.70084 4.31033 0.690046 4.43618C0.678389 4.56822 0.71077 4.63975 0.848499 4.69451C1.38387 4.90824 1.71891 5.42091 1.7215 5.99188C1.72452 6.573 1.38991 7.08656 0.843749 7.30868C0.719837 7.35902 0.677093 7.42084 0.689614 7.54801C0.697817 7.6328 0.691341 7.71891 0.691341 7.79707C1.31997 8.03199 1.69646 8.45723 1.71459 9.12667C1.73316 9.80273 1.39639 10.2633 0.782009 10.515C0.741856 10.5313 0.697818 10.5963 0.696091 10.6409C0.687024 10.8511 0.692205 11.0617 0.692205 11.2909C0.801869 11.2909 0.886493 11.2909 0.971116 11.2909C4.54083 11.2909 8.11012 11.2909 11.6798 11.2904C11.9885 11.2904 12.3331 11.3734 12.596 11.26C12.8667 11.1434 13.0576 10.8334 13.2834 10.6077C13.3192 10.572 13.352 10.5313 13.3913 10.5C13.684 10.2673 13.8701 9.98643 13.7984 9.58415C13.7967 9.57311 13.8101 9.55942 13.8192 9.5422C14.035 9.5422 14.2522 9.5422 14.4823 9.5422C14.4823 9.6314 14.4914 9.70559 14.4806 9.77624C14.4465 10.0014 14.5337 10.1604 14.6952 10.3123C14.9862 10.5852 15.2517 10.8859 15.541 11.161C15.6148 11.2313 15.7366 11.2829 15.8367 11.2838C16.9139 11.2926 17.9912 11.29 19.0688 11.2904C19.1448 11.2904 19.2204 11.2904 19.3028 11.2904C19.3028 11.025 19.3028 10.7914 19.3028 10.5508C18.6669 10.3101 18.2761 9.865 18.2852 9.15317C18.2938 8.46209 18.682 8.03022 19.3097 7.7953C19.3097 7.69727 19.3261 7.59791 19.3046 7.50827C19.2877 7.43939 19.2359 7.35195 19.1768 7.3259C18.6051 7.07111 18.283 6.63217 18.2852 5.99497C18.2874 5.35821 18.6086 4.91177 19.1897 4.68038C19.3227 4.62739 19.3179 4.53996 19.3076 4.43972C19.2972 4.3355 19.3594 4.21495 19.1958 4.1496C18.606 3.91556 18.2813 3.46382 18.2852 2.81646C18.2891 2.1797 18.6142 1.74121 19.1914 1.49834C19.2368 1.47935 19.3011 1.43033 19.3028 1.39236C19.3132 1.16847 19.308 0.943709 19.308 0.710996C18.0978 0.710996 16.9209 0.709229 15.7435 0.715853C15.6778 0.716295 15.6014 0.774583 15.5488 0.826249C15.3109 1.06029 15.0915 1.31596 14.8424 1.53675C14.5834 1.76682 14.4115 2.0172 14.4797 2.38592C14.4841 2.4102 14.4659 2.43847 14.459 2.46099C14.2358 2.46099 14.0238 2.46099 13.7915 2.46099C13.7915 2.36958 13.782 2.28877 13.7933 2.21105C13.8256 1.99423 13.7414 1.841 13.5869 1.69528C13.3075 1.43166 13.0399 1.15346 12.7791 0.869965C12.6655 0.746764 12.5464 0.706138 12.384 0.70658C9.79136 0.711437 7.19869 0.709671 4.6056 0.709671C3.31336 0.710554 2.0207 0.710554 0.691341 0.710554Z" fill="#F4B920"/>
</svg>
