<svg width="375" height="812" viewBox="0 0 375 812" fill="none" xmlns="http://www.w3.org/2000/svg">
<rect width="375" height="812" fill="#FDC400"/>
<path d="M153.916 358.79L140.114 344.408C134.781 349.425 120.98 368.154 120.038 393.238C119.286 413.305 129.763 431.477 135.095 438.055C144.819 448.088 165.522 470.497 174.619 480.196C183.715 489.895 189.989 484.209 193.753 480.196L230.453 441.065C218.511 427.757 191.557 399.258 191.557 399.258C191.557 399.258 184.343 391.599 177.442 398.59C172.423 403.673 175.351 410.295 177.442 412.971L203.477 441.065C203.477 441.065 197.262 448.088 191.871 453.44C186.48 458.791 179.637 456.45 176.501 453.44C173.364 450.43 173.364 450.764 151.72 426.684C130.076 402.603 141.682 368.154 153.916 358.79Z" fill="white"/>
<path d="M186.272 326C172.55 326 160.166 330.691 156.819 333.037L172.55 348.786C172.55 348.786 197.986 338.733 221.415 362.19C236.409 377.201 234.802 399.273 232.125 408.432L247.855 424.181C247.855 424.181 256.067 414.119 254.884 393.688C252.206 347.446 216.06 326 186.272 326Z" fill="white"/>
</svg>
